<svg width="24" height="25" viewBox="0 0 24 25" fill="none" xmlns="http://www.w3.org/2000/svg">
<path d="M12 10.25V14" stroke="#535765" stroke-width="2" stroke-linecap="round" stroke-linejoin="round"/>
<path d="M10.7068 4.24999L2.45683 18.5C2.3254 18.7276 2.25609 18.9858 2.25586 19.2487C2.25563 19.5115 2.32447 19.7698 2.4555 19.9977C2.58653 20.2256 2.77513 20.415 3.00243 20.5471C3.22972 20.6791 3.48772 20.7491 3.75058 20.75H20.2506C20.5134 20.7491 20.7714 20.6791 20.9987 20.5471C21.226 20.415 21.4146 20.2256 21.5457 19.9977C21.6767 19.7698 21.7455 19.5115 21.7453 19.2487C21.7451 18.9858 21.6758 18.7276 21.5443 18.5L13.2943 4.24999C13.1639 4.02206 12.9755 3.83263 12.7483 3.70088C12.5212 3.56914 12.2632 3.49976 12.0006 3.49976C11.738 3.49976 11.48 3.56914 11.2528 3.70088C11.0256 3.83263 10.8373 4.02206 10.7068 4.24999V4.24999Z" stroke="#535765" stroke-width="2" stroke-linecap="round" stroke-linejoin="round"/>
<path d="M12 18.5C12.6213 18.5 13.125 17.9963 13.125 17.375C13.125 16.7537 12.6213 16.25 12 16.25C11.3787 16.25 10.875 16.7537 10.875 17.375C10.875 17.9963 11.3787 18.5 12 18.5Z" fill="#535765"/>
</svg>
