<svg width="216" height="44" viewBox="0 0 216 44" fill="none" xmlns="http://www.w3.org/2000/svg">
<g clip-path="url(#clip0_3904_1873)">
<path d="M17.4769 34.6504C12.6795 34.6504 7.87069 34.5826 3.0845 34.6504C0.965466 34.69 -0.000814133 34.0006 0.0104874 31.7516C0.0726456 21.8741 0.0104915 11.9739 0.0500468 2.11338C0.0500468 1.40138 -0.232495 0.418156 0.575563 0.0678094C1.48533 -0.350346 1.81873 0.666785 2.31035 1.1584C4.71192 3.54302 6.97786 6.07455 9.50374 8.31789C11.5154 10.1092 12.1935 12.1096 12.1483 14.7654C12.0127 22.5296 12.1087 22.6765 19.7486 22.4843C22.6361 22.4222 24.7438 23.2246 26.6255 25.4284C28.6993 27.8526 31.1122 29.9829 33.3499 32.2658C33.8472 32.7744 34.7626 33.2264 34.4462 34.0627C34.1297 34.899 33.1409 34.6278 32.4402 34.6278C27.4505 34.6617 22.4666 34.6504 17.4769 34.6504Z" fill="white"/>
<path d="M75.64 36.0178C72.6225 33.1359 72.5716 32.4352 75.1766 29.3499C75.6852 28.7509 75.9621 28.3498 75.3631 27.6999C73.521 25.7052 73.3175 23.4562 74.798 21.258C76.4932 18.7548 79.0644 17.9467 81.9519 18.2914C83.9692 18.5344 85.8622 19.3763 87.9812 18.3818C89.0605 17.8732 89.4504 18.8847 89.0436 19.8736C88.7328 20.6252 88.0377 21.1224 88.0321 22.1339C88.0321 26.8749 86.1221 28.9148 81.449 29.3443C80.8843 29.3756 80.3184 29.3756 79.7537 29.3443C79.1887 29.3443 78.488 29.3443 78.4258 30.0506C78.341 30.9547 79.1378 31.0395 79.799 31.0677C81.1099 31.1186 82.4266 31.0677 83.7545 31.1355C87.2523 31.2881 89.3713 32.6217 89.9703 34.995C90.5693 37.3683 89.1396 40.1485 86.399 41.742C83.7877 43.2947 80.7056 43.8581 77.7138 43.3299C75.7361 43.0021 73.6905 42.6631 73.0067 40.3802C72.323 38.0973 74.2386 37.2836 75.64 36.0178ZM81.9293 36.289V36.3908C81.1765 36.3448 80.4217 36.3448 79.669 36.3908C78.3241 36.549 77.3465 37.3062 77.2166 38.6511C77.0866 39.996 77.9738 40.9453 79.2678 41.2956C81.4094 41.8607 83.3363 41.2108 85.105 40.0468C85.4198 39.8023 85.6556 39.4705 85.7829 39.0928C85.9103 38.7151 85.9235 38.3083 85.8211 37.9231C85.7186 37.5379 85.5049 37.1915 85.2067 36.927C84.9085 36.6625 84.5391 36.4917 84.1444 36.436C83.4092 36.3477 82.6697 36.2986 81.9293 36.289Z" fill="white"/>
<path d="M207.167 13.3528C214.762 9.99628 214.762 9.99629 214.762 17.5287C214.762 21.4843 214.762 25.4398 214.762 29.367C214.762 30.1186 215.01 30.904 214.852 31.6273C214.621 32.6219 217.418 33.4356 215.022 34.4527C211.886 35.7693 209.608 35.323 208.603 33.2039C205.862 35.2664 202.952 36.3627 199.878 33.9837C197.408 32.0851 196.425 28.0843 197.459 24.6939C198.026 22.937 199.098 21.3861 200.541 20.2353C201.984 19.0844 203.735 18.3848 205.574 18.2238C206.664 18.1164 208.19 19.3031 208.823 17.6587C209.456 16.0143 208.947 14.483 207.167 13.3528ZM208.925 26.0275H208.879C208.942 24.7225 208.93 23.4151 208.846 22.1115C208.71 20.8627 207.817 20.1676 206.585 20.0038C206.075 19.9123 205.549 19.9811 205.08 20.2006C204.61 20.4202 204.22 20.7798 203.963 21.23C202.709 23.1851 202.833 28.576 204.127 30.452C204.427 30.9345 204.877 31.3059 205.407 31.5098C205.937 31.7138 206.52 31.7392 207.066 31.5822C207.579 31.4911 208.045 31.2253 208.385 30.8298C208.725 30.4343 208.917 29.9335 208.93 29.4123C208.987 28.2538 208.925 27.1576 208.925 26.0275Z" fill="white"/>
<path d="M99.4487 34.5316C96.8061 34.8451 94.1344 34.8205 91.498 34.4581C92.8938 32.9607 92.7073 31.3502 92.7073 29.7737C92.7073 25.2531 93.5436 20.5291 92.453 16.291C91.3624 12.0529 93.7697 12.2225 96.1486 11.4483C97.8891 10.8832 98.6123 11.324 98.5615 13.1887C98.4937 15.449 98.5615 17.7093 98.5615 19.9696C99.816 20.2352 100.387 19.2802 101.189 18.9299C105.145 17.2347 108.535 19.2011 108.75 23.4957C108.868 25.756 108.823 28.0163 108.75 30.2766C108.71 31.8927 108.75 33.4354 110.75 34.4977C108.01 35.4753 105.664 35.0289 103.404 35.0119C102.59 35.0119 102.093 34.8198 102.647 33.6049C104.06 30.5026 103.269 27.1574 103.144 23.9195C103.105 22.7894 102.059 22.2243 100.884 22.2243C99.7086 22.2243 98.731 22.8628 98.6915 24.0043C98.5559 27.4512 97.8325 31.0055 99.4487 34.5316Z" fill="white"/>
<path d="M148.039 20.7214C150.61 18.5854 153.125 17.2405 156.137 19.2465C158.679 20.9418 160.03 24.8577 159.301 28.2877C158.989 30.0113 158.15 31.5958 156.9 32.8232C155.65 34.0506 154.051 34.8607 152.322 35.1421C152.132 35.1498 151.944 35.1725 151.757 35.2099C150.452 35.6224 148.248 34.2606 147.937 36.3853C147.627 38.51 146.807 41.1093 149.339 42.7819C147.186 43.7369 143.473 43.7878 140.631 42.8158C142.53 41.8778 142.326 40.256 142.326 38.6964C142.326 34.2832 142.326 29.87 142.326 25.4567C142.244 24.706 142.232 23.9492 142.292 23.1964C142.507 22.1002 140.388 21.1848 141.789 20.3145C143.346 19.4524 145.046 18.8782 146.807 18.6193C148.079 18.3933 147.525 19.8738 148.039 20.7214ZM147.694 27.6605H147.807C147.807 28.6946 147.728 29.74 147.807 30.7628C147.943 32.1529 148.502 33.396 150.034 33.656C151.565 33.9159 152.514 32.8423 152.989 31.5539C153.975 28.9838 153.975 26.1395 152.989 23.5694C152.83 23.0182 152.489 22.5366 152.023 22.2024C151.557 21.8682 150.991 21.7009 150.418 21.7272C148.949 21.7724 148.197 22.7783 147.92 24.0214C147.756 25.2273 147.681 26.4436 147.694 27.6605Z" fill="white"/>
<path d="M42.4535 34.7181C43.2852 26.7844 43.3003 18.7862 42.4987 10.8494C44.8664 10.5499 47.8387 10.629 51.5964 10.9341C49.5169 12.5559 49.7599 14.2737 49.7599 15.935C49.7599 20.7325 49.726 25.5413 49.7599 30.3332C49.7599 33.1585 50.8335 33.8366 53.4611 32.7404C55.7214 31.8024 56.8516 29.8811 57.9309 27.8525C58.3095 27.1235 58.6373 26.016 59.6261 26.2477C60.7902 26.5133 60.1912 27.649 60.1912 28.4175C59.8352 34.7125 59.8239 34.7125 53.625 34.7181H42.4535Z" fill="white"/>
<path d="M176.863 30.1977C176.118 33.17 174.309 34.5205 171.959 35.0404C168.743 35.7637 165.743 35.1703 163.55 32.4749C162.363 30.994 161.698 29.1623 161.66 27.2647C161.621 25.3671 162.21 23.5098 163.336 21.9815C165.545 18.8849 169.868 17.4609 173.337 18.625C174.058 18.8366 174.725 19.1975 175.297 19.6843C175.868 20.1711 176.331 20.7729 176.654 21.4503C177.915 24.1909 177.095 25.5415 174.129 25.5641C172.722 25.5641 171.303 25.6093 169.902 25.5245C167.602 25.3776 167.393 26.4795 168.043 28.3103C169.099 31.2657 171.597 32.4523 174.586 31.3109C175.247 31.0792 175.858 30.7006 176.863 30.1977Z" fill="white"/>
<path d="M194.295 30.5479C193.611 33.136 191.808 34.5034 189.441 35.0233C186.35 35.6957 183.411 35.255 181.202 32.6839C179.987 31.229 179.279 29.4182 179.184 27.5251C179.089 25.632 179.613 23.7595 180.676 22.1905C181.714 20.6716 183.187 19.5024 184.901 18.8367C186.616 18.1711 188.492 18.04 190.283 18.461C191.022 18.6128 191.722 18.9136 192.341 19.345C192.959 19.7763 193.484 20.3292 193.882 20.9699C194.577 22.1452 195.012 23.4619 194.374 24.7276C193.735 25.9934 192.396 25.5018 191.328 25.5526C190.26 25.6035 189.068 25.5526 187.938 25.5526C184.954 25.5865 184.434 26.4229 185.728 29.107C186.898 31.5368 189.333 32.424 191.887 31.4633C192.656 31.1978 193.142 30.2823 194.295 30.5479Z" fill="white"/>
<path d="M130.487 35.255L127.69 34.8312C125.124 34.4469 125.181 32.6613 125.656 30.7965C125.978 29.559 126.746 29.203 127.56 30.4631C128.278 31.5933 128.882 32.8139 130.103 33.4128C131.544 34.1192 133.188 34.3113 134.058 32.6613C134.928 31.0113 133.493 30.2823 132.329 29.6664C130.996 28.9713 129.504 28.5362 128.261 27.7282C124.932 25.66 125.107 21.1281 128.492 19.1673C131.363 17.5116 134.375 18.427 137.324 18.67C138.455 18.7661 138.115 20.0262 138.115 20.8003C138.115 21.7892 138.607 23.0607 137.652 23.7048C136.827 24.2699 136.403 23.2132 135.957 22.6594C135.149 21.6423 134.623 20.32 133.188 19.9866C132.131 19.7437 131.058 19.755 130.527 20.936C130.052 21.9983 130.656 22.7894 131.527 23.281C132.583 23.88 133.725 24.3264 134.838 24.835C138.093 26.3155 139.404 28.265 138.861 30.8191C138.319 33.3733 136.036 35.0798 132.725 35.2493C132.261 35.2719 131.792 35.255 130.487 35.255Z" fill="white"/>
<path d="M119.101 35.2494C116.304 35.2494 114.326 33.4638 114.112 30.5819C113.976 28.7171 114.078 26.8298 114.055 24.9311C114.055 23.3828 114.456 21.5746 111.987 21.4333C111.422 21.4333 111.038 20.7269 111.422 20.467C113.682 18.9639 114.162 15.4492 117.468 15.1892C117.751 15.1892 118.203 14.9971 118.276 15.0988C119.525 16.9014 120.401 19.0544 122.961 19.4725C122.902 19.8974 122.716 20.2946 122.428 20.6122C122.139 20.9298 121.762 21.153 121.344 21.2525C119.542 21.6819 119.316 22.9025 119.378 24.4338C119.44 25.8409 119.418 27.2592 119.378 28.6606C119.327 30.8418 119.655 32.5879 122.492 32.6161C123.848 32.6161 123.396 33.4863 122.752 34.0345C121.727 34.878 120.426 35.311 119.101 35.2494Z" fill="white"/>
<path d="M71.8377 34.5655C69.0118 35.1695 66.0942 35.206 63.2542 34.6729C64.746 30.2314 64.8985 25.8917 63.3954 21.5236C63.3333 21.3541 63.0451 21.1507 63.0846 21.0772C64.1187 19.0429 66.3677 19.4893 68.0234 18.7208C69.1535 18.1897 69.7638 18.8282 69.7582 20.0714C69.7582 23.3658 69.7582 26.6545 69.7582 29.9489C69.7695 31.5876 69.4587 33.3167 71.8377 34.5655Z" fill="white"/>
<path d="M66.7522 10.8269C68.5943 11.0303 69.8771 11.9288 69.9449 13.7823C70.0183 15.7318 68.8656 16.9976 66.8991 17.071C65.057 17.1388 63.8703 16.0652 63.7799 14.1948C63.7008 12.1887 64.9157 11.1603 66.7522 10.8269Z" fill="white"/>
</g>
<defs>
<clipPath id="clip0_3904_1873">
<rect width="216" height="43.5447" fill="white"/>
</clipPath>
</defs>
</svg>
