<svg width="178" height="77" viewBox="0 0 178 77" fill="none" xmlns="http://www.w3.org/2000/svg">
<g clip-path="url(#clip0_3904_2261)">
<path d="M5.62617 0H172.459C172.467 0.255747 172.482 0.511494 172.482 0.767241C172.482 14.1638 172.482 27.5607 172.482 40.9579C172.482 41.8232 172.652 41.853 171.572 41.8505C157.735 41.8138 143.899 41.859 130.062 41.8121C116.167 41.7652 102.271 41.8027 88.3817 41.8309C61.019 41.8877 33.6566 41.8939 6.29452 41.8496C5.56053 41.8496 5.54944 41.8385 5.54944 41.1207C5.54944 27.6383 5.54944 14.1559 5.54944 0.673468C5.54859 0.445853 5.54007 0.217385 5.62617 0ZM151.671 34.6111C153.065 34.6429 154.456 34.4895 155.809 34.155C160.539 32.9505 163.848 30.1662 165.304 25.4204C166.059 22.9584 166.077 20.4257 165.599 17.9125C164.701 13.1752 162.045 9.78574 157.49 8.13361C153.318 6.62044 149.065 6.73212 144.958 8.43028C141.274 9.95283 138.873 12.7268 137.812 16.5929C137.171 18.9296 137.136 21.3089 137.535 23.6882C138.217 27.7801 140.328 30.9019 143.979 32.9172C146.314 34.207 148.858 34.6427 151.671 34.6111ZM111.684 19.7539V10.4208C111.684 10.2648 111.684 10.108 111.69 9.95197C111.69 9.69623 111.81 9.55045 112.078 9.55216C113.837 9.55898 115.601 9.45497 117.344 9.8079C119.422 10.2341 120.839 11.4217 121.581 13.4139C121.689 13.7072 121.784 14.0047 121.885 14.3005C121.936 14.4472 122.014 14.5563 122.194 14.5213C122.374 14.4864 122.479 14.3935 122.48 14.2059C122.48 14.0925 122.474 13.9783 122.463 13.8649C122.387 12.9874 122.311 12.1105 122.233 11.2341C122.12 9.97584 122.006 8.71757 121.892 7.45929C121.881 7.33312 121.892 7.1882 121.743 7.13449C121.594 7.08079 121.503 7.1899 121.41 7.27515C121.248 7.41429 121.096 7.56288 120.952 7.72015C120.545 8.19755 120.05 8.35441 119.417 8.3527C113.251 8.33054 107.085 8.33224 100.918 8.35782C99.9756 8.36293 99.1819 8.25126 98.6457 7.40218C98.6282 7.37947 98.6082 7.35887 98.586 7.3408C98.4436 7.20099 98.3021 7.03219 98.0745 7.12853C97.8648 7.21377 97.8938 7.42945 97.8759 7.60933C97.7406 8.96593 97.6056 10.3222 97.4709 11.6783C97.3951 12.4549 97.3277 13.2332 97.2493 14.0107C97.228 14.217 97.2493 14.3704 97.4888 14.4301C97.7557 14.4966 97.8477 14.3449 97.9151 14.1351C97.9654 13.9723 98.0242 13.8121 98.077 13.6501C98.8622 11.2563 100.543 9.99886 103.021 9.69964C104.508 9.51976 105.998 9.54278 107.489 9.54193C108.07 9.54193 108.104 9.57858 108.104 10.1839C108.104 16.0945 108.101 22.0051 108.095 27.9157C108.095 28.8675 108.023 29.8179 107.878 30.7587C107.677 32.0434 106.959 32.8899 105.764 33.3699C104.968 33.6774 104.144 33.9041 103.303 34.0468C103.078 34.0885 102.89 34.1738 102.907 34.4543C102.926 34.7612 103.149 34.7654 103.369 34.7594C104.051 34.7407 104.733 34.7006 105.415 34.6989C109.066 34.6895 112.716 34.6307 116.366 34.7586C116.591 34.7663 116.846 34.7953 116.87 34.456C116.892 34.1448 116.671 34.0817 116.436 34.0382C115.766 33.9139 115.104 33.7462 114.456 33.5361C112.903 33.0315 112 32.011 111.869 30.3563C111.862 30.2711 111.852 30.1858 111.844 30.1006C111.727 28.827 111.699 27.5491 111.693 26.2712C111.677 24.1016 111.684 21.9278 111.684 19.7539ZM25.4116 18.54C25.4116 20.3583 25.4159 22.1767 25.4116 23.9959C25.4065 25.7009 25.3605 27.4016 25.1814 29.0989C24.9317 31.4637 24.0553 33.5131 22.2455 35.1141C21.461 35.7954 20.6103 36.3963 19.7059 36.9077C19.5354 37.0075 19.3351 37.0859 19.474 37.3587C19.5959 37.5974 19.7596 37.6332 19.9992 37.5479C21.8559 36.8898 23.6274 36.0714 25.207 34.8711C27.2121 33.3486 28.3953 31.3759 28.6443 28.8432C28.7969 27.2857 28.8574 25.7256 28.8634 24.1647C28.8813 19.3055 28.8727 14.4463 28.8702 9.58711C28.8731 9.00508 28.9302 8.4246 29.0407 7.85314C29.2853 6.56418 30.021 5.71169 31.281 5.31869C31.9182 5.1203 32.5722 4.98104 33.2349 4.90267C33.4361 4.8788 33.6458 4.83192 33.6356 4.56168C33.6237 4.27012 33.4029 4.28376 33.2017 4.28376C32.6049 4.28376 32.0082 4.28376 31.4114 4.29826C28.7133 4.36134 26.0152 4.37924 23.3128 4.30422C22.433 4.2795 21.5515 4.28888 20.6701 4.28547C20.4885 4.28547 20.3188 4.31701 20.3018 4.54548C20.2847 4.77395 20.4348 4.83959 20.6198 4.86687C20.7749 4.88903 20.9292 4.90864 21.0844 4.92569C21.7063 4.99047 22.3198 5.12019 22.9147 5.31272C24.04 5.68526 24.7629 6.43375 25.086 7.57779C25.3238 8.42005 25.3946 9.28277 25.398 10.1489C25.4176 12.9434 25.4065 15.7421 25.4074 18.54H25.4116ZM67.1896 7.78239C66.0123 7.79176 63.8964 7.75937 61.7806 7.69714C61.5632 7.69117 61.3356 7.68179 61.3262 8.00062C61.3168 8.31946 61.5325 8.3169 61.7524 8.34162C62.5167 8.40875 63.2715 8.55794 64.0039 8.78662C65.0865 9.14722 65.7404 9.86928 65.9961 10.9775C66.2156 11.9627 66.3215 12.9698 66.3116 13.9791C66.3286 18.5826 66.3286 23.186 66.3116 27.7895C66.3064 28.8662 66.2391 29.9446 65.9578 30.9991C65.6867 32.0178 65.0712 32.6879 64.0823 33.0451C63.327 33.3153 62.5435 33.4389 61.7507 33.5165C61.495 33.5412 61.2861 33.5753 61.3245 33.9001C61.3628 34.2249 61.6143 34.1508 61.8172 34.1457C62.2997 34.1337 62.7822 34.0988 63.2665 34.0988C66.9884 34.0988 70.7104 34.0178 74.4341 34.1533C74.6643 34.1619 74.8731 34.1457 74.8919 33.8464C74.9132 33.5208 74.6753 33.5412 74.4605 33.5208C73.7525 33.4628 73.052 33.3346 72.3693 33.138C71.198 32.7876 70.499 32.0298 70.2228 30.8363C69.9832 29.8031 69.921 28.7537 69.9176 27.7051C69.8994 23.1875 69.8994 18.6693 69.9176 14.1505C69.9227 13.0312 69.9773 11.9093 70.2859 10.8155C70.568 9.81813 71.1776 9.15319 72.1613 8.83095C72.4455 8.73774 72.7314 8.6542 73.0189 8.58032C73.5432 8.44477 74.082 8.39788 74.6182 8.33821C74.8313 8.31434 74.9132 8.1984 74.9055 7.99721C74.8978 7.79603 74.7938 7.71589 74.608 7.71078C74.4801 7.71078 74.3522 7.7031 74.2244 7.71078C72.1912 7.78239 70.1597 7.77557 67.1896 7.78239Z" fill="white"/>
<path d="M0 69.9043C1.30602 69.9043 2.61288 69.9137 3.92146 69.9043C4.04805 69.901 4.17368 69.9273 4.28836 69.981C4.40304 70.0347 4.50363 70.1144 4.58214 70.2138C5.65286 71.4073 6.72899 72.5971 7.81052 73.7832C7.91878 73.9025 7.99636 74.0696 8.23676 74.1097C8.23676 73.0065 8.31093 71.9188 8.12082 70.8395C8.05092 70.4397 7.7372 70.2666 7.36381 70.1874C7.27174 70.1677 7.14131 70.1652 7.17285 70.0169C7.19417 69.918 7.30073 69.9129 7.38427 69.9129C7.96652 69.9129 8.54877 69.9129 9.13103 69.9188C9.21116 69.9188 9.31346 69.9308 9.32539 70.0373C9.32539 70.0731 9.26998 70.1388 9.2265 70.1541C8.72439 70.3246 8.66386 70.7568 8.6417 71.189C8.57264 72.5087 8.60589 73.8318 8.61783 75.1497C8.61783 75.2631 8.62806 75.3773 8.61783 75.4907C8.6076 75.6041 8.67068 75.7788 8.53258 75.8385C8.39447 75.8982 8.31775 75.7345 8.24273 75.645C7.11062 74.2947 5.87536 73.0389 4.70745 71.7235C4.63329 71.6383 4.57105 71.5454 4.51138 71.4678C4.32809 71.5846 4.37328 71.7108 4.37583 71.8139C4.398 72.7355 4.32042 73.6578 4.43295 74.5785C4.48836 75.0312 4.71598 75.3032 5.15075 75.4199C5.26924 75.4515 5.46191 75.4677 5.44486 75.6092C5.42184 75.8019 5.21639 75.7268 5.09022 75.7277C4.41505 75.7362 3.73988 75.732 3.08516 75.732C3.03146 75.5359 3.12864 75.5129 3.20622 75.495C3.76716 75.3696 3.9547 74.9494 3.96834 74.4507C3.99648 73.3586 4.01523 72.264 3.98539 71.172C3.96238 70.3493 2.91211 69.8702 2.22159 70.3306C1.98204 70.49 1.91128 70.7381 1.90958 70.9972C1.90105 72.2191 1.90105 73.441 1.90958 74.6629C1.90958 75.0943 2.11247 75.391 2.56514 75.4788C2.65636 75.4958 2.76889 75.495 2.88227 75.7243C1.884 75.7328 0.943707 75.755 0 75.7055V75.535C0.88318 75.385 1.00338 75.2503 1.0085 74.3415C1.01418 73.3242 1.01418 72.3069 1.0085 71.2896C1.00253 70.4082 0.864425 70.2615 0.000852673 70.1652L0 69.9043Z" fill="white"/>
<path d="M178 70.1599C177.513 70.2145 177.408 70.5742 177.344 70.9749C177.217 71.7651 177.268 72.5622 177.259 73.3559C177.259 74.0805 177.267 74.8051 177.271 75.5297C177.271 75.6389 177.334 75.7906 177.221 75.8452C177.072 75.9159 177.01 75.7446 176.935 75.6568C175.786 74.3022 174.553 73.0234 173.365 71.7046C173.303 71.6206 173.248 71.5313 173.201 71.4378C173.012 71.6475 173.069 71.8103 173.069 71.957C173.069 72.7242 173.069 73.4914 173.08 74.2587C173.086 74.8324 173.255 75.297 173.895 75.4377C173.988 75.4581 174.123 75.4931 174.115 75.6031C174.106 75.7616 173.945 75.7258 173.844 75.7258C173.144 75.7318 172.444 75.7258 171.68 75.7258C171.752 75.5996 171.765 75.5442 171.791 75.5383C172.522 75.3678 172.668 74.7992 172.678 74.1683C172.695 73.2169 172.695 72.2647 172.688 71.3133C172.683 70.7081 172.461 70.4208 171.879 70.2051C171.78 70.1684 171.605 70.1906 171.623 70.0423C171.64 69.8718 171.817 69.9229 171.935 69.9067C172.648 69.8095 173.182 70.0329 173.663 70.6194C174.562 71.7166 175.551 72.7412 176.506 73.7924C176.591 73.8836 176.669 74.0541 176.794 74.0115C176.959 73.9569 176.887 73.7642 176.887 73.6321C176.887 72.8649 176.887 72.0976 176.868 71.3304C176.851 70.6075 176.716 70.4353 176.033 70.1821C175.954 70.1531 175.839 70.148 175.849 70.0423C175.861 69.9144 175.988 69.9152 176.082 69.9135C176.722 69.9059 177.361 69.9042 177.999 69.9008L178 70.1599Z" fill="white"/>
<path d="M89.9378 76.0421C89.3087 74.4581 88.6847 72.8725 88.0462 71.2928C87.856 70.8223 87.6881 70.3176 87.1084 70.1599C87.0838 70.1495 87.0621 70.1333 87.0452 70.1126C87.0282 70.092 87.0166 70.0675 87.0112 70.0414C87.0112 69.9561 87.0965 69.928 87.163 69.928C87.8876 69.9212 88.6119 69.9183 89.336 69.9195C89.4212 69.9195 89.5176 69.9416 89.5065 70.0584C89.5005 70.1437 89.4153 70.1514 89.3496 70.1744C88.7588 70.3841 88.7102 70.4472 88.8876 71.0217C89.2499 72.199 89.7648 73.3166 90.2072 74.476C90.2848 74.4274 90.3206 74.4189 90.3283 74.3985C90.7835 73.2664 91.2984 72.1556 91.6309 70.9774C91.7724 70.4736 91.6624 70.3193 91.1492 70.1906C91.0461 70.165 90.879 70.1906 90.8892 70.0405C90.8994 69.8905 91.0597 69.9161 91.1663 69.9152C91.7198 69.9101 92.2737 69.9101 92.8278 69.9152C92.9326 69.9152 93.0835 69.8922 93.098 70.0473C93.1074 70.1744 92.9642 70.171 92.8755 70.2008C92.4561 70.3432 92.2634 70.6961 92.098 71.0593C91.3572 72.6884 90.7187 74.3592 90.1083 76.0421H89.9378Z" fill="white"/>
<path d="M88.9957 66.2086H176.796C177.009 66.2086 177.222 66.2086 177.435 66.2197C177.557 66.224 177.658 66.2632 177.665 66.4141C177.672 66.565 177.58 66.617 177.46 66.6366C177.376 66.6505 177.29 66.6585 177.205 66.6604C177.02 66.6604 176.835 66.6604 176.65 66.6604H1.39378C1.13803 66.6604 0.882283 66.6562 0.626536 66.6417C0.491842 66.634 0.370789 66.5854 0.370789 66.4158C0.370789 66.2461 0.502924 66.2154 0.639323 66.212C0.837953 66.2069 1.03658 66.2061 1.23607 66.2061L88.9957 66.2086Z" fill="white"/>
<path d="M110.138 47.6244C111.601 47.6244 113.065 47.6364 114.528 47.6176C114.931 47.6133 115.057 47.7566 115.011 48.1436C114.926 48.8904 114.86 49.6397 114.781 50.3874C114.767 50.5203 114.788 50.7053 114.587 50.7113C114.386 50.7173 114.404 50.534 114.38 50.3993C114.38 50.3712 114.38 50.3422 114.373 50.314C114.185 48.9842 113.646 48.453 112.312 48.2868C111.421 48.176 110.522 48.2016 109.632 48.1922C109.312 48.1922 109.21 48.3397 109.211 48.6355C109.216 50.2268 109.216 51.8181 109.211 53.4094C109.211 53.7069 109.314 53.8587 109.637 53.8502C110.445 53.8271 111.257 53.8834 112.062 53.7734C113.051 53.6396 113.528 53.233 113.767 52.2662C113.802 52.1239 113.779 51.9108 114.012 51.9483C114.199 51.9781 114.175 52.1648 114.167 52.2986C114.081 53.6754 114.087 55.0522 114.089 56.4298C114.089 56.5517 114.105 56.7137 113.918 56.7179C113.732 56.7222 113.742 56.5645 113.717 56.4417C113.479 55.2295 113.044 54.8399 111.751 54.77C111.043 54.7316 110.331 54.7606 109.62 54.7564C109.394 54.7564 109.216 54.8143 109.219 55.0795C109.229 56.2729 109.15 57.4664 109.278 58.6557C109.373 59.5363 109.875 60.0358 110.728 60.2046C111.034 60.2652 111.342 60.3112 111.648 60.3751C111.788 60.4041 111.941 60.4433 111.913 60.6403C111.889 60.815 111.743 60.8039 111.617 60.8108C111.491 60.8176 111.39 60.815 111.276 60.815H105.778C105.65 60.815 105.522 60.815 105.394 60.8099C105.267 60.8048 105.163 60.7835 105.139 60.6394C105.115 60.4689 105.237 60.4178 105.368 60.3913C105.604 60.3436 105.844 60.3172 106.079 60.2617C106.855 60.0776 107.165 59.7503 107.278 58.9626C107.337 58.5694 107.369 58.1726 107.374 57.775C107.382 55.417 107.382 53.0585 107.374 50.6994C107.37 50.3018 107.335 49.905 107.271 49.5127C107.135 48.6602 106.771 48.3328 105.832 48.1274C105.61 48.0788 105.211 48.1794 105.254 47.8094C105.291 47.4846 105.655 47.6389 105.868 47.6389C107.297 47.6168 108.717 47.6244 110.138 47.6244Z" fill="white"/>
<path d="M66.7935 47.6458H69.351C69.478 47.6458 69.6068 47.6457 69.7338 47.6517C69.8608 47.6577 69.9895 47.7029 69.9895 47.8734C69.9895 48.014 69.8923 48.0677 69.7721 48.0942C69.5232 48.1487 69.2726 48.1982 69.0236 48.2561C68.2777 48.4266 67.8924 48.9168 67.8063 49.6602C67.7531 50.0827 67.7247 50.508 67.721 50.9338C67.7262 53.4623 67.721 55.9908 67.721 58.521C67.7195 59.0465 67.6801 59.5713 67.6034 60.0913C67.4624 61.1459 66.9167 62.1044 66.0817 62.7638C65.3479 63.3506 64.5201 63.8089 63.6334 64.1193C63.468 64.179 63.271 64.2957 63.1525 64.0502C63.034 63.8047 63.26 63.7553 63.3921 63.6785C65.063 62.7041 65.8302 61.2447 65.8993 59.3223C66.0058 56.3539 65.924 53.3856 65.9504 50.418C65.9437 50.1198 65.908 49.8228 65.8439 49.5315C65.7143 48.8537 65.3187 48.4113 64.6367 48.2527C64.3887 48.1948 64.1363 48.1538 63.8848 48.1095C63.7194 48.0805 63.5089 48.0933 63.5328 47.8444C63.5541 47.6287 63.7493 47.65 63.9002 47.6492C64.8652 47.6492 65.8311 47.6492 66.7986 47.6492L66.7935 47.6458Z" fill="white"/>
<path d="M80.5189 60.8107C79.5684 60.8107 78.617 60.8107 77.6665 60.8107C77.5113 60.8107 77.282 60.8729 77.2658 60.618C77.2496 60.3631 77.4823 60.381 77.6366 60.3623C79.2726 60.1807 79.5454 59.63 79.5803 58.0759C79.6366 55.5184 79.5991 52.9669 79.5905 50.4112C79.5806 50.0995 79.5464 49.7891 79.4882 49.4828C79.3791 48.8076 78.9921 48.3831 78.3161 48.2416C78.0526 48.187 77.7867 48.1444 77.5215 48.0992C77.3886 48.0762 77.2598 48.043 77.2556 47.8793C77.2504 47.6849 77.3962 47.6559 77.5454 47.6457C77.6443 47.6389 77.744 47.6389 77.8438 47.6389H83.2085C83.2795 47.635 83.3506 47.635 83.4216 47.6389C83.5836 47.6568 83.7976 47.6167 83.801 47.8682C83.801 48.0873 83.6151 48.0805 83.46 48.1043C81.8854 48.355 81.5623 48.7011 81.5052 50.2927C81.4097 52.9735 81.4117 55.6551 81.5112 58.3376C81.5154 58.5076 81.5316 58.6771 81.5598 58.8449C81.7303 59.7928 82.1071 60.1568 83.0619 60.3163C83.2017 60.3393 83.3458 60.341 83.483 60.3717C83.6203 60.4024 83.824 60.4041 83.7916 60.6351C83.7635 60.8354 83.5887 60.8056 83.4549 60.8056C82.8871 60.8098 82.3194 60.8056 81.7499 60.8056H80.5189V60.8107Z" fill="white"/>
<path d="M93.4894 54.2055C93.4527 52.8296 93.5269 51.4528 93.4246 50.0769C93.3274 48.7615 92.9856 48.3565 91.6855 48.1315C91.6003 48.117 91.515 48.1127 91.4298 48.1008C91.2866 48.0803 91.1288 48.0641 91.1288 47.8715C91.1288 47.6456 91.3121 47.6567 91.4656 47.6405C91.5218 47.6353 91.579 47.6405 91.6361 47.6405H97.1721C97.2284 47.6405 97.2855 47.6405 97.3426 47.6405C97.5004 47.6532 97.6836 47.6532 97.676 47.8749C97.676 48.0641 97.514 48.0769 97.3716 48.1034C97.0792 48.1571 96.7843 48.2057 96.497 48.2798C95.9369 48.4265 95.5933 48.7913 95.474 49.3608C95.3867 49.7483 95.3388 50.1435 95.3308 50.5406C95.3308 52.9967 95.3308 55.4527 95.3359 57.9079C95.3408 58.2626 95.3762 58.6162 95.4416 58.9649C95.5967 59.8234 96.0315 60.1917 96.9974 60.3289C97.1679 60.3528 97.3384 60.3775 97.5012 60.4142C97.5262 60.4164 97.5504 60.4238 97.5724 60.4358C97.5945 60.4477 97.6138 60.4641 97.6293 60.4838C97.6448 60.5035 97.6561 60.5262 97.6625 60.5504C97.6689 60.5747 97.6703 60.5999 97.6666 60.6247C97.6658 60.6498 97.6601 60.6744 97.6496 60.6972C97.6391 60.72 97.6242 60.7404 97.6056 60.7572C97.5871 60.7741 97.5653 60.7871 97.5417 60.7954C97.518 60.8036 97.493 60.8071 97.468 60.8055C97.3554 60.814 97.2412 60.8174 97.127 60.8174H91.6821C91.5832 60.8174 91.4835 60.8174 91.3846 60.8114C91.2704 60.8029 91.151 60.7944 91.134 60.6409C91.1144 60.4704 91.2346 60.4227 91.365 60.3963C91.4954 60.3698 91.6207 60.3536 91.7435 60.3357C92.8875 60.1746 93.3163 59.7023 93.4135 58.554C93.5329 57.1005 93.4536 55.6522 93.4894 54.2055Z" fill="white"/>
<path d="M72.764 74.1958C72.764 73.079 72.7819 72.1003 72.7572 71.1268C72.7444 70.6392 72.4853 70.2999 71.9755 70.1976C71.8834 70.1797 71.741 70.1771 71.7504 70.051C71.7624 69.9009 71.9209 69.9205 72.0224 69.9197C73.0871 69.9197 74.1536 69.9197 75.2183 69.9197C75.4801 69.9197 75.6207 70.1064 75.7725 70.2735C76.8398 71.4533 77.9074 72.6329 78.9753 73.8121C79.0673 73.9144 79.1347 74.0483 79.2762 74.0935C79.3487 74.0628 79.3478 74.0022 79.347 73.9468C79.347 73.0662 79.3546 72.1856 79.3333 71.3041C79.318 70.6315 79.1432 70.4141 78.5414 70.2036C78.451 70.172 78.3069 70.1814 78.312 70.0586C78.318 69.9035 78.4749 69.9248 78.578 69.9231C79.1321 69.918 79.6863 69.9231 80.2395 69.9231C80.3248 69.9231 80.433 69.9231 80.4603 70.016C80.5038 70.1575 80.3682 70.1635 80.2804 70.195C79.9872 70.2999 79.8857 70.5463 79.8286 70.8182C79.7577 71.1663 79.7246 71.521 79.7297 71.8761C79.7354 73.0838 79.7354 74.2915 79.7297 75.4992C79.7297 75.6186 79.792 75.7899 79.6504 75.8402C79.5089 75.8905 79.4416 75.7234 79.364 75.6314C78.2788 74.3373 77.1032 73.1199 75.9702 71.8651C75.8705 71.7542 75.7793 71.5437 75.6241 71.5948C75.4536 71.6502 75.5329 71.8693 75.5329 72.0159C75.5329 72.7832 75.5474 73.5504 75.5517 74.3177C75.5517 74.8709 75.7401 75.2878 76.3317 75.4302C76.4348 75.4549 76.5934 75.4796 76.5764 75.6169C76.5593 75.7541 76.3965 75.7251 76.2916 75.726C75.59 75.7302 74.8876 75.726 74.1792 75.726C74.1786 75.6738 74.184 75.6218 74.1954 75.5708C74.9711 75.3841 75.1391 74.7891 75.1501 74.1131C75.1672 73.1472 75.1791 72.1805 75.1501 71.2146C75.1305 70.5181 74.5074 70.0646 73.816 70.1788C73.4562 70.2385 73.3275 70.4985 73.2687 70.8037C73.2014 71.138 73.1669 71.478 73.1655 71.819C73.1724 73.0409 73.1724 74.2628 73.1655 75.4847C73.1655 75.6049 73.2269 75.7771 73.0914 75.8317C72.9558 75.8863 72.8859 75.7132 72.8058 75.6237C71.6612 74.3603 70.518 73.0961 69.3762 71.831C69.285 71.7304 69.2015 71.5428 69.0574 71.588C68.8971 71.6391 68.9721 71.8369 68.9721 71.9691C68.9721 72.7218 68.9858 73.4754 68.9841 74.2282C68.9841 74.8249 69.1495 75.2938 69.8084 75.4395C69.8988 75.4592 70.0301 75.4924 70.0173 75.61C70.0045 75.7277 69.8664 75.7183 69.7735 75.7183C68.1253 75.7183 66.4772 75.7163 64.829 75.7123C64.7778 75.7043 64.7281 75.6885 64.6816 75.6655C64.6645 75.495 64.7907 75.495 64.8751 75.4813C65.3951 75.402 65.5963 75.0551 65.6005 74.5819C65.6125 73.4027 65.6125 72.2237 65.6005 71.045C65.5946 70.5906 65.4036 70.2479 64.8964 70.1797C64.8026 70.1669 64.6603 70.1618 64.6696 70.0373C64.6799 69.8898 64.835 69.9026 64.9407 69.9026C66.176 69.9026 67.4129 69.9026 68.6482 69.9026C68.9099 69.9026 69.0531 70.0816 69.2057 70.2504L72.4077 73.7908L72.764 74.1958ZM66.4991 72.8224C66.4991 73.3907 66.4991 73.9591 66.4991 74.5274C66.4991 74.5981 66.5085 74.6689 66.5119 74.7397C66.5255 74.9758 66.5886 75.1881 66.794 75.3321C67.476 75.8104 68.401 75.4361 68.5195 74.6186C68.6857 73.4609 68.5792 72.2947 68.586 71.1328C68.5792 71.0194 68.5502 70.9085 68.5007 70.8063C68.3004 70.34 67.7608 70.097 67.1725 70.2001C66.6815 70.2854 66.5238 70.4883 66.5059 71.1208C66.4871 71.686 66.4999 72.2546 66.4991 72.8224Z" fill="white"/>
<path d="M140.186 71.5153C140.194 72.6005 140.101 73.6892 140.286 74.7701C140.351 75.1563 140.643 75.3259 140.991 75.4274C141.102 75.4589 141.285 75.4674 141.247 75.6379C141.219 75.7701 141.056 75.7232 140.95 75.7232C140.353 75.7283 139.756 75.7283 139.159 75.7232C139.055 75.7232 138.928 75.7573 138.857 75.6132C138.88 75.5834 138.899 75.528 138.928 75.528C139.653 75.3711 139.781 74.8315 139.795 74.2049C139.81 73.3098 139.842 72.4147 139.85 71.5221C139.858 70.7174 139.488 70.2434 138.834 70.1871C138.377 70.1471 138.138 70.3218 138.044 70.7677C137.976 71.1308 137.945 71.4998 137.952 71.8691C137.944 72.5076 137.952 73.1478 137.885 73.7838C137.738 75.1162 137.137 75.7394 135.804 75.8766C135.364 75.9199 134.921 75.8743 134.499 75.7428C133.787 75.5251 133.386 75.0455 133.295 74.3038C133.169 73.2697 133.259 72.2322 133.231 71.1973C133.212 70.4693 133.213 70.4608 132.521 70.1829C132.443 70.1513 132.334 70.136 132.351 70.0311C132.368 69.9263 132.475 69.9211 132.56 69.9203C133.34 69.9169 134.121 69.9169 134.902 69.9203C134.987 69.9203 135.1 69.9348 135.109 70.0311C135.122 70.1658 134.992 70.1607 134.898 70.1854C134.256 70.3559 134.123 70.4974 134.114 71.1487C134.102 72.0575 134.098 72.9671 134.12 73.8767C134.14 74.7531 134.646 75.268 135.516 75.3507C136.83 75.476 137.429 74.9517 137.493 73.6389C137.54 72.8439 137.54 72.0468 137.493 71.2519C137.444 70.5699 137.279 70.3525 136.625 70.1837C136.534 70.1598 136.396 70.1769 136.402 70.0413C136.408 69.9058 136.54 69.9152 136.635 69.9152C137.729 69.9152 138.823 69.9152 139.916 69.9152C140.16 69.9152 140.288 70.0951 140.431 70.2562C141.535 71.4786 142.64 72.7005 143.745 73.9219C143.81 73.9926 143.886 74.054 144.001 74.1606C144.086 73.7488 144.045 73.384 144.043 73.0242C144.043 72.4138 144.066 71.8051 144.002 71.1939C143.944 70.6458 143.719 70.2826 143.149 70.1846C143.064 70.1701 142.969 70.1462 142.979 70.0379C142.988 70.0131 143.004 69.9911 143.024 69.974C143.045 69.9568 143.069 69.9451 143.095 69.9399C143.777 69.9203 144.467 69.8691 145.177 70.0158C144.39 70.3619 144.437 71.0464 144.432 71.6935C144.422 72.9569 144.432 74.2211 144.432 75.4853C144.432 75.6073 144.488 75.7795 144.359 75.8374C144.188 75.9116 144.122 75.7215 144.038 75.6217C142.916 74.2816 141.687 73.0379 140.532 71.7276C140.462 71.6377 140.399 71.5428 140.343 71.4437L140.186 71.5153Z" fill="white"/>
<path d="M61.1486 71.9279C61.4606 71.9279 61.7726 71.9279 62.0864 71.9279C62.1665 71.9279 62.2765 71.916 62.2969 72.0234C62.3216 72.1453 62.2023 72.1513 62.1264 72.1649C61.1887 72.3354 60.7019 73.0293 60.2245 73.7471C60.0932 73.9441 60.1137 74.0881 60.2518 74.2808C60.7531 74.9739 61.3302 75.4956 62.2731 75.3353C62.3489 75.3225 62.4657 75.2978 62.4904 75.4061C62.522 75.5399 62.3873 75.5595 62.3029 75.5928C61.7407 75.8026 61.1351 75.8691 60.5408 75.7863C60.1998 75.7479 60.1146 75.4402 59.9671 75.2066C59.6355 74.6883 59.638 74.6866 59.1998 75.1214C58.9352 75.4006 58.6049 75.6093 58.2391 75.7283C57.569 75.9235 56.9603 75.8136 56.4932 75.2765C56.026 74.7394 55.9629 74.1325 56.2417 73.4863C56.4109 73.1075 56.6833 72.784 57.0277 72.5528C57.2672 72.3823 57.3175 72.234 57.0899 72.0183C56.9894 71.9169 56.9034 71.8022 56.8342 71.6773C56.4633 71.0516 56.6696 70.3431 57.3209 70.02C57.7055 69.8259 58.1473 69.7775 58.5647 69.8837C58.991 69.9868 59.3268 70.2127 59.4249 70.6688C59.5229 71.1249 59.3396 71.4966 58.962 71.777C58.4258 72.1717 58.4334 72.1709 58.8827 72.65C59.1538 72.9398 59.4181 73.2382 59.6661 73.5477C59.823 73.742 59.927 73.7301 60.0387 73.5204C60.1504 73.3107 60.2569 73.1223 60.3626 72.9236C60.5331 72.6048 60.5749 72.3269 60.1316 72.1956C60.0583 72.1743 59.9517 72.1385 59.9901 72.0251C60.0233 71.9279 60.1273 71.9356 60.2092 71.9347C60.5212 71.9347 60.8332 71.9347 61.1469 71.9347L61.1486 71.9279ZM58.1845 75.0821C58.5409 75.1009 58.8665 74.9466 59.1606 74.7028C59.3311 74.5596 59.3686 74.4172 59.2152 74.2331C58.7643 73.6851 58.2822 73.1636 57.7711 72.6713C57.6321 72.5383 57.5153 72.5392 57.3619 72.6568C56.9552 72.9739 56.7523 73.7156 56.9356 74.2535C57.1095 74.7676 57.5758 75.0855 58.1845 75.0864V75.0821ZM57.3908 70.8197C57.3908 71.1607 57.7745 71.7174 58.0771 71.8188C58.1165 71.8322 58.1588 71.8349 58.1995 71.8265C58.2403 71.8181 58.2781 71.799 58.309 71.7711C58.6406 71.529 58.7906 70.9186 58.6073 70.5443C58.4454 70.2136 58.1683 70.1181 57.8316 70.1905C57.4948 70.263 57.3866 70.5085 57.3908 70.8231V70.8197Z" fill="white"/>
<path d="M147.029 75.7302C146.602 75.7302 146.176 75.7302 145.75 75.7302C145.67 75.7302 145.56 75.7455 145.537 75.6398C145.51 75.5196 145.622 75.506 145.701 75.494C146.383 75.396 146.5 74.9024 146.503 74.3389C146.503 73.3159 146.509 72.2929 146.503 71.2699C146.503 70.7584 146.402 70.2947 145.779 70.1898C145.694 70.1753 145.597 70.1438 145.608 70.0364C145.619 69.929 145.722 69.9119 145.804 69.9119C147.023 69.9119 148.251 69.7414 149.448 70.0952C150.971 70.5428 151.724 71.6629 151.59 73.2417C151.479 74.5597 150.357 75.558 148.812 75.7268C148.22 75.7958 147.621 75.797 147.029 75.7302ZM150.535 72.992C150.535 71.3722 149.464 70.264 147.839 70.1839C147.473 70.166 147.328 70.2819 147.334 70.6613C147.35 71.8547 147.334 73.0482 147.345 74.2417C147.352 74.4685 147.383 74.6939 147.437 74.9143C147.459 75.035 147.517 75.1461 147.604 75.2324C147.691 75.3188 147.803 75.3762 147.924 75.3968C148.708 75.5401 149.425 75.4352 149.975 74.7796C150.41 74.2596 150.552 73.6552 150.535 72.992Z" fill="white"/>
<path d="M165.363 72.8122C165.363 71.0092 166.601 69.7995 168.445 69.8054C170.221 69.8123 171.438 71.0501 171.45 72.8608C171.461 74.6459 170.186 75.8854 168.36 75.8666C166.563 75.8479 165.366 74.628 165.363 72.8122ZM166.426 72.6817C166.406 73.4149 166.547 74.0849 166.958 74.6791C167.79 75.8811 169.456 75.7874 170.072 74.4669C170.624 73.2845 170.556 72.0799 169.824 70.9844C168.996 69.7449 167.336 69.9052 166.696 71.2547C166.491 71.701 166.398 72.1911 166.426 72.6817Z" fill="white"/>
<path d="M105.856 72.8079C105.856 71.0177 107.076 69.8071 108.892 69.8054C110.709 69.8037 111.923 71.0322 111.938 72.8642C111.951 74.6263 110.707 75.8479 108.885 75.8666C107.078 75.8828 105.856 74.6484 105.856 72.8079ZM106.916 72.6544C106.898 73.5069 107.056 74.2546 107.598 74.8769C108.429 75.8291 109.825 75.7029 110.483 74.6211C111.141 73.5393 110.983 71.692 110.133 70.7474C109.958 70.5454 109.739 70.3864 109.492 70.2829C109.246 70.1794 108.979 70.1341 108.712 70.1506C108.445 70.1671 108.186 70.2449 107.954 70.378C107.723 70.5111 107.525 70.6959 107.376 70.9179C107.008 71.4567 106.891 72.0611 106.916 72.6544H106.916Z" fill="white"/>
<path d="M80.9595 72.8316C80.9595 71.0175 82.153 69.8163 83.9748 69.8053C85.7966 69.7942 87.0037 71.0124 87.0259 72.8623C87.0472 74.6261 85.7855 75.8665 83.9714 75.8665C82.1573 75.8665 80.9629 74.6551 80.9595 72.8316ZM82.0158 72.7088C81.9919 73.4334 82.1257 74.1333 82.5835 74.7395C83.4573 75.8954 85.0702 75.7582 85.6704 74.4402C86.2058 73.2655 86.1307 72.0788 85.4146 70.9945C84.5886 69.7481 82.9424 69.8973 82.2869 71.2451C82.0618 71.7046 82.003 72.1914 82.0158 72.7088Z" fill="white"/>
<path d="M131.998 72.8778C131.998 74.6757 130.766 75.8862 128.954 75.8666C127.143 75.847 125.97 74.6552 125.97 72.8164C125.97 70.9964 127.159 69.8105 128.99 69.8054C130.801 69.8012 131.998 71.0228 131.998 72.8778ZM128.917 70.1746C128.276 70.1515 127.809 70.4397 127.463 70.9333C126.724 71.9784 126.86 73.9758 127.729 74.9178C128.571 75.8283 129.954 75.6799 130.583 74.6118C131.225 73.5223 131.095 71.8139 130.302 70.8378C129.941 70.3954 129.488 70.1405 128.917 70.1746Z" fill="white"/>
<path d="M46.7683 72.8785C46.7683 74.6492 45.5671 75.8435 43.7522 75.8665C41.9372 75.8895 40.7207 74.6654 40.7198 72.8155C40.7198 71.0065 41.9227 69.8087 43.7445 69.8062C45.5663 69.8036 46.764 71.0286 46.7683 72.8785ZM45.7547 72.9732C45.7206 72.1761 45.5543 71.4267 45.0258 70.7976C44.8539 70.5828 44.6335 70.412 44.3827 70.2991C44.1319 70.1862 43.8579 70.1345 43.5832 70.1482C43.3085 70.1619 43.041 70.2407 42.8027 70.3781C42.5644 70.5154 42.3621 70.7074 42.2126 70.9383C41.5297 71.9502 41.615 73.8512 42.3822 74.7975C43.2696 75.8878 44.8024 75.7173 45.429 74.4565C45.6609 73.9893 45.7308 73.4847 45.7547 72.9732Z" fill="white"/>
<path d="M25.1366 72.6722C25.2858 72.7353 25.4401 72.7975 25.5927 72.8657C26.3335 73.1956 26.701 73.7591 26.6055 74.4181C26.5083 75.1001 25.9422 75.6269 25.1614 75.7113C24.1699 75.8196 23.1751 75.7113 22.1776 75.7266C22.0984 75.7266 21.9833 75.7386 21.9628 75.6363C21.9347 75.4948 22.0788 75.499 22.1606 75.4658C22.8562 75.1896 22.904 75.1248 22.9057 74.378C22.9057 73.2834 22.8997 72.1897 22.9057 71.0959C22.9057 70.6313 22.7735 70.2861 22.2654 70.1914C22.1708 70.1735 22.0387 70.159 22.0591 70.0278C22.0779 69.9127 22.2066 69.9058 22.3047 69.905C23.2126 69.8973 24.1239 69.8197 25.0224 70.0116C25.8101 70.1821 26.1929 70.5503 26.25 71.1735C26.3045 71.7702 26.0053 72.1888 25.2943 72.5281C25.2415 72.5571 25.1622 72.5579 25.1366 72.6722ZM25.6481 74.3439C25.6519 74.1491 25.6153 73.9555 25.5407 73.7755C25.466 73.5955 25.355 73.4328 25.2145 73.2978C25.074 73.1627 24.9071 73.0582 24.7242 72.9907C24.5414 72.9232 24.3466 72.8943 24.152 72.9058C23.9056 72.9168 23.7803 73.0234 23.782 73.2647C23.782 73.8154 23.7897 74.3669 23.8102 74.9176C23.8073 75.0324 23.8443 75.1447 23.9149 75.2353C23.9854 75.3259 24.0852 75.3893 24.1972 75.4146C24.984 75.6354 25.6447 75.1495 25.6507 74.3439H25.6481ZM23.7803 71.3738C23.7803 71.6705 23.7803 71.9706 23.7803 72.2647C23.7803 72.4352 23.8366 72.6014 24.0361 72.5835C24.4623 72.5452 24.8886 72.4573 25.1656 72.0874C25.4214 71.7421 25.4427 71.3517 25.2807 70.9604C25.1187 70.5691 24.5186 70.1931 24.0804 70.1991C23.8553 70.1991 23.7829 70.3329 23.7795 70.5256C23.7795 70.8078 23.7837 71.0908 23.7829 71.3738H23.7803Z" fill="white"/>
<path d="M117.378 74.0898C117.353 73.0148 117.447 71.9586 117.302 70.9041C117.244 70.4778 116.941 70.2852 116.552 70.1922C116.46 70.1701 116.323 70.1658 116.337 70.0371C116.35 69.9084 116.482 69.9177 116.578 69.9169C117.146 69.9169 117.713 69.9169 118.283 69.9169C118.368 69.9169 118.47 69.9254 118.494 70.0226C118.518 70.1198 118.423 70.1607 118.341 70.1846C118.02 70.28 117.907 70.5418 117.859 70.829C117.802 71.15 117.769 71.4749 117.761 71.8009C117.751 73.0225 117.761 74.2433 117.756 75.4666C117.756 75.5962 117.833 75.7871 117.666 75.8408C117.538 75.8809 117.468 75.707 117.385 75.6149C116.249 74.3618 115.116 73.108 113.987 71.8537C113.923 71.7781 113.854 71.7066 113.78 71.6398C113.645 71.5221 113.566 71.5826 113.567 71.7369C113.572 72.7292 113.501 73.725 113.631 74.7138C113.683 75.1162 113.965 75.3166 114.333 75.4265C114.443 75.4598 114.628 75.4649 114.598 75.6337C114.574 75.7701 114.41 75.7283 114.304 75.7292C113.694 75.7343 113.083 75.7343 112.473 75.7292C112.381 75.7292 112.246 75.7641 112.217 75.6439C112.181 75.4956 112.333 75.5067 112.416 75.4836C112.859 75.3626 113.06 75.0574 113.114 74.6201C113.259 73.4453 113.193 72.2663 113.165 71.0899C113.154 70.6142 112.799 70.3457 112.355 70.2101C112.252 70.1794 112.086 70.1863 112.112 70.0328C112.134 69.899 112.291 69.9271 112.4 69.9126C113.107 69.8223 113.65 70.0098 114.135 70.6065C115.041 71.7148 116.042 72.748 117.008 73.8094C117.096 73.9057 117.163 74.0429 117.378 74.0898Z" fill="white"/>
<path d="M52.207 74.0815C52.207 73.1054 52.2266 72.1284 52.1994 71.1523C52.1857 70.6536 51.9334 70.2904 51.3989 70.1933C51.3042 70.1762 51.1678 70.1575 51.1951 70.0296C51.2181 69.9222 51.352 69.9213 51.4509 69.9213C52.0044 69.9179 52.5583 69.9179 53.1124 69.9213C53.2062 69.9213 53.334 69.9136 53.3519 70.0415C53.3673 70.1481 53.2539 70.1643 53.1755 70.1899C52.8975 70.2802 52.7833 70.5036 52.7228 70.7619C52.6546 71.0525 52.6202 71.35 52.6205 71.6485C52.6245 72.9408 52.6245 74.2335 52.6205 75.5264C52.6205 75.6356 52.6648 75.7882 52.5523 75.8393C52.4005 75.9092 52.3409 75.7379 52.2607 75.6501C51.1315 74.3935 50.0011 73.1363 48.8695 71.8786C48.7476 71.7431 48.6308 71.6016 48.5217 71.4746C48.4458 71.5172 48.4041 71.5291 48.4032 71.5436C48.3248 72.5939 48.3862 73.6424 48.474 74.6884C48.5098 75.1087 48.815 75.3201 49.2029 75.4258C49.3086 75.4557 49.4731 75.483 49.4586 75.6066C49.4398 75.7771 49.2583 75.7251 49.1423 75.7268C48.4527 75.7327 47.763 75.7268 47.0912 75.7268C47.0444 75.535 47.1347 75.5119 47.2174 75.4932C47.7468 75.3704 47.9224 74.9911 47.9846 74.4958C48.1142 73.4182 48.0435 72.339 48.0426 71.2606C48.0426 70.7192 47.7451 70.3595 47.2148 70.2052C47.1143 70.1762 46.9463 70.1856 46.9651 70.0347C46.9821 69.8949 47.1356 69.9205 47.2472 69.9094C47.9292 69.8378 48.4689 69.9716 48.9522 70.5692C49.9002 71.7363 50.9556 72.8155 51.9641 73.934C52.0154 74.0028 52.0594 74.0768 52.0954 74.1548L52.207 74.0815Z" fill="white"/>
<path d="M16.1916 72.3253C16.1916 71.8991 16.1796 71.4728 16.1916 71.0466C16.2078 70.5786 16.0159 70.2879 15.5488 70.1941C15.4559 70.1745 15.3135 70.1762 15.3195 70.0526C15.3263 69.9 15.4814 69.9179 15.5863 69.917C16.3251 69.9108 17.0639 69.9108 17.8028 69.917C17.9085 69.917 18.0585 69.8974 18.0713 70.0509C18.0798 70.183 17.9358 70.1651 17.8445 70.1881C17.241 70.3399 17.085 70.5112 17.0773 71.1259C17.0654 72.0338 17.0602 72.9425 17.0773 73.8538C17.0943 74.7652 17.6084 75.2749 18.4941 75.3568C19.7729 75.4744 20.3372 74.9962 20.4549 73.7174C20.5393 72.8554 20.535 71.987 20.4421 71.1259C20.3764 70.5513 20.1863 70.3322 19.622 70.1967C19.518 70.1719 19.3509 70.1967 19.3662 70.0449C19.3782 69.9068 19.5367 69.9247 19.6476 69.9239C20.2298 69.9187 20.8121 69.9239 21.3935 69.9239C21.4898 69.9239 21.6168 69.9102 21.6492 70.0228C21.6952 70.1643 21.558 70.1728 21.4702 70.2026C21.1403 70.3152 21.0439 70.5777 20.9885 70.8906C20.8785 71.5393 20.9109 72.1923 20.9092 72.8445C20.9045 73.3129 20.8646 73.7802 20.7899 74.2426C20.753 74.4964 20.6636 74.7397 20.5273 74.957C19.8266 76.0652 17.5214 76.2468 16.6562 75.2587C16.4171 74.9741 16.2755 74.6204 16.2521 74.2494C16.1907 73.6024 16.1958 72.9638 16.1916 72.3253Z" fill="white"/>
<path d="M153.815 75.5681C153.768 75.719 153.69 75.7215 153.624 75.7224C153.042 75.7258 152.461 75.7258 151.879 75.7224C151.799 75.7224 151.693 75.736 151.663 75.6372C151.633 75.5383 151.737 75.4888 151.81 75.4667C152.214 75.3541 152.394 75.0404 152.525 74.6841C153.063 73.2195 153.612 71.7592 154.125 70.2861C154.222 70.009 154.41 69.8598 154.617 69.7379C154.878 69.5811 154.882 69.8675 154.93 69.9937C155.335 71.1019 155.726 72.2101 156.123 73.3184C156.294 73.7855 156.459 74.2561 156.635 74.7165C156.77 75.0702 156.958 75.3823 157.363 75.4837C157.439 75.5033 157.549 75.5187 157.515 75.6397C157.492 75.7207 157.404 75.7181 157.336 75.7181C156.697 75.7181 156.059 75.7181 155.421 75.7181C155.353 75.7181 155.266 75.7181 155.24 75.6397C155.201 75.5212 155.31 75.4973 155.382 75.4692C155.763 75.3234 155.777 75.0285 155.701 74.6969C155.408 73.4062 154.989 73.1283 153.673 73.3405C153.514 73.3661 153.408 73.4352 153.364 73.5869C153.255 73.9535 153.122 74.3158 153.053 74.69C152.958 75.2066 153.063 75.3354 153.565 75.482C153.649 75.511 153.725 75.5391 153.815 75.5681ZM154.376 70.974H154.276C154.159 71.2997 154.037 71.6236 153.925 71.951C153.605 72.8887 153.402 72.8998 154.639 72.8828C154.682 72.8828 154.724 72.8828 154.766 72.8759C154.951 72.8614 155.022 72.7608 154.96 72.5886C154.769 72.0507 154.571 71.5128 154.376 70.974Z" fill="white"/>
<path d="M98.0058 75.5725C97.9444 75.743 97.8353 75.7251 97.739 75.726C97.157 75.7294 96.5751 75.7294 95.9931 75.726C95.8993 75.726 95.7706 75.7567 95.7305 75.6407C95.6811 75.5001 95.8294 75.4856 95.9078 75.4532C96.2488 75.3134 96.2787 75.0389 96.1977 74.7456C96.092 74.3637 95.9479 73.992 95.8234 73.6152C95.803 73.5316 95.7531 73.4582 95.683 73.4083C95.6129 73.3583 95.5272 73.3353 95.4415 73.3433C95.0443 73.3433 94.647 73.3484 94.248 73.3433C94.0341 73.3433 93.8943 73.4285 93.8337 73.6331C93.734 73.9741 93.6155 74.3083 93.5413 74.6561C93.422 75.2128 93.503 75.3279 94.0392 75.4856C94.1244 75.5111 94.2446 75.4907 94.2864 75.6134C94.2745 75.7055 94.2012 75.7217 94.1313 75.7217C93.5499 75.7257 92.9679 75.7274 92.3854 75.7268C92.2924 75.7268 92.162 75.7473 92.145 75.6143C92.1322 75.5154 92.2413 75.4779 92.3154 75.4566C92.705 75.3483 92.8721 75.044 92.9974 74.7004C93.5379 73.2214 94.0869 71.7448 94.6104 70.2598C94.7075 69.9836 94.9138 69.8438 95.1219 69.7261C95.3299 69.6085 95.3605 69.8566 95.4074 69.9819C95.6871 70.7406 95.9564 71.5036 96.2284 72.2649C96.4381 72.8531 96.641 73.4439 96.8575 74.0295C97.0962 74.6587 97.2181 75.3696 98.0058 75.5725ZM94.8661 70.9691L94.7638 70.9742C94.6487 71.2871 94.5251 71.5965 94.4228 71.9119C94.0955 72.8966 93.8704 72.9017 95.1807 72.8787C95.2232 72.8777 95.2657 72.8737 95.3077 72.8667C95.4509 72.8446 95.5038 72.7516 95.4594 72.6229C95.2642 72.0748 95.0664 71.5241 94.8661 70.9733V70.9691Z" fill="white"/>
<path d="M32.842 75.6755H30.5726C30.5786 75.6167 30.5726 75.5757 30.5846 75.5664C31.1813 75.1674 31.1992 75.1401 30.9503 74.4308C30.4882 73.1223 30.7985 73.3686 29.4465 73.3456C28.7688 73.3345 28.7645 73.3456 28.5684 73.9875C28.5139 74.164 28.4602 74.3405 28.4175 74.5195C28.247 75.2185 28.3084 75.3174 28.9998 75.5075C29.055 75.5269 29.1088 75.55 29.1609 75.5766C29.1319 75.6303 29.1174 75.69 29.0953 75.6925C28.4457 75.7658 27.7935 75.7207 27.1431 75.7164C27.1163 75.7143 27.0903 75.7062 27.0671 75.6926C27.0439 75.679 27.0241 75.6603 27.0092 75.638C26.9692 75.5527 27.0501 75.5033 27.1124 75.4871C27.6529 75.3481 27.7944 74.8903 27.9538 74.447C28.4653 73.0347 28.9745 71.6205 29.4815 70.2042C29.5727 69.9484 29.7901 69.8257 29.9929 69.7217C30.2095 69.6083 30.224 69.87 30.2692 69.9928C30.6502 71.032 31.0193 72.0746 31.391 73.1171C31.4916 73.3976 31.5803 73.6824 31.6894 73.9594C31.9451 74.6022 32.0364 75.3609 32.8982 75.5791L32.842 75.6755ZM29.7142 70.9868H29.6034C29.4917 71.3039 29.3783 71.6202 29.2675 71.9382C28.9265 72.9228 29.039 73.0464 30.0978 72.887C30.3152 72.8529 30.3612 72.7531 30.2947 72.5699C30.1063 72.0353 29.9077 71.5119 29.7142 70.9834V70.9868Z" fill="white"/>
<path d="M124.962 71.7498V73.8861C124.89 73.8699 124.845 73.8708 124.839 73.8572C124.696 73.5282 124.433 73.2666 124.103 73.1264C123.773 72.9862 123.401 72.978 123.065 73.1036C123.004 73.1237 122.952 73.1642 122.917 73.2184C122.882 73.2725 122.867 73.337 122.873 73.4011C122.873 73.8273 122.862 74.2536 122.891 74.6798C122.92 75.1061 123.143 75.3618 123.573 75.4334C123.665 75.4387 123.754 75.463 123.835 75.5049C123.917 75.5467 123.988 75.6051 124.046 75.6764H121.126C121.136 75.534 121.211 75.5059 121.276 75.4999C121.787 75.4292 122.004 75.1163 122.017 74.6244C122.051 73.39 122.087 72.1522 121.995 70.9229C121.965 70.5197 121.787 70.2537 121.369 70.1821C121.272 70.165 121.144 70.1454 121.157 70.0201C121.169 69.8948 121.3 69.8965 121.396 69.8965C122.632 69.8965 123.867 69.8979 125.103 69.9008C125.153 69.8953 125.203 69.9039 125.248 69.9256C125.293 69.9473 125.332 69.9812 125.358 70.0235C125.408 70.1088 125.339 71.1241 125.273 71.1974C125.152 71.3321 125.093 71.2247 125.073 71.1266C125.006 70.8138 124.935 70.5009 124.597 70.3713C124.121 70.188 123.619 70.229 123.124 70.2588C122.958 70.269 122.879 70.3943 122.878 70.5546C122.874 71.1371 122.874 71.7194 122.878 72.3014C122.878 72.4616 122.948 72.5921 123.118 72.5989C123.514 72.6142 123.909 72.65 124.303 72.5452C124.663 72.4463 124.721 72.0899 124.962 71.7498Z" fill="white"/>
<path d="M13.0994 69.7967C13.6115 69.7856 14.1207 69.8754 14.5981 70.061C14.8402 70.1462 14.9681 70.2954 14.9527 70.5682C14.9374 70.841 14.9527 71.1351 14.9442 71.4207C14.9442 71.4881 14.9484 71.5784 14.8658 71.5989C14.7473 71.6287 14.7387 71.5136 14.7072 71.4446C14.6901 71.4054 14.6782 71.3644 14.6646 71.3244C14.2221 70.067 12.8675 69.6799 11.8147 70.5111C10.4192 71.6091 10.5402 74.2271 12.0346 75.1938C13.0687 75.8639 14.1497 75.5689 14.7626 74.4632C14.8589 74.2928 14.9118 73.9245 15.1036 74.0072C15.3261 74.1026 15.0993 74.4044 15.0746 74.6158C14.9808 75.4095 14.4779 75.7292 13.7319 75.8306C13.1849 75.9175 12.6261 75.8975 12.0866 75.7718C10.5675 75.3891 9.64766 74.1197 9.80196 72.6227C9.96308 71.032 11.1659 69.8828 12.7592 69.7976C12.8726 69.7916 12.986 69.7967 13.0994 69.7967Z" fill="white"/>
<path d="M35.2216 72.6586C35.2216 73.269 35.2122 73.8794 35.2216 74.4898C35.2327 75.0865 35.3461 75.2255 35.8925 75.4275C36.0008 75.4693 36.1866 75.4676 36.1628 75.6295C36.1423 75.7642 35.9744 75.7225 35.8695 75.7233C35.1165 75.7284 34.364 75.7284 33.6121 75.7233C33.509 75.7233 33.3513 75.7668 33.3359 75.6082C33.324 75.4906 33.4689 75.4821 33.5567 75.448C34.2387 75.1803 34.3197 75.0754 34.3239 74.3585C34.3308 73.1514 34.3197 71.9451 34.3325 70.738C34.3367 70.3884 34.2106 70.252 33.8585 70.2674C33.2021 70.2964 32.6036 70.3987 32.3496 71.125C32.3223 71.2017 32.2908 71.3023 32.1791 71.2665C32.0938 71.2409 32.1024 71.1531 32.1075 71.0849C32.139 70.6894 32.1697 70.2938 32.2106 69.8991C32.2268 69.7414 32.3197 69.6519 32.4715 69.761C32.6872 69.9162 32.9293 69.894 33.168 69.8948C34.2614 69.8948 35.3549 69.8948 36.4484 69.8948C36.6188 69.8948 36.8038 69.9298 36.9479 69.8309C37.2352 69.6348 37.3187 69.7704 37.3418 70.0406C37.3699 70.3816 37.398 70.7226 37.421 71.0585C37.4262 71.1437 37.4304 71.2469 37.3273 71.2716C37.2241 71.2963 37.1806 71.1975 37.1568 71.1216C36.901 70.3901 36.3043 70.2895 35.6479 70.2691C35.3376 70.2597 35.2097 70.3884 35.2139 70.6953C35.2216 71.3483 35.2139 72.0013 35.2139 72.6561L35.2216 72.6586Z" fill="white"/>
<path d="M100.362 72.6475C100.362 73.2443 100.356 73.841 100.362 74.4377C100.372 75.0763 100.483 75.2195 101.077 75.4369C101.178 75.4744 101.351 75.4795 101.342 75.6074C101.329 75.7881 101.145 75.7267 101.032 75.7276C100.279 75.7338 99.5262 75.7338 98.7726 75.7276C98.6694 75.7276 98.5092 75.777 98.4844 75.6287C98.4597 75.4803 98.6319 75.4838 98.7274 75.4488C99.3599 75.2161 99.4588 75.0993 99.4648 74.4258C99.4759 73.2042 99.4648 71.9817 99.4784 70.7601C99.4784 70.3893 99.3446 70.2486 98.9755 70.2699C98.3353 70.3057 97.7496 70.4089 97.5058 71.1224C97.4802 71.1957 97.4393 71.2929 97.3259 71.2546C97.2475 71.2264 97.2407 71.1403 97.2509 71.073C97.2841 70.6766 97.3148 70.2802 97.3643 69.8863C97.3847 69.7243 97.4939 69.6689 97.6388 69.778C97.8255 69.917 98.0429 69.8974 98.2543 69.8982C99.3625 69.8982 100.471 69.8982 101.579 69.8982C101.734 69.8982 101.92 69.9221 102.039 69.8505C102.437 69.6118 102.488 69.8155 102.497 70.1514C102.505 70.4345 102.549 70.7166 102.568 71.0039C102.574 71.0968 102.604 71.2256 102.483 71.2665C102.347 71.3134 102.317 71.1727 102.291 71.0909C102.052 70.3611 101.285 70.264 100.665 70.2827C100.389 70.2904 100.351 70.4745 100.354 70.6919C100.354 70.7209 100.354 70.749 100.354 70.7772V72.6526L100.362 72.6475Z" fill="white"/>
<path d="M158.005 75.6382C158.015 75.5925 158.039 75.5512 158.074 75.5204C158.109 75.4897 158.153 75.4712 158.2 75.4677C158.825 75.3441 158.998 74.9332 158.988 74.3458C158.97 73.1523 158.978 71.9588 158.988 70.7654C158.993 70.4005 158.86 70.2487 158.487 70.2718C157.867 70.3093 157.288 70.3962 157.038 71.0833C157.006 71.1686 156.977 71.2982 156.841 71.2538C156.742 71.2223 156.756 71.1149 156.761 71.0339C156.791 70.6665 156.82 70.2982 156.866 69.9325C156.891 69.7338 156.993 69.652 157.184 69.7952C157.343 69.9146 157.534 69.8967 157.717 69.8967C158.854 69.8967 159.989 69.8967 161.127 69.8967C161.281 69.8967 161.468 69.9112 161.584 69.8378C161.937 69.6213 161.992 69.7892 162.005 70.0996C162.018 70.4244 162.058 70.7492 162.079 71.0748C162.084 71.1558 162.079 71.2624 161.969 71.2717C161.89 71.2786 161.854 71.1959 161.83 71.1302C161.552 70.3707 160.923 70.2726 160.235 70.2777C159.989 70.2777 159.869 70.3817 159.87 70.6332C159.87 71.9537 159.87 73.2759 159.881 74.5939C159.881 75.0483 160.124 75.3304 160.575 75.4396C160.682 75.466 160.882 75.4651 160.848 75.6348C160.817 75.7908 160.633 75.7294 160.516 75.7303C159.806 75.7371 159.097 75.7354 158.385 75.7303C158.263 75.7277 158.129 75.7575 158.005 75.6382Z" fill="white"/>
<path d="M105.451 75.691H102.704C102.704 75.4813 102.849 75.4923 102.941 75.477C103.452 75.3918 103.623 75.0388 103.623 74.5913C103.636 73.4137 103.636 72.2361 103.623 71.0585C103.618 70.582 103.409 70.241 102.885 70.1805C102.799 70.1711 102.693 70.1549 102.689 70.0526C102.689 69.9154 102.82 69.9145 102.908 69.9137C103.688 69.9085 104.469 69.9137 105.249 69.9137C105.335 69.9137 105.438 69.9333 105.447 70.0347C105.457 70.1362 105.354 70.1532 105.277 70.1813C104.59 70.4175 104.533 70.4763 104.525 71.2043C104.513 72.2961 104.513 73.3884 104.525 74.4813C104.534 75.2008 104.604 75.2741 105.292 75.5C105.358 75.5222 105.431 75.5307 105.451 75.691Z" fill="white"/>
<path d="M164.945 75.6773H162.217C162.227 75.5323 162.302 75.5238 162.368 75.5008C163.045 75.2604 163.14 75.141 163.144 74.4309C163.151 73.3676 163.151 72.3042 163.144 71.2409C163.144 70.5231 163.066 70.4285 162.377 70.1787C162.292 70.1489 162.189 70.1301 162.206 70.0269C162.223 69.9238 162.329 69.9136 162.414 69.9136C163.194 69.909 163.974 69.909 164.754 69.9136C164.839 69.9136 164.944 69.9238 164.963 70.0218C164.991 70.1651 164.86 70.1599 164.77 70.1923C164.135 70.3944 164.051 70.4873 164.044 71.1514C164.032 72.2573 164.032 73.3633 164.044 74.4693C164.049 75.2016 164.117 75.2732 164.834 75.5144C164.882 75.5357 164.929 75.562 164.972 75.5929L164.945 75.6773Z" fill="white"/>
<path d="M40.3743 75.6237C40.2234 75.6825 40.1748 75.7174 40.1254 75.7183C39.3297 75.7234 38.5341 75.7257 37.7384 75.7251C37.66 75.7251 37.5475 75.7421 37.5321 75.6305C37.5168 75.5188 37.6302 75.5052 37.7077 75.4958C38.2721 75.4276 38.463 75.0602 38.475 74.5487C38.504 73.3552 38.5338 72.1617 38.4571 70.9733C38.4289 70.53 38.2226 70.2581 37.7751 70.1882C37.6711 70.172 37.5057 70.1814 37.5321 70.0236C37.5543 69.8907 37.712 69.9077 37.8211 69.9069C38.5599 69.9034 39.2988 69.9034 40.0376 69.9069C40.1424 69.9069 40.2933 69.8898 40.3061 70.0424C40.3146 70.1728 40.174 70.172 40.0811 70.1831C39.5764 70.2461 39.3786 70.5769 39.3607 71.0356C39.3141 72.229 39.3141 73.4208 39.3607 74.6109C39.3795 75.0951 39.5883 75.4208 40.1015 75.4941C40.1663 75.5052 40.22 75.5503 40.3743 75.6237Z" fill="white"/>
<path d="M161.486 21.5109C161.465 24.0411 161.09 26.4979 159.844 28.7451C158.455 31.2472 156.447 32.9683 153.551 33.4338C149.496 34.0868 146.39 32.5575 144.129 29.1952C142.718 27.0913 142.059 24.7282 141.828 22.2287C141.631 20.0634 141.704 17.9125 142.262 15.8C142.897 13.3994 144.081 11.3356 146.087 9.80789C149.102 7.51043 154.526 7.32373 157.842 11.0866C159.827 13.3432 160.892 15.9799 161.307 18.9159C161.439 19.7743 161.499 20.6424 161.486 21.5109Z" fill="white"/>
</g>
<defs>
<clipPath id="clip0_3904_2261">
<rect width="178" height="76.0421" fill="white"/>
</clipPath>
</defs>
</svg>
