<svg width="139" height="44" viewBox="0 0 139 44" fill="none" xmlns="http://www.w3.org/2000/svg">
<path d="M77.8914 0V0.38559H79.4337L77.8914 0Z" fill="white"/>
<path d="M79.4315 0V0.38559H81.7451L79.4315 0Z" fill="white"/>
<path d="M81.7417 0V0.38559H83.6696L81.7417 0ZM120.943 0.128399L121.2 0.257191L120.943 0.128399Z" fill="white"/>
<path d="M121.462 0V0.38559H126.475L121.462 0Z" fill="white"/>
<path d="M126.474 0V0.38559H127.631L126.474 0Z" fill="white"/>
<path d="M0.387329 0.385742V19.2796H0.772919C0.772919 13.9631 2.43443 5.26423 0.387329 0.385742Z" fill="white"/>
<path d="M0.77002 0.388433V0.774023L10.0242 1.15961C7.86487 -0.476059 3.41131 0.388433 0.77002 0.388433Z" fill="white"/>
<path d="M9.63733 0.385742L10.0229 0.771332L9.63733 0.385742ZM21.9762 0.385742L22.3618 0.771332L21.9762 0.385742Z" fill="white"/>
<path d="M21.9813 0.773145V1.15873L30.8499 0.773145V19.2815C32.3953 15.5987 31.2355 9.39956 31.2355 5.40022C31.2355 4.18523 31.7044 1.64496 30.6174 0.783941C29.0419 -0.463827 23.7809 0.241031 21.9813 0.773145Z" fill="white"/>
<path d="M30.844 0.385742L31.2296 0.771332L30.844 0.385742Z" fill="white"/>
<path d="M45.8854 0.385742V0.771332H53.9828L45.8854 0.385742Z" fill="white"/>
<path d="M53.9825 0.385742L54.3681 0.771332L53.9825 0.385742ZM75.19 0.385742L75.5756 0.771332L75.19 0.385742Z" fill="white"/>
<path d="M75.8317 0.516724L76.0885 0.64551L75.8317 0.516724Z" fill="white"/>
<path d="M76.6063 0.516724L76.8631 0.64551L76.6063 0.516724Z" fill="white"/>
<path d="M88.6817 17.3552V19.2832H94.08V8.48664H79.4276V11.9569H87.9106C85.1621 15.4346 72.4453 16.3858 73.151 9.64341C73.9908 1.62006 84.8008 6.79042 88.6817 7.27858C90.4404 7.49991 92.3086 7.32987 94.08 7.32987C91.379 -1.76349 73.985 -1.84756 68.3276 4.28101C63.7634 9.22542 66.936 16.7664 72.8726 18.5991C75.0269 19.2643 77.1981 19.2832 79.4276 19.2832C82.8023 19.2828 85.5461 18.5648 88.6817 17.3552Z" fill="white"/>
<path d="M84.7035 0.516724L84.9603 0.64551L84.7035 0.516724Z" fill="white"/>
<path d="M85.2139 0.385742L85.5995 0.771332L85.2139 0.385742Z" fill="white"/>
<path d="M85.6012 0.385742L85.9868 0.771332L85.6012 0.385742Z" fill="white"/>
<path d="M98.3279 0.385742L98.7135 0.771332L98.3279 0.385742Z" fill="white"/>
<path d="M98.3263 19.2776H98.7119V0.769314H105.653C104.294 0.199026 99.7646 -0.313424 98.7227 1.00182C97.8247 2.13546 98.3263 4.80605 98.3263 6.16757V19.2776Z" fill="white"/>
<path d="M117.99 0.385742L118.375 0.771332L117.99 0.385742Z" fill="white"/>
<path d="M118.632 0.516724L118.889 0.64551L118.632 0.516724Z" fill="white"/>
<path d="M119.402 0.516724L119.659 0.64551L119.402 0.516724Z" fill="white"/>
<path d="M138.426 11.572C136.474 11.572 134.158 11.2296 132.256 11.6942C127.833 12.7746 125.328 15.3739 120.303 13.8003C111.877 11.1617 119.351 5.03701 124.93 5.43725C127.785 5.64238 129.155 7.27458 131.595 8.25591C133.495 9.02015 136.398 8.48727 138.426 8.48727C138.016 4.51029 134.784 2.05987 131.1 1.12096C123.828 -0.731802 108.983 -0.42757 109.128 10.0296C109.269 20.1784 123.559 20.3634 130.714 18.8168C134.554 17.9863 137.996 15.746 138.426 11.572Z" fill="white"/>
<path d="M128.661 0.516724L128.918 0.64551L128.661 0.516724Z" fill="white"/>
<path d="M129.172 0.385742L129.557 0.771332L129.172 0.385742Z" fill="white"/>
<path d="M129.559 0.385742L129.945 0.771332L129.559 0.385742Z" fill="white"/>
<path d="M0.77002 0.767463V19.2758H7.32505V9.63603H7.71064C8.93681 13.5112 13.1625 22.5733 18.6575 18.8794C21.5151 16.9588 22.2088 12.0703 24.6766 9.63603V19.2758H30.846V0.767463C28.4997 0.767463 24.9774 0.105796 22.7891 0.999979C20.0063 2.13747 17.3126 8.8903 16.1936 11.564H15.4224C14.657 8.96163 11.7856 2.09737 9.18166 0.999979C6.93637 0.0541268 3.1896 0.767463 0.77002 0.767463Z" fill="white"/>
<path d="M45.4982 0.771484L45.8838 1.15707L45.4982 0.771484Z" fill="white"/>
<path d="M33.546 19.2789L40.371 19.0464L43.9627 16.3168L53.9823 16.1961L58.7555 19.0464L65.9356 19.2789C63.708 14.5701 60.3183 10.1339 57.4514 5.78328C56.5272 4.38089 55.4529 1.71647 53.8554 1.00312C52.2679 0.294796 47.4674 0.306751 45.9558 1.167C44.1825 2.17609 43.0038 4.90221 41.9006 6.55446C39.1213 10.7157 35.6911 14.7448 33.546 19.2789Z" fill="white"/>
<path d="M73.649 0.771484L74.0346 1.15707L73.649 0.771484Z" fill="white"/>
<path d="M74.0319 0.771484L74.4175 1.15707L74.0319 0.771484Z" fill="white"/>
<path d="M74.4192 0.771484L74.8048 1.15707L74.4192 0.771484ZM86.3725 0.771484L86.7581 1.15707L86.3725 0.771484Z" fill="white"/>
<path d="M86.7585 0.771484L87.1441 1.15707L86.7585 0.771484Z" fill="white"/>
<path d="M87.1459 0.771484L87.5315 1.15707L87.1459 0.771484Z" fill="white"/>
<path d="M98.7107 0.771484V19.2798H105.651V0.771484H98.7107Z" fill="white"/>
<path d="M116.445 0.771484L116.831 1.15707L116.445 0.771484Z" fill="white"/>
<path d="M116.837 0.771484L117.223 1.15707L116.837 0.771484Z" fill="white"/>
<path d="M117.22 0.771484L117.605 1.15707L117.22 0.771484ZM130.33 0.771484L130.715 1.15707L130.33 0.771484Z" fill="white"/>
<path d="M130.717 0.771484L131.102 1.15707L130.717 0.771484Z" fill="white"/>
<path d="M131.1 0.771484L131.485 1.15707L131.1 0.771484ZM10.0247 1.15707L10.4102 1.54266L10.0247 1.15707Z" fill="white"/>
<path d="M21.594 1.15723L21.9796 1.54282L21.594 1.15723Z" fill="white"/>
<path d="M45.1154 1.15723L45.5009 1.54282L45.1154 1.15723Z" fill="white"/>
<path d="M54.3699 1.15723L54.7555 1.54282L54.3699 1.15723Z" fill="white"/>
<path d="M72.4917 1.15723L72.8773 1.54282L72.4917 1.15723Z" fill="white"/>
<path d="M72.879 1.15723L73.2646 1.54282L72.879 1.15723ZM87.917 1.15723L88.3026 1.54282L87.917 1.15723Z" fill="white"/>
<path d="M88.3032 1.15723L88.6888 1.54282L88.3032 1.15723ZM115.295 1.15723L115.68 1.54282L115.295 1.15723Z" fill="white"/>
<path d="M115.68 1.15723L116.065 1.54282L115.68 1.15723Z" fill="white"/>
<path d="M131.874 1.15723L132.259 1.54282L131.874 1.15723Z" fill="white"/>
<path d="M132.257 1.15723L132.642 1.54282L132.257 1.15723Z" fill="white"/>
<path d="M10.0247 1.54297L10.4102 1.92856L10.0247 1.54297Z" fill="white"/>
<path d="M54.7572 1.54297L55.1428 1.92856L54.7572 1.54297Z" fill="white"/>
<path d="M71.7217 1.54297L72.1073 1.92856L71.7217 1.54297Z" fill="white"/>
<path d="M72.1044 1.54297L72.49 1.92856L72.1044 1.54297Z" fill="white"/>
<path d="M89.0734 1.54297L89.459 1.92856L89.0734 1.54297ZM114.522 1.54297L114.908 1.92856L114.522 1.54297Z" fill="white"/>
<path d="M114.905 1.54297L115.29 1.92856L114.905 1.54297Z" fill="white"/>
<path d="M133.03 1.54297L133.415 1.92856L133.03 1.54297ZM10.412 1.92856L10.7976 2.31415L10.412 1.92856ZM21.2085 1.92856L21.5941 2.31415L21.2085 1.92856Z" fill="white"/>
<path d="M44.728 1.92871L45.1136 2.3143L44.728 1.92871Z" fill="white"/>
<path d="M70.947 1.92871L71.3326 2.3143L70.947 1.92871ZM89.8409 1.92871L90.2265 2.3143L89.8409 1.92871ZM113.747 1.92871L114.133 2.3143L113.747 1.92871ZM133.798 1.92871L134.184 2.3143L133.798 1.92871Z" fill="white"/>
<path d="M20.8239 2.31445L21.2094 2.70004L20.8239 2.31445ZM44.3448 2.31445L44.7304 2.70004L44.3448 2.31445Z" fill="white"/>
<path d="M55.14 2.31445L55.5256 2.70004L55.14 2.31445ZM70.178 2.31445L70.5636 2.70004L70.178 2.31445Z" fill="white"/>
<path d="M90.6135 2.31445L90.9991 2.70004L90.6135 2.31445ZM112.978 2.31445L113.363 2.70004L112.978 2.31445ZM134.571 2.31445L134.956 2.70004L134.571 2.31445Z" fill="white"/>
<path d="M10.7992 2.7002L11.1848 3.08579L10.7992 2.7002Z" fill="white"/>
<path d="M20.8239 2.7002L21.2094 3.08579L20.8239 2.7002Z" fill="white"/>
<path d="M55.5273 2.7002L55.9129 3.08579L55.5273 2.7002Z" fill="white"/>
<path d="M69.7942 2.7002L70.1798 3.08579L69.7942 2.7002Z" fill="white"/>
<path d="M91.0007 2.7002L91.3863 3.08579L91.0007 2.7002Z" fill="white"/>
<path d="M112.595 2.7002L112.98 3.08579L112.595 2.7002Z" fill="white"/>
<path d="M134.954 2.7002L135.34 3.08579L134.954 2.7002Z" fill="white"/>
<path d="M20.4365 3.08606L20.8221 3.47165L20.4365 3.08606Z" fill="white"/>
<path d="M43.958 3.08606L44.3436 3.47165L43.958 3.08606ZM55.5257 3.08606L55.9113 3.47165L55.5257 3.08606Z" fill="white"/>
<path d="M69.0195 3.08606L69.4051 3.47165L69.0195 3.08606Z" fill="white"/>
<path d="M91.3835 3.08606L91.7691 3.47165L91.3835 3.08606Z" fill="white"/>
<path d="M111.82 3.08606L112.206 3.47165L111.82 3.08606Z" fill="white"/>
<path d="M135.342 3.08606L135.727 3.47165L135.342 3.08606Z" fill="white"/>
<path d="M135.729 3.08606L136.114 3.47165L135.729 3.08606Z" fill="white"/>
<path d="M11.182 3.47168L11.5676 3.85727L11.182 3.47168Z" fill="white"/>
<path d="M20.4365 3.47168L20.8221 3.85727L20.4365 3.47168Z" fill="white"/>
<path d="M43.5707 3.47168L43.9563 3.85727L43.5707 3.47168Z" fill="white"/>
<path d="M55.91 3.47168L56.2956 3.85727L55.91 3.47168ZM68.6345 3.47168L69.0201 3.85727L68.6345 3.47168Z" fill="white"/>
<path d="M91.7709 3.47168L92.1565 3.85727L91.7709 3.47168Z" fill="white"/>
<path d="M111.437 3.47168L111.823 3.85727L111.437 3.47168ZM136.115 3.47168L136.5 3.85727L136.115 3.47168ZM11.5693 3.85727L11.9549 4.24286L11.5693 3.85727Z" fill="white"/>
<path d="M20.0492 3.85754L20.4348 4.24313L20.0492 3.85754Z" fill="white"/>
<path d="M56.2974 3.85754L56.683 4.24313L56.2974 3.85754Z" fill="white"/>
<path d="M68.2495 3.85754L68.6351 4.24313L68.2495 3.85754Z" fill="white"/>
<path d="M92.1582 3.85754L92.5438 4.24313L92.1582 3.85754Z" fill="white"/>
<path d="M111.05 3.85754L111.436 4.24313L111.05 3.85754Z" fill="white"/>
<path d="M136.499 3.85754L136.884 4.24313L136.499 3.85754Z" fill="white"/>
<path d="M11.5693 4.24329L11.9549 4.62888L11.5693 4.24329ZM43.1877 4.24329L43.5733 4.62888L43.1877 4.24329ZM56.2978 4.24329L56.6834 4.62888L56.2978 4.24329Z" fill="white"/>
<path d="M67.8622 4.24329L68.2478 4.62888L67.8622 4.24329Z" fill="white"/>
<path d="M92.5409 4.24329L92.9265 4.62888L92.5409 4.24329Z" fill="white"/>
<path d="M110.663 4.24329L111.049 4.62888L110.663 4.24329ZM136.883 4.24329L137.269 4.62888L136.883 4.24329ZM11.952 4.62888L12.3376 5.01447L11.952 4.62888Z" fill="white"/>
<path d="M19.6665 4.62903L20.0521 5.01462L19.6665 4.62903ZM42.8019 4.62903L43.1875 5.01462L42.8019 4.62903ZM56.6831 4.62903L57.0687 5.01462L56.6831 4.62903Z" fill="white"/>
<path d="M67.4794 4.62903L67.865 5.01462L67.4794 4.62903Z" fill="white"/>
<path d="M92.9282 4.62903L93.3138 5.01462L92.9282 4.62903Z" fill="white"/>
<path d="M110.28 4.62903L110.666 5.01462L110.28 4.62903Z" fill="white"/>
<path d="M136.883 4.62903L137.269 5.01462L136.883 4.62903ZM11.952 5.01462L12.3376 5.40021L11.952 5.01462Z" fill="white"/>
<path d="M19.2792 5.01477L19.6648 5.40036L19.2792 5.01477ZM42.4146 5.01477L42.8002 5.40036L42.4146 5.01477ZM57.067 5.01477L57.4526 5.40036L57.067 5.01477Z" fill="white"/>
<path d="M79.0442 5.01477V5.40036H82.1289L79.0442 5.01477Z" fill="white"/>
<path d="M93.311 5.01477L93.6966 5.40036L93.311 5.01477Z" fill="white"/>
<path d="M137.269 5.01477L137.655 5.40036L137.269 5.01477Z" fill="white"/>
<path d="M12.3394 5.40051L12.7249 5.7861L12.3394 5.40051Z" fill="white"/>
<path d="M19.2792 5.40051L19.6648 5.7861L19.2792 5.40051ZM42.4146 5.40051L42.8002 5.7861L42.4146 5.40051ZM57.067 5.40051L57.4526 5.7861L57.067 5.40051ZM67.0923 5.40051L67.4779 5.7861L67.0923 5.40051ZM76.7321 5.40051L77.1177 5.7861L76.7321 5.40051Z" fill="white"/>
<path d="M77.1167 5.40051L77.5023 5.7861L77.1167 5.40051Z" fill="white"/>
<path d="M77.7637 5.52891L78.0205 5.6577L77.7637 5.52891ZM83.2903 5.40051L83.6759 5.7861L83.2903 5.40051Z" fill="white"/>
<path d="M83.9288 5.52429L84.1856 5.65308L83.9288 5.52429Z" fill="white"/>
<path d="M93.311 5.40051L93.6966 5.7861L93.311 5.40051Z" fill="white"/>
<path d="M109.893 5.40051L110.278 5.7861L109.893 5.40051Z" fill="white"/>
<path d="M121.717 5.52429L121.974 5.65308L121.717 5.52429Z" fill="white"/>
<path d="M122.232 5.40051V5.7861H125.702L122.232 5.40051Z" fill="white"/>
<path d="M125.959 5.52429L126.216 5.65308L125.959 5.52429Z" fill="white"/>
<path d="M137.658 5.40051L138.044 5.7861L137.658 5.40051ZM18.8964 5.7861L19.282 6.17169L18.8964 5.7861Z" fill="white"/>
<path d="M42.0305 5.78625L42.4161 6.17184L42.0305 5.78625ZM49.6139 5.91465L49.8707 6.04345L49.6139 5.91465Z" fill="white"/>
<path d="M57.4547 5.78625L57.8403 6.17184L57.4547 5.78625ZM66.7089 5.78625L67.0945 6.17184L66.7089 5.78625Z" fill="white"/>
<path d="M75.5765 5.78625L75.9621 6.17184L75.5765 5.78625Z" fill="white"/>
<path d="M75.9594 5.78625L76.3449 6.17184L75.9594 5.78625Z" fill="white"/>
<path d="M84.8311 5.78625L85.2166 6.17184L84.8311 5.78625Z" fill="white"/>
<path d="M85.2139 5.78625L85.5995 6.17184L85.2139 5.78625Z" fill="white"/>
<path d="M93.6984 5.78625L94.084 6.17184L93.6984 5.78625Z" fill="white"/>
<path d="M119.917 5.78625L120.303 6.17184L119.917 5.78625Z" fill="white"/>
<path d="M120.564 5.91465L120.821 6.04345L120.564 5.91465ZM126.862 5.78625L127.248 6.17184L126.862 5.78625Z" fill="white"/>
<path d="M127.244 5.78625L127.63 6.17184L127.244 5.78625Z" fill="white"/>
<path d="M127.632 5.78625L128.017 6.17184L127.632 5.78625ZM137.657 5.78625L138.043 6.17184L137.657 5.78625Z" fill="white"/>
<path d="M12.7267 6.172L13.1123 6.55759L12.7267 6.172Z" fill="white"/>
<path d="M41.6432 6.172L42.0288 6.55759L41.6432 6.172Z" fill="white"/>
<path d="M66.7047 6.172L67.0903 6.55759L66.7047 6.172ZM74.8021 6.172L75.1877 6.55759L74.8021 6.172Z" fill="white"/>
<path d="M75.1892 6.172L75.5748 6.55759L75.1892 6.172Z" fill="white"/>
<path d="M85.9839 6.172L86.3695 6.55759L85.9839 6.172Z" fill="white"/>
<path d="M93.6984 6.172L94.084 6.55759L93.6984 6.172Z" fill="white"/>
<path d="M109.505 6.172L109.891 6.55759L109.505 6.172Z" fill="white"/>
<path d="M118.76 6.172L119.145 6.55759L118.76 6.172Z" fill="white"/>
<path d="M119.147 6.172L119.533 6.55759L119.147 6.172ZM128.401 6.172L128.787 6.55759L128.401 6.172Z" fill="white"/>
<path d="M128.789 6.172L129.175 6.55759L128.789 6.172Z" fill="white"/>
<path d="M138.044 6.172L138.429 6.55759L138.044 6.172Z" fill="white"/>
<path d="M18.5092 6.55774L18.8947 6.94333L18.5092 6.55774Z" fill="white"/>
<path d="M41.6432 6.55774L42.0288 6.94333L41.6432 6.55774Z" fill="white"/>
<path d="M48.9703 6.55774L49.3559 6.94333L48.9703 6.55774ZM50.1271 6.55774L50.5127 6.94333L50.1271 6.55774Z" fill="white"/>
<path d="M57.8375 6.55774L58.2231 6.94333L57.8375 6.55774Z" fill="white"/>
<path d="M66.322 6.55774L66.7076 6.94333L66.322 6.55774Z" fill="white"/>
<path d="M74.4192 6.55774L74.8048 6.94333L74.4192 6.55774Z" fill="white"/>
<path d="M86.7585 6.55774L87.1441 6.94333L86.7585 6.55774ZM117.991 6.55774L118.377 6.94333L117.991 6.55774Z" fill="white"/>
<path d="M129.172 6.55774L129.557 6.94333L129.172 6.55774Z" fill="white"/>
<path d="M129.559 6.55774L129.945 6.94333L129.559 6.55774ZM138.042 6.55774L138.428 6.94333L138.042 6.55774Z" fill="white"/>
<path d="M13.114 6.9436L13.4996 7.32919L13.114 6.9436ZM41.2621 6.9436L41.6477 7.32919L41.2621 6.9436ZM48.5883 6.9436L48.9739 7.32919L48.5883 6.9436Z" fill="white"/>
<path d="M50.5104 6.9436L50.896 7.32919L50.5104 6.9436Z" fill="white"/>
<path d="M58.2202 6.9436L58.6058 7.32919L58.2202 6.9436Z" fill="white"/>
<path d="M66.322 6.9436L66.7076 7.32919L66.322 6.9436Z" fill="white"/>
<path d="M74.0319 6.9436L74.4175 7.32919L74.0319 6.9436Z" fill="white"/>
<path d="M87.1459 6.9436L87.5315 7.32919L87.1459 6.9436Z" fill="white"/>
<path d="M94.0851 6.9436L94.4707 7.32919L94.0851 6.9436ZM109.123 6.9436L109.509 7.32919L109.123 6.9436ZM117.606 6.9436L117.992 7.32919L117.606 6.9436ZM129.945 6.9436L130.331 7.32919L129.945 6.9436ZM13.4968 7.32919L13.8824 7.71478L13.4968 7.32919Z" fill="white"/>
<path d="M18.1218 7.32935L18.5074 7.71494L18.1218 7.32935Z" fill="white"/>
<path d="M40.8732 7.32935L41.2588 7.71494L40.8732 7.32935Z" fill="white"/>
<path d="M73.649 7.32935L74.0346 7.71494L73.649 7.32935Z" fill="white"/>
<path d="M109.118 7.32935L109.504 7.71494L109.118 7.32935Z" fill="white"/>
<path d="M117.22 7.32935L117.605 7.71494L117.22 7.32935ZM130.33 7.32935L130.715 7.71494L130.33 7.32935ZM138.427 7.32935L138.813 7.71494L138.427 7.32935Z" fill="white"/>
<path d="M13.4968 7.71509L13.8824 8.10068L13.4968 7.71509Z" fill="white"/>
<path d="M17.739 7.71509L18.1246 8.10068L17.739 7.71509Z" fill="white"/>
<path d="M40.8732 7.71509L41.2588 8.10068L40.8732 7.71509Z" fill="white"/>
<path d="M48.1957 7.71509L48.5813 8.10068L48.1957 7.71509ZM50.8948 7.71509L51.2804 8.10068L50.8948 7.71509Z" fill="white"/>
<path d="M58.6075 7.71509L58.9931 8.10068L58.6075 7.71509Z" fill="white"/>
<path d="M65.9347 7.71509L66.3203 8.10068L65.9347 7.71509ZM116.833 7.71509L117.218 8.10068L116.833 7.71509Z" fill="white"/>
<path d="M130.717 7.71509L131.102 8.10068L130.717 7.71509ZM138.428 7.71509L138.814 8.10068L138.428 7.71509Z" fill="white"/>
<path d="M13.8795 8.10083L14.2651 8.48642L13.8795 8.10083Z" fill="white"/>
<path d="M17.739 8.10083L18.1246 8.48642L17.739 8.10083Z" fill="white"/>
<path d="M40.4858 8.10083L40.8714 8.48642L40.4858 8.10083ZM47.812 8.10083L48.1976 8.48642L47.812 8.10083Z" fill="white"/>
<path d="M51.285 8.10083L51.6706 8.48642L51.285 8.10083Z" fill="white"/>
<path d="M58.9949 8.10083L59.3805 8.48642L58.9949 8.10083Z" fill="white"/>
<path d="M66.0668 8.35802L66.1956 8.61482L66.0668 8.35802ZM73.2646 8.10083L73.6502 8.48642L73.2646 8.10083Z" fill="white"/>
<path d="M79.0442 8.10083V12.3423H79.4298L79.0442 8.10083Z" fill="white"/>
<path d="M79.4315 8.10083V8.48642H94.0839V19.2829L94.4695 15.0414L94.0731 8.71893L90.228 8.10083H79.4315Z" fill="white"/>
<path d="M94.0811 8.10083L94.4666 8.48642L94.0811 8.10083Z" fill="white"/>
<path d="M116.446 8.10083L116.832 8.48642L116.446 8.10083ZM138.425 8.10083L138.811 8.48642L138.425 8.10083ZM13.8795 8.48642L14.2651 8.87201L13.8795 8.48642Z" fill="white"/>
<path d="M17.3517 8.47925L17.7373 8.86484L17.3517 8.47925ZM40.1015 8.47925L40.4871 8.86484L40.1015 8.47925ZM51.2836 8.47925L51.6692 8.86484L51.2836 8.47925Z" fill="white"/>
<path d="M58.9949 8.47925L59.3805 8.86484L58.9949 8.47925Z" fill="white"/>
<path d="M73.2666 8.47925L73.6522 8.86484L73.2666 8.47925ZM108.869 8.73644L108.998 8.99324L108.869 8.73644ZM116.453 8.47925L116.838 8.86484L116.453 8.47925ZM14.2714 8.86484L14.657 9.25043L14.2714 8.86484Z" fill="white"/>
<path d="M40.103 8.86511L40.4886 9.2507L40.103 8.86511Z" fill="white"/>
<path d="M47.4302 8.86511L47.8158 9.2507L47.4302 8.86511Z" fill="white"/>
<path d="M51.6724 8.86511L52.058 9.2507L51.6724 8.86511ZM59.3842 8.86511L59.7697 9.2507L59.3842 8.86511Z" fill="white"/>
<path d="M65.9347 8.86511V11.1787H66.3203L65.9347 8.86511ZM116.061 8.86511V10.7931H116.447L116.061 8.86511Z" fill="white"/>
<path d="M16.9644 9.25073L17.3499 9.63632L16.9644 9.25073ZM39.7142 9.25073L40.0997 9.63632L39.7142 9.25073ZM47.0404 9.25073L47.426 9.63632L47.0404 9.25073Z" fill="white"/>
<path d="M52.0552 9.25073L52.4408 9.63632L52.0552 9.25073Z" fill="white"/>
<path d="M59.765 9.25073L60.1506 9.63632L59.765 9.25073Z" fill="white"/>
<path d="M72.879 9.25073V10.7931H73.2646L72.879 9.25073Z" fill="white"/>
<path d="M108.735 9.25073V10.4075H109.121L108.735 9.25073Z" fill="white"/>
<path d="M7.32715 9.6366L7.71274 10.0222L7.32715 9.6366Z" fill="white"/>
<path d="M14.6497 9.6366L15.0352 10.0222L14.6497 9.6366Z" fill="white"/>
<path d="M23.9087 9.6366L24.2943 19.2763H24.6799C24.6799 16.9555 25.709 11.2098 23.9087 9.6366Z" fill="white"/>
<path d="M39.333 9.6366L39.7186 10.0222L39.333 9.6366Z" fill="white"/>
<path d="M46.66 9.6366L47.0456 10.0222L46.66 9.6366Z" fill="white"/>
<path d="M52.0552 9.6366L52.4408 10.0222L52.0552 9.6366Z" fill="white"/>
<path d="M59.765 9.6366L60.1506 10.0222L59.765 9.6366Z" fill="white"/>
<path d="M7.32715 10.0223V19.2765H7.71274L7.32715 10.0223Z" fill="white"/>
<path d="M16.5817 10.0223L16.9673 10.4079L16.5817 10.0223Z" fill="white"/>
<path d="M23.9087 10.0223L24.2943 10.4079L23.9087 10.0223ZM46.6585 10.0223L47.0441 10.4079L46.6585 10.0223Z" fill="white"/>
<path d="M52.4383 10.0223L52.8238 10.4079L52.4383 10.0223ZM60.1501 10.0223L60.5356 10.4079L60.1501 10.0223ZM7.70984 10.4079L8.09543 10.7935L7.70984 10.4079ZM15.036 10.4079L15.4216 10.7935L15.036 10.4079Z" fill="white"/>
<path d="M16.1943 10.4081L16.5799 10.7937L16.1943 10.4081Z" fill="white"/>
<path d="M23.5214 10.4081L23.907 10.7937L23.5214 10.4081Z" fill="white"/>
<path d="M38.9457 10.4081L39.3313 10.7937L38.9457 10.4081ZM46.2719 10.4081L46.6575 10.7937L46.2719 10.4081Z" fill="white"/>
<path d="M52.8252 10.4081L53.2108 10.7937L52.8252 10.4081Z" fill="white"/>
<path d="M60.535 10.4081L60.9206 10.7937L60.535 10.4081ZM108.734 10.4081V11.5649H109.119L108.734 10.4081Z" fill="white"/>
<path d="M16.1943 10.7938L16.5799 11.1794L16.1943 10.7938Z" fill="white"/>
<path d="M23.5214 10.7938L23.907 11.1794L23.5214 10.7938ZM38.5594 10.7938L38.945 11.1794L38.5594 10.7938Z" fill="white"/>
<path d="M45.8854 10.7938L46.271 11.1794L45.8854 10.7938Z" fill="white"/>
<path d="M52.8252 10.7938L53.2108 11.1794L52.8252 10.7938Z" fill="white"/>
<path d="M60.535 10.7938L60.9206 11.1794L60.535 10.7938Z" fill="white"/>
<path d="M116.448 10.7938L116.834 11.1794L116.448 10.7938ZM8.09717 11.1794L8.48276 11.565L8.09717 11.1794Z" fill="white"/>
<path d="M15.4242 11.1796L15.8098 11.5652L15.4242 11.1796Z" fill="white"/>
<path d="M15.8115 11.1796L16.1971 11.5652L15.8115 11.1796Z" fill="white"/>
<path d="M23.1342 11.1796L23.5197 11.5652L23.1342 11.1796Z" fill="white"/>
<path d="M53.2125 11.1796L53.5981 11.5652L53.2125 11.1796ZM60.9243 11.1796L61.3099 11.5652L60.9243 11.1796ZM66.0654 11.4368L66.1942 11.6936L66.0654 11.4368ZM73.2632 11.1796L73.6488 11.5652L73.2632 11.1796ZM116.449 11.1796L116.835 11.5652L116.449 11.1796Z" fill="white"/>
<path d="M131.104 11.1796L131.489 11.5652L131.104 11.1796Z" fill="white"/>
<path d="M131.487 11.1796V11.5652H138.813L131.487 11.1796Z" fill="white"/>
<path d="M8.4845 11.5653L8.87009 11.9509L8.4845 11.5653Z" fill="white"/>
<path d="M38.1755 11.5653L38.5611 11.9509L38.1755 11.5653Z" fill="white"/>
<path d="M45.4982 11.5653L45.8838 11.9509L45.4982 11.5653ZM73.2606 11.5653L73.6462 11.9509L73.2606 11.5653Z" fill="white"/>
<path d="M116.837 11.5653L117.223 11.9509L116.837 11.5653Z" fill="white"/>
<path d="M131.104 11.5653L131.489 11.9509L131.104 11.5653ZM138.43 11.5653L138.816 11.9509L138.43 11.5653Z" fill="white"/>
<path d="M8.4845 11.951L8.87009 12.3366L8.4845 11.951Z" fill="white"/>
<path d="M22.7513 11.951L23.1369 12.3366L22.7513 11.951Z" fill="white"/>
<path d="M37.7883 11.951L38.1739 12.3366L37.7883 11.951Z" fill="white"/>
<path d="M61.3097 11.951L61.6953 12.3366L61.3097 11.951Z" fill="white"/>
<path d="M65.9347 11.951L66.3203 12.3366L65.9347 11.951ZM73.6465 11.951L74.0321 12.3366L73.6465 11.951Z" fill="white"/>
<path d="M79.4315 11.951V12.3366H87.9145L79.4315 11.951ZM109.122 11.951L109.508 12.3366L109.122 11.951ZM116.834 11.951L117.219 12.3366L116.834 11.951Z" fill="white"/>
<path d="M130.717 11.951L131.102 12.3366L130.717 11.951ZM138.428 11.951L138.814 12.3366L138.428 11.951Z" fill="white"/>
<path d="M8.86719 12.3368L9.25278 12.7224L8.86719 12.3368ZM22.3628 12.3368L22.7484 12.7224L22.3628 12.3368Z" fill="white"/>
<path d="M61.697 12.3368L62.0826 12.7224L61.697 12.3368ZM74.0359 12.3368L74.4215 12.7224L74.0359 12.3368Z" fill="white"/>
<path d="M87.5286 12.3368L87.9142 12.7224L87.5286 12.3368ZM109.122 12.3368L109.507 12.7224L109.122 12.3368Z" fill="white"/>
<path d="M117.22 12.3368L117.605 12.7224L117.22 12.3368Z" fill="white"/>
<path d="M117.605 12.3368L117.99 12.7224L117.605 12.3368ZM130.329 12.3368L130.715 12.7224L130.329 12.3368ZM138.427 12.3368L138.812 12.7224L138.427 12.3368ZM22.364 12.7224L22.7496 13.108L22.364 12.7224Z" fill="white"/>
<path d="M37.401 12.7225L37.7866 13.1081L37.401 12.7225ZM66.3202 12.7225L66.7058 13.1081L66.3202 12.7225Z" fill="white"/>
<path d="M74.4192 12.7225L74.8048 13.1081L74.4192 12.7225Z" fill="white"/>
<path d="M87.1437 12.7225L87.5293 13.1081L87.1437 12.7225ZM117.991 12.7225L118.376 13.1081L117.991 12.7225ZM129.944 12.7225L130.33 13.1081L129.944 12.7225ZM9.25452 13.1081L9.64011 13.4937L9.25452 13.1081Z" fill="white"/>
<path d="M21.9813 13.1083L22.3669 13.4939L21.9813 13.1083Z" fill="white"/>
<path d="M37.0182 13.1083L37.4038 13.4939L37.0182 13.1083Z" fill="white"/>
<path d="M62.0797 13.1083L62.4653 13.4939L62.0797 13.1083Z" fill="white"/>
<path d="M66.322 13.1083L66.7076 13.4939L66.322 13.1083Z" fill="white"/>
<path d="M74.8065 13.1083L75.1921 13.4939L74.8065 13.1083Z" fill="white"/>
<path d="M86.3712 13.1083L86.7568 13.4939L86.3712 13.1083Z" fill="white"/>
<path d="M86.7585 13.1083L87.1441 13.4939L86.7585 13.1083ZM109.508 13.1083L109.894 13.4939L109.508 13.1083Z" fill="white"/>
<path d="M118.76 13.1083L119.145 13.4939L118.76 13.1083Z" fill="white"/>
<path d="M129.172 13.1083L129.557 13.4939L129.172 13.1083Z" fill="white"/>
<path d="M129.559 13.1083L129.945 13.4939L129.559 13.1083Z" fill="white"/>
<path d="M138.044 13.1083L138.429 13.4939L138.044 13.1083Z" fill="white"/>
<path d="M21.9813 13.4941L22.3669 13.8797L21.9813 13.4941ZM62.4683 13.4941L62.8538 13.8797L62.4683 13.4941Z" fill="white"/>
<path d="M66.7047 13.4941L67.0903 13.8797L66.7047 13.4941Z" fill="white"/>
<path d="M75.5765 13.4941L75.9621 13.8797L75.5765 13.4941Z" fill="white"/>
<path d="M85.6012 13.4941L85.9868 13.8797L85.6012 13.4941Z" fill="white"/>
<path d="M85.9839 13.4941L86.3695 13.8797L85.9839 13.4941Z" fill="white"/>
<path d="M109.505 13.4941L109.891 13.8797L109.505 13.4941Z" fill="white"/>
<path d="M119.53 13.4941L119.915 13.8797L119.53 13.4941Z" fill="white"/>
<path d="M119.917 13.4941L120.303 13.8797L119.917 13.4941Z" fill="white"/>
<path d="M120.305 13.4941L120.69 13.8797L120.305 13.4941ZM128.016 13.4941L128.402 13.8797L128.016 13.4941Z" fill="white"/>
<path d="M128.402 13.4941L128.787 13.8797L128.402 13.4941Z" fill="white"/>
<path d="M138.044 13.4941L138.429 13.8797L138.044 13.4941Z" fill="white"/>
<path d="M9.63733 13.8799L10.0229 14.2655L9.63733 13.8799ZM21.5906 13.8799L21.9762 14.2655L21.5906 13.8799Z" fill="white"/>
<path d="M36.6309 13.8799L37.0164 14.2655L36.6309 13.8799Z" fill="white"/>
<path d="M66.7047 13.8799L67.0903 14.2655L66.7047 13.8799Z" fill="white"/>
<path d="M76.3467 13.8799L76.7323 14.2655L76.3467 13.8799Z" fill="white"/>
<path d="M76.7339 13.8799L77.1195 14.2655L76.7339 13.8799Z" fill="white"/>
<path d="M77.1167 13.8799L77.5023 14.2655L77.1167 13.8799ZM84.0573 13.8799L84.4429 14.2655L84.0573 13.8799Z" fill="white"/>
<path d="M84.4437 13.8799L84.8293 14.2655L84.4437 13.8799Z" fill="white"/>
<path d="M84.8311 13.8799L85.2166 14.2655L84.8311 13.8799ZM109.894 13.8799L110.28 14.2655L109.894 13.8799ZM121.076 13.8799L121.462 14.2655L121.076 13.8799Z" fill="white"/>
<path d="M121.462 13.8799V14.2655H122.619L121.462 13.8799Z" fill="white"/>
<path d="M122.619 13.8799V14.2655H126.09L122.619 13.8799Z" fill="white"/>
<path d="M126.347 14.0109L126.603 14.1397L126.347 14.0109Z" fill="white"/>
<path d="M127.116 14.0083L127.372 14.1371L127.116 14.0083ZM137.655 13.8799L138.04 14.2655L137.655 13.8799ZM10.0247 14.2655L10.4102 14.6511L10.0247 14.2655Z" fill="white"/>
<path d="M36.2482 14.2656L36.6338 14.6512L36.2482 14.2656Z" fill="white"/>
<path d="M62.8544 14.2656L63.24 14.6512L62.8544 14.2656Z" fill="white"/>
<path d="M78.1465 14.3966L78.4033 14.5254L78.1465 14.3966Z" fill="white"/>
<path d="M78.6614 14.2656V14.6512H82.5173L78.6614 14.2656Z" fill="white"/>
<path d="M82.776 14.3966L83.0328 14.5254L82.776 14.3966Z" fill="white"/>
<path d="M109.892 14.2656L110.278 14.6512L109.892 14.2656ZM137.655 14.2656L138.04 14.6512L137.655 14.2656ZM10.0247 14.6512L10.4102 15.0368L10.0247 14.6512Z" fill="white"/>
<path d="M21.2067 14.6514L21.5923 15.037L21.2067 14.6514Z" fill="white"/>
<path d="M63.2372 14.6514L63.6228 15.037L63.2372 14.6514ZM67.0931 14.6514L67.4787 15.037L67.0931 14.6514Z" fill="white"/>
<path d="M110.28 14.6514L110.666 15.037L110.28 14.6514ZM137.271 14.6514L137.657 15.037L137.271 14.6514Z" fill="white"/>
<path d="M10.412 15.0371L10.7976 15.4227L10.412 15.0371ZM20.8229 15.0371L21.2085 15.4227L20.8229 15.0371ZM35.8609 15.0371L36.2465 15.4227L35.8609 15.0371ZM63.2378 15.0371L63.6234 15.4227L63.2378 15.0371Z" fill="white"/>
<path d="M67.4794 15.0371L67.865 15.4227L67.4794 15.0371Z" fill="white"/>
<path d="M110.663 15.0371L111.434 15.8083L110.663 15.0371ZM136.883 15.0371L137.268 15.4227L136.883 15.0371Z" fill="white"/>
<path d="M10.412 15.4229L10.7976 15.8084L10.412 15.4229ZM20.8229 15.4229L21.2085 15.8084L20.8229 15.4229Z" fill="white"/>
<path d="M35.4735 15.4229L35.8591 15.8084L35.4735 15.4229ZM63.6216 15.4229L64.0072 15.8084L63.6216 15.4229Z" fill="white"/>
<path d="M67.8622 15.4229L68.2478 15.8084L67.8622 15.4229Z" fill="white"/>
<path d="M110.663 15.4229L111.048 15.8084L110.663 15.4229ZM136.883 15.4229L137.268 15.8084L136.883 15.4229Z" fill="white"/>
<path d="M10.7992 15.8086L11.1848 16.1942L10.7992 15.8086Z" fill="white"/>
<path d="M20.4365 15.8086L20.8221 16.1942L20.4365 15.8086Z" fill="white"/>
<path d="M35.0862 15.8086L35.4718 16.1942L35.0862 15.8086ZM64.0054 15.8086L64.391 16.1942L64.0054 15.8086Z" fill="white"/>
<path d="M68.2495 15.8086L69.0207 16.5798L68.2495 15.8086ZM111.436 15.8086L112.207 16.5798L111.436 15.8086Z" fill="white"/>
<path d="M136.499 15.8086L136.884 16.1942L136.499 15.8086Z" fill="white"/>
<path d="M35.0862 16.1943L35.4718 16.5799L35.0862 16.1943Z" fill="white"/>
<path d="M42.8005 16.1943V16.5799H56.2962L42.8005 16.1943Z" fill="white"/>
<path d="M56.2974 16.1943L56.683 16.5799L56.2974 16.1943ZM64.0092 16.1943L64.3947 16.5799L64.0092 16.1943Z" fill="white"/>
<path d="M68.2495 16.1943L68.6351 16.5799L68.2495 16.1943ZM111.436 16.1943L111.821 16.5799L111.436 16.1943ZM136.113 16.1943L136.499 16.5799L136.113 16.1943Z" fill="white"/>
<path d="M11.182 16.5802L11.5676 16.9658L11.182 16.5802ZM20.0506 16.5802L20.4362 16.9658L20.0506 16.5802ZM34.703 16.5802L35.0886 16.9658L34.703 16.5802Z" fill="white"/>
<path d="M42.4133 16.5802L42.7989 16.9658L42.4133 16.5802Z" fill="white"/>
<path d="M56.6802 16.5802L57.0658 16.9658L56.6802 16.5802Z" fill="white"/>
<path d="M64.3945 16.5802L64.7801 16.9658L64.3945 16.5802Z" fill="white"/>
<path d="M69.0195 16.5802L69.4051 16.9658L69.0195 16.5802Z" fill="white"/>
<path d="M112.207 16.5802L112.593 16.9658L112.207 16.5802Z" fill="white"/>
<path d="M135.344 16.5802L135.729 16.9658L135.344 16.5802ZM11.5693 16.9658L11.9549 17.3514L11.5693 16.9658Z" fill="white"/>
<path d="M34.3162 16.9659L34.7018 17.3515L34.3162 16.9659Z" fill="white"/>
<path d="M42.0305 16.9659L42.4161 17.3515L42.0305 16.9659Z" fill="white"/>
<path d="M56.6802 16.9659L57.0658 17.3515L56.6802 16.9659ZM64.7776 16.9659L65.1632 17.3515L64.7776 16.9659ZM69.4046 16.9659L69.7902 17.3515L69.4046 16.9659ZM112.591 16.9659L112.976 17.3515L112.591 16.9659Z" fill="white"/>
<path d="M112.978 16.9659L113.363 17.3515L112.978 16.9659Z" fill="white"/>
<path d="M134.954 16.9659L135.34 17.3515L134.954 16.9659Z" fill="white"/>
<path d="M11.5693 17.3517L11.9549 17.7373L11.5693 17.3517ZM19.6667 17.3517L20.0523 17.7373L19.6667 17.3517Z" fill="white"/>
<path d="M34.3162 17.3517L34.7018 17.7373L34.3162 17.3517Z" fill="white"/>
<path d="M57.0674 17.3517L57.453 17.7373L57.0674 17.3517Z" fill="white"/>
<path d="M64.7819 17.3517L65.1675 17.7373L64.7819 17.3517Z" fill="white"/>
<path d="M69.7942 17.3517L70.1798 17.7373L69.7942 17.3517Z" fill="white"/>
<path d="M70.1769 17.3517L70.5625 17.7373L70.1769 17.3517Z" fill="white"/>
<path d="M87.9159 17.3517L88.3015 17.7373L87.9159 17.3517Z" fill="white"/>
<path d="M88.3032 17.3517V18.894H88.6888L88.3032 17.3517ZM113.367 17.3517L113.752 17.7373L113.367 17.3517Z" fill="white"/>
<path d="M134.189 17.3517L134.574 17.7373L134.189 17.3517Z" fill="white"/>
<path d="M134.571 17.3517L134.957 17.7373L134.571 17.3517Z" fill="white"/>
<path d="M11.952 17.7374L12.3376 18.123L11.952 17.7374ZM19.2782 17.7374L19.6638 18.123L19.2782 17.7374Z" fill="white"/>
<path d="M33.9333 17.7374L34.3189 18.123L33.9333 17.7374Z" fill="white"/>
<path d="M41.6432 17.7374L42.0288 18.123L41.6432 17.7374Z" fill="white"/>
<path d="M57.4547 17.7374L57.8403 18.123L57.4547 17.7374Z" fill="white"/>
<path d="M65.1692 17.7374L65.5548 18.123L65.1692 17.7374ZM70.5674 17.7374L70.953 18.123L70.5674 17.7374Z" fill="white"/>
<path d="M70.947 17.7374L71.3326 18.123L70.947 17.7374Z" fill="white"/>
<path d="M87.1459 17.7374L87.5315 18.123L87.1459 17.7374ZM114.137 17.7374L114.523 18.123L114.137 17.7374Z" fill="white"/>
<path d="M114.522 17.7374L114.908 18.123L114.522 17.7374ZM133.416 17.7374L133.802 18.123L133.416 17.7374Z" fill="white"/>
<path d="M133.798 17.7374L134.184 18.123L133.798 17.7374ZM11.952 18.123L12.3376 18.5086L11.952 18.123ZM19.2782 18.123L19.6638 18.5086L19.2782 18.123ZM33.5451 18.123L33.9306 18.5086L33.5451 18.123Z" fill="white"/>
<path d="M41.2605 18.1232L41.6461 18.5088L41.2605 18.1232Z" fill="white"/>
<path d="M57.4547 18.1232L57.8403 18.5088L57.4547 18.1232ZM71.3359 18.1232L71.7215 18.5088L71.3359 18.1232Z" fill="white"/>
<path d="M71.7217 18.1232L72.1073 18.5088L71.7217 18.1232Z" fill="white"/>
<path d="M85.9839 18.1232L86.3695 18.5088L85.9839 18.1232Z" fill="white"/>
<path d="M86.3712 18.1232L86.7568 18.5088L86.3712 18.1232Z" fill="white"/>
<path d="M114.905 18.1232L115.29 18.5088L114.905 18.1232Z" fill="white"/>
<path d="M115.292 18.1232L115.678 18.5088L115.292 18.1232Z" fill="white"/>
<path d="M132.639 18.1232L133.025 18.5088L132.639 18.1232Z" fill="white"/>
<path d="M133.031 18.1232L133.417 18.5088L133.031 18.1232Z" fill="white"/>
<path d="M12.3394 18.5089L12.7249 18.8945L12.3394 18.5089Z" fill="white"/>
<path d="M18.8964 18.5089L19.282 18.8945L18.8964 18.5089ZM33.5488 18.5089L33.9344 18.8945L33.5488 18.5089ZM40.875 18.5089L41.2606 18.8945L40.875 18.5089Z" fill="white"/>
<path d="M57.8375 18.5089L58.2231 18.8945L57.8375 18.5089Z" fill="white"/>
<path d="M65.5474 18.5089L65.933 18.8945L65.5474 18.5089Z" fill="white"/>
<path d="M72.4917 18.5089L72.8773 18.8945L72.4917 18.5089Z" fill="white"/>
<path d="M72.879 18.5089L73.2646 18.8945L72.879 18.5089ZM84.8323 18.5089L85.2179 18.8945L84.8323 18.5089Z" fill="white"/>
<path d="M85.2139 18.5089L85.5995 18.8945L85.2139 18.5089Z" fill="white"/>
<path d="M85.6012 18.5089L85.9868 18.8945L85.6012 18.5089ZM116.063 18.5089L116.448 18.8945L116.063 18.5089Z" fill="white"/>
<path d="M116.445 18.5089L116.831 18.8945L116.445 18.5089Z" fill="white"/>
<path d="M131.104 18.5089L131.489 18.8945L131.104 18.5089Z" fill="white"/>
<path d="M131.487 18.5089L131.872 18.8945L131.487 18.5089Z" fill="white"/>
<path d="M131.874 18.5089L132.259 18.8945L131.874 18.5089Z" fill="white"/>
<path d="M33.1587 18.8947L33.5443 19.2802L33.1587 18.8947Z" fill="white"/>
<path d="M40.8732 18.8947L41.2588 19.2802L40.8732 18.8947ZM65.9365 18.8947L66.3221 19.2802L65.9365 18.8947ZM73.6483 18.8947L74.0339 19.2802L73.6483 18.8947Z" fill="white"/>
<path d="M74.0319 18.8947L74.4175 19.2802L74.0319 18.8947Z" fill="white"/>
<path d="M74.6788 19.0231L74.9356 19.1518L74.6788 19.0231ZM83.2902 18.8947L83.6758 19.2802L83.2902 18.8947Z" fill="white"/>
<path d="M83.6692 18.8947L84.0548 19.2802L83.6692 18.8947Z" fill="white"/>
<path d="M84.0565 18.8947L84.4421 19.2802L84.0565 18.8947ZM88.298 18.8947L88.6836 19.2802L88.298 18.8947ZM117.603 18.8947L117.988 19.2802L117.603 18.8947Z" fill="white"/>
<path d="M117.99 18.8947L118.375 19.2802L117.99 18.8947Z" fill="white"/>
<path d="M118.377 18.8947L118.763 19.2802L118.377 18.8947ZM129.431 19.0231L129.688 19.1518L129.431 19.0231Z" fill="white"/>
<path d="M129.942 18.8947L130.327 19.2802L129.942 18.8947Z" fill="white"/>
<path d="M130.328 18.8947L130.714 19.2802L130.328 18.8947ZM75.8317 19.4086L76.0885 19.5374L75.8317 19.4086Z" fill="white"/>
<path d="M76.6063 19.4114L76.8631 19.5402L76.6063 19.4114Z" fill="white"/>
<path d="M77.1167 19.2804V19.666H80.9726L77.1167 19.2804Z" fill="white"/>
<path d="M80.9762 19.2804V19.666H82.133L80.9762 19.2804Z" fill="white"/>
<path d="M82.1335 19.2804L82.5191 19.666L82.1335 19.2804ZM119.536 19.2804V19.666H120.693L119.536 19.2804Z" fill="white"/>
<path d="M120.692 19.2804V19.666H121.849L120.692 19.2804Z" fill="white"/>
<path d="M121.845 19.2804V19.666H126.472L121.845 19.2804Z" fill="white"/>
<path d="M126.474 19.2804V19.666H127.631L126.474 19.2804Z" fill="white"/>
<path d="M127.887 19.4114L128.144 19.5402L127.887 19.4114Z" fill="white"/>
<path d="M0 23.5237V23.9093H23.9066L16.1948 23.5237H0Z" fill="white"/>
<path d="M23.9064 23.5237V29.6931L8.09717 30.0787V30.8499L23.5208 31.2355V30.8499H8.48276V30.0787C13.8162 30.0787 27.8139 32.8361 23.9064 23.5237ZM26.2199 23.5237L26.6055 23.9093L26.2199 23.5237Z" fill="white"/>
<path d="M26.2174 34.703H26.603V23.9064H34.7004C33.694 23.4842 32.71 23.5224 31.6157 23.5209C30.3336 23.5189 27.9067 23.0689 26.8355 23.9172C25.0784 25.3092 26.2174 32.5579 26.2174 34.703Z" fill="white"/>
<path d="M46.2727 23.5237V34.3202H46.6583L46.2727 23.5237Z" fill="white"/>
<path d="M46.66 23.5237V23.9093H54.7574L46.66 23.5237Z" fill="white"/>
<path d="M58.2202 23.5237L58.6058 23.9093L58.2202 23.5237Z" fill="white"/>
<path d="M58.2233 43.5686H58.6089V23.9035H66.7063C65.2418 23.2888 59.7244 22.7413 58.6197 24.136C57.7217 25.2696 58.2233 27.9402 58.2233 29.3017V43.5686Z" fill="white"/>
<path d="M77.504 23.5237V33.1634H77.8896L77.504 23.5237Z" fill="white"/>
<path d="M77.8914 23.5237V23.9093H85.6032L77.8914 23.5237Z" fill="white"/>
<path d="M89.0734 23.5237V43.5744H89.459V30.0787L89.0734 23.5237Z" fill="white"/>
<path d="M107.582 23.5237V23.9093H108.739L107.582 23.5237Z" fill="white"/>
<path d="M0 23.9095V43.5746H0.38559C0.38559 38.0565 2.12383 28.9712 0 23.9095Z" fill="white"/>
<path d="M0.387329 23.9095V43.5746H8.09913V37.0196H23.1371V31.2358H8.09913V29.6934H23.9083V23.9095H0.387329ZM26.6074 23.9095C26.6074 28.746 25.2999 35.6195 28.454 39.6829C33.1752 45.7644 49.0804 45.3318 53.3277 38.9472C55.7453 35.313 54.3699 28.1233 54.3699 23.9095H46.6581C46.6581 27.0282 47.6634 32.2768 46.2035 35.0843C44.3747 38.6017 37.2193 38.7532 35.1251 35.4367C33.3047 32.5545 34.3192 27.194 34.3192 23.9095H26.6074Z" fill="white"/>
<path d="M34.3162 23.9095V34.3205H34.7018L34.3162 23.9095ZM54.3668 23.9095V35.8628H54.7524L54.3668 23.9095Z" fill="white"/>
<path d="M58.6075 23.9095V43.5746H66.3193V33.1637C69.4426 36.2611 74.1086 41.8271 78.2726 43.3421C80.3714 44.106 83.3832 43.5746 85.5988 43.5746V23.9095H77.887V33.5493L66.7049 24.2712L58.6075 23.9095Z" fill="white"/>
<path d="M66.7047 23.9095L67.0903 24.2951L66.7047 23.9095Z" fill="white"/>
<path d="M109.505 23.9095L109.891 24.2951L109.505 23.9095Z" fill="white"/>
<path d="M109.893 23.9095L110.278 24.2951L109.893 23.9095Z" fill="white"/>
<path d="M110.28 23.9095L110.666 24.2951L110.28 23.9095Z" fill="white"/>
<path d="M67.092 24.2952L67.4776 24.6808L67.092 24.2952ZM111.049 24.2952L111.435 24.6808L111.049 24.2952Z" fill="white"/>
<path d="M111.437 24.2952L111.823 24.6808L111.437 24.2952Z" fill="white"/>
<path d="M111.822 24.2952L112.207 24.6808L111.822 24.2952ZM1.15735 24.6808V25.0663H22.7504L15.8098 24.6808H1.15735Z" fill="white"/>
<path d="M22.7513 24.681L23.1369 25.0666L22.7513 24.681Z" fill="white"/>
<path d="M27.3763 24.681L27.7619 25.0666L27.3763 24.681Z" fill="white"/>
<path d="M27.3752 34.3188H27.7608V25.0646H33.5446C26.2489 22.0034 27.3752 29.6377 27.3752 34.3188Z" fill="white"/>
<path d="M47.4302 24.681L47.8158 25.0666L47.4302 24.681Z" fill="white"/>
<path d="M47.8129 24.681V25.0666H53.5967L47.8129 24.681Z" fill="white"/>
<path d="M59.3822 24.681L59.7678 25.0666L59.3822 24.681Z" fill="white"/>
<path d="M59.3811 42.4153H59.7667V25.0638L66.7073 25.4493C65.4595 24.5043 60.4897 23.7921 59.6136 25.572C58.977 26.866 59.3811 29.0538 59.3811 30.462V42.4153Z" fill="white"/>
<path d="M67.4794 24.681L67.865 25.0666L67.4794 24.681Z" fill="white"/>
<path d="M67.8622 24.681L68.2478 25.0666L67.8622 24.681Z" fill="white"/>
<path d="M78.6614 24.681L79.047 25.0666L78.6614 24.681Z" fill="white"/>
<path d="M79.0442 24.681V25.0666H84.4424L79.0442 24.681Z" fill="white"/>
<path d="M84.4435 24.681V42.4182H78.274V42.8038L84.211 42.4074L84.8291 38.1767L84.4435 24.681ZM90.2273 24.681L90.6129 25.0666L90.2273 24.681Z" fill="white"/>
<path d="M90.6135 24.6799V25.0655H107.579C103.159 23.2108 95.4257 24.6799 90.6135 24.6799Z" fill="white"/>
<path d="M107.582 24.681V25.0666H108.739L107.582 24.681Z" fill="white"/>
<path d="M108.995 24.8094L109.252 24.9382L108.995 24.8094ZM112.208 24.681L112.594 25.0666L112.208 24.681Z" fill="white"/>
<path d="M112.595 24.681L112.98 25.0666L112.595 24.681Z" fill="white"/>
<path d="M1.15735 25.0668V42.4183H6.9412V35.8633H21.9792V32.393H6.9412V28.5371H22.7504V25.0668H1.15735Z" fill="white"/>
<path d="M22.7467 25.0668V28.5371H11.179C10.0149 28.5371 7.79738 28.1361 7.17041 29.4309C6.309 31.2104 7.6308 32.3139 9.25298 32.3856C13.4763 32.5719 17.7475 32.393 21.9755 32.393V32.0074H7.3231V28.9227C11.2091 28.9227 18.762 30.4006 22.2385 28.6902C23.5202 28.0593 23.184 26.1094 22.7467 25.0668Z" fill="white"/>
<path d="M27.7645 25.0668C27.7645 29.2034 26.5765 35.4256 29.2298 38.9122C33.4281 44.4284 48.2158 44.1041 52.2445 38.5566C54.7204 35.1469 53.5991 29.0441 53.5991 25.0668H47.8152C47.8152 28.1461 48.763 33.1476 47.0988 35.8575C44.7209 39.7288 36.3678 39.9594 34.0566 35.8274C32.569 33.1676 33.5484 28.0566 33.5484 25.0668H27.7645Z" fill="white"/>
<path d="M47.4302 25.0668V34.3209H47.8158L47.4302 25.0668Z" fill="white"/>
<path d="M59.765 25.0668V42.4183H65.1633V30.8506C68.8198 34.2184 73.9293 40.5632 78.6589 42.1912C80.3779 42.7831 82.6428 42.4183 84.4428 42.4183V25.0668H79.0445V35.8633L66.2545 25.3378L59.765 25.0668Z" fill="white"/>
<path d="M68.2495 25.0668L68.6351 25.4524L68.2495 25.0668Z" fill="white"/>
<path d="M78.6596 25.0668L78.274 35.8633C79.929 34.4169 79.4906 27.0475 78.6596 25.0668ZM90.2273 25.0668V42.4183H90.6129C90.6129 37.5051 92.1206 29.5786 90.2273 25.0668Z" fill="white"/>
<path d="M109.893 25.0668L110.278 25.4524L109.893 25.0668Z" fill="white"/>
<path d="M110.28 25.0668L110.666 25.4524L110.28 25.0668Z" fill="white"/>
<path d="M110.663 25.0668L111.048 25.4524L110.663 25.0668Z" fill="white"/>
<path d="M113.365 25.0668L113.75 25.4524L113.365 25.0668Z" fill="white"/>
<path d="M67.092 25.4524L67.8632 26.2236L67.092 25.4524Z" fill="white"/>
<path d="M68.6322 25.4524L69.0178 25.838L68.6322 25.4524Z" fill="white"/>
<path d="M111.437 25.4524L111.823 25.838L111.437 25.4524Z" fill="white"/>
<path d="M111.82 25.4524L112.206 25.838L111.82 25.4524ZM113.748 25.4524L114.134 25.838L113.748 25.4524Z" fill="white"/>
<path d="M114.134 25.4524L114.52 25.838L114.134 25.4524ZM67.092 25.838L67.4776 26.2236L67.092 25.838Z" fill="white"/>
<path d="M69.0195 25.8309L69.4051 26.2165L69.0195 25.8309Z" fill="white"/>
<path d="M112.207 25.8309L112.593 26.2165L112.207 25.8309Z" fill="white"/>
<path d="M112.595 25.8309L112.98 26.2165L112.595 25.8309Z" fill="white"/>
<path d="M114.522 25.8309L114.908 26.2165L114.522 25.8309Z" fill="white"/>
<path d="M67.8622 26.2168L68.2478 26.6024L67.8622 26.2168Z" fill="white"/>
<path d="M69.4069 26.2168L69.7925 26.6024L69.4069 26.2168Z" fill="white"/>
<path d="M112.978 26.2168L113.363 26.6024L112.978 26.2168Z" fill="white"/>
<path d="M113.365 26.2168L113.75 26.6024L113.365 26.2168Z" fill="white"/>
<path d="M114.906 26.2168L115.291 26.6024L114.906 26.2168ZM68.2495 26.6024L68.6351 26.988L68.2495 26.6024Z" fill="white"/>
<path d="M69.7942 26.6024L70.1798 26.988L69.7942 26.6024ZM113.751 26.6024L114.137 26.988L113.751 26.6024Z" fill="white"/>
<path d="M115.289 26.6024L115.674 26.988L115.289 26.6024ZM68.6322 26.988L69.0178 27.3736L68.6322 26.988Z" fill="white"/>
<path d="M70.1769 26.9883L70.5625 27.3739L70.1769 26.9883Z" fill="white"/>
<path d="M114.135 26.9883L114.52 27.3739L114.135 26.9883ZM115.677 26.9883L116.063 27.3739L115.677 26.9883Z" fill="white"/>
<path d="M69.0195 27.374L69.4051 27.7596L69.0195 27.374Z" fill="white"/>
<path d="M70.5642 27.374L70.9498 27.7596L70.5642 27.374Z" fill="white"/>
<path d="M114.522 27.374L114.908 27.7596L114.522 27.374Z" fill="white"/>
<path d="M116.063 27.374L116.449 27.7596L116.063 27.374ZM69.4069 27.7596L69.7925 28.1452L69.4069 27.7596ZM71.3348 27.7596L71.7204 28.1452L71.3348 27.7596Z" fill="white"/>
<path d="M114.905 27.7598L115.29 28.1454L114.905 27.7598Z" fill="white"/>
<path d="M116.062 27.7598L116.448 28.1454L116.062 27.7598ZM70.1769 28.1454L70.5625 28.5309L70.1769 28.1454Z" fill="white"/>
<path d="M71.7217 28.1455L72.1073 28.5311L71.7217 28.1455Z" fill="white"/>
<path d="M115.292 28.1455L115.678 28.5311L115.292 28.1455Z" fill="white"/>
<path d="M116.445 28.1455L116.831 28.5311L116.445 28.1455Z" fill="white"/>
<path d="M6.93982 28.5312L7.32541 28.9168L6.93982 28.5312Z" fill="white"/>
<path d="M22.7513 28.5312L23.1369 28.9168L22.7513 28.5312ZM70.5645 28.5312L70.9501 28.9168L70.5645 28.5312Z" fill="white"/>
<path d="M72.1044 28.5312L72.49 28.9168L72.1044 28.5312Z" fill="white"/>
<path d="M106.425 28.5312L106.811 28.9168L106.425 28.5312Z" fill="white"/>
<path d="M107.068 28.6622L107.324 28.791L107.068 28.6622Z" fill="white"/>
<path d="M115.292 28.5312L115.678 28.9168L115.292 28.5312Z" fill="white"/>
<path d="M70.947 28.917L71.3326 29.3026L70.947 28.917Z" fill="white"/>
<path d="M72.4917 28.917L72.8773 29.3026L72.4917 28.917Z" fill="white"/>
<path d="M107.965 28.917L108.351 29.3026L107.965 28.917Z" fill="white"/>
<path d="M108.353 28.917L108.738 29.3026L108.353 28.917Z" fill="white"/>
<path d="M115.68 28.917L116.065 29.3026L115.68 28.917Z" fill="white"/>
<path d="M116.834 28.917L117.22 29.3026L116.834 28.917ZM71.3344 29.3026L71.7199 29.6882L71.3344 29.3026Z" fill="white"/>
<path d="M72.879 29.3027L73.2646 29.6883L72.879 29.3027Z" fill="white"/>
<path d="M104.88 29.3027V29.6883H106.423L104.88 29.3027Z" fill="white"/>
<path d="M108.735 29.3027L109.121 29.6883L108.735 29.3027Z" fill="white"/>
<path d="M115.68 29.3027L116.065 29.6883L115.68 29.3027Z" fill="white"/>
<path d="M116.837 29.3027L117.223 29.6883L116.837 29.3027Z" fill="white"/>
<path d="M8.09717 29.6885L8.48276 30.0741L8.09717 29.6885ZM71.7195 29.6885L72.1051 30.0741L71.7195 29.6885Z" fill="white"/>
<path d="M106.808 29.6885L107.193 30.0741L106.808 29.6885Z" fill="white"/>
<path d="M107.195 29.6885L107.581 30.0741L107.195 29.6885Z" fill="white"/>
<path d="M109.118 29.6885L109.504 30.0741L109.118 29.6885ZM116.059 29.6885L116.444 30.0741L116.059 29.6885Z" fill="white"/>
<path d="M117.218 29.6885L117.604 30.0741L117.218 29.6885ZM72.1044 30.0741L72.49 30.4597L72.1044 30.0741Z" fill="white"/>
<path d="M73.649 30.0742L74.0346 30.4598L73.649 30.0742Z" fill="white"/>
<path d="M107.965 30.0742L108.351 30.4598L107.965 30.0742Z" fill="white"/>
<path d="M109.505 30.0742L109.891 30.4598L109.505 30.0742Z" fill="white"/>
<path d="M116.067 30.0742L116.452 30.4598L116.067 30.0742ZM117.224 30.0742L117.609 30.4598L117.224 30.0742Z" fill="white"/>
<path d="M72.4917 30.46L72.8773 30.8456L72.4917 30.46ZM74.4196 30.46L74.8052 30.8456L74.4196 30.46ZM108.352 30.46L108.737 30.8456L108.352 30.46ZM109.894 30.46L110.28 30.8456L109.894 30.46ZM116.063 30.46L116.449 30.8456L116.063 30.46Z" fill="white"/>
<path d="M117.22 30.46L117.605 30.8456L117.22 30.46Z" fill="white"/>
<path d="M8.09717 30.8458L8.48276 31.2314L8.09717 30.8458Z" fill="white"/>
<path d="M65.1692 30.8458L65.5548 31.2314L65.1692 30.8458ZM72.881 30.8458L73.2666 31.2314L72.881 30.8458Z" fill="white"/>
<path d="M73.2617 30.8458L73.6473 31.2314L73.2617 30.8458Z" fill="white"/>
<path d="M74.8065 30.8458L75.1921 31.2314L74.8065 30.8458ZM108.738 30.8458L109.124 31.2314L108.738 30.8458Z" fill="white"/>
<path d="M109.893 30.8458L110.278 31.2314L109.893 30.8458Z" fill="white"/>
<path d="M23.1342 31.2314V37.0153H23.5197L23.1342 31.2314Z" fill="white"/>
<path d="M65.1692 31.2314V42.4136H65.5548L65.1692 31.2314Z" fill="white"/>
<path d="M65.5474 31.2314L65.933 31.617L65.5474 31.2314Z" fill="white"/>
<path d="M73.649 31.2314L74.0346 31.617L73.649 31.2314Z" fill="white"/>
<path d="M75.1892 31.2314L75.5748 31.617L75.1892 31.2314Z" fill="white"/>
<path d="M109.118 31.2314L109.504 31.617L109.118 31.2314Z" fill="white"/>
<path d="M110.28 31.2314L110.666 31.617L110.28 31.2314Z" fill="white"/>
<path d="M116.447 31.2314L116.833 31.617L116.447 31.2314ZM65.9347 31.617L66.3203 32.0026L65.9347 31.617ZM74.0321 31.617L74.4177 32.0026L74.0321 31.617Z" fill="white"/>
<path d="M75.5765 31.6173L75.9621 32.0029L75.5765 31.6173ZM109.123 31.6173L109.508 32.0029L109.123 31.6173ZM110.28 31.6173L110.665 32.0029L110.28 31.6173ZM116.449 31.6173V32.7741H116.835L116.449 31.6173Z" fill="white"/>
<path d="M117.604 31.6173V32.7741H117.99L117.604 31.6173ZM6.93982 32.0029L7.32541 32.3885L6.93982 32.0029Z" fill="white"/>
<path d="M21.9813 32.0031L22.3669 32.3886L21.9813 32.0031ZM66.3242 32.0031L66.7097 32.3886L66.3242 32.0031Z" fill="white"/>
<path d="M74.4192 32.0031L74.8048 32.3886L74.4192 32.0031Z" fill="white"/>
<path d="M75.9594 32.0031L76.3449 32.3886L75.9594 32.0031Z" fill="white"/>
<path d="M109.118 32.0031L109.504 32.3886L109.118 32.0031Z" fill="white"/>
<path d="M110.408 32.2578L110.536 32.5146L110.408 32.2578Z" fill="white"/>
<path d="M21.9813 32.3888V35.8591H22.3669L21.9813 32.3888Z" fill="white"/>
<path d="M66.7047 32.3888L67.0903 32.7744L66.7047 32.3888Z" fill="white"/>
<path d="M67.092 32.3888L67.4776 32.7744L67.092 32.3888Z" fill="white"/>
<path d="M74.8065 32.3888L75.1921 32.7744L74.8065 32.3888Z" fill="white"/>
<path d="M76.3467 32.3888L76.7323 32.7744L76.3467 32.3888Z" fill="white"/>
<path d="M67.4794 32.7745L67.865 33.1601L67.4794 32.7745Z" fill="white"/>
<path d="M75.1892 32.7745L75.5748 33.1601L75.1892 32.7745Z" fill="white"/>
<path d="M76.7339 32.7745L77.1195 33.1601L76.7339 32.7745Z" fill="white"/>
<path d="M116.445 32.7745V33.9313H116.831L116.445 32.7745Z" fill="white"/>
<path d="M117.603 32.7745V33.9313H117.988L117.603 32.7745Z" fill="white"/>
<path d="M66.322 33.1603L66.7076 33.5459L66.322 33.1603Z" fill="white"/>
<path d="M67.8622 33.1603L68.2478 33.5459L67.8622 33.1603ZM75.574 33.1603L75.9596 33.5459L75.574 33.1603Z" fill="white"/>
<path d="M77.1167 33.1603L77.5023 33.5459L77.1167 33.1603Z" fill="white"/>
<path d="M77.504 33.1603L77.8896 33.5459L77.504 33.1603Z" fill="white"/>
<path d="M109.505 33.1603V34.7026H109.891L109.505 33.1603ZM66.7047 33.5459L67.0903 33.9315L66.7047 33.5459Z" fill="white"/>
<path d="M68.2495 33.546L68.6351 33.9316L68.2495 33.546Z" fill="white"/>
<path d="M75.9594 33.546L76.7305 34.3172L75.9594 33.546Z" fill="white"/>
<path d="M76.3462 33.546L76.7318 33.9316L76.3462 33.546ZM67.092 33.9316L67.4776 34.3172L67.092 33.9316Z" fill="white"/>
<path d="M68.6322 33.9318L69.0178 34.3174L68.6322 33.9318Z" fill="white"/>
<path d="M76.7339 33.9318L77.1195 34.3174L76.7339 33.9318Z" fill="white"/>
<path d="M116.445 33.9318V35.0885H116.831L116.445 33.9318Z" fill="white"/>
<path d="M117.603 33.9318V35.0885H117.988L117.603 33.9318Z" fill="white"/>
<path d="M27.3763 34.3175V35.4743H27.7619L27.3763 34.3175Z" fill="white"/>
<path d="M33.6736 34.5723L33.8024 34.8291L33.6736 34.5723Z" fill="white"/>
<path d="M46.4004 34.5723L46.5292 34.8291L46.4004 34.5723Z" fill="white"/>
<path d="M47.5577 34.5723L47.6865 34.8291L47.5577 34.5723Z" fill="white"/>
<path d="M67.4794 34.3175L67.865 34.7031L67.4794 34.3175Z" fill="white"/>
<path d="M69.0195 34.3175L69.4051 34.7031L69.0195 34.3175ZM77.1169 34.3175L77.5025 34.7031L77.1169 34.3175Z" fill="white"/>
<path d="M26.3466 34.958L26.4753 35.2148L26.3466 34.958Z" fill="white"/>
<path d="M67.8622 34.7032L68.2478 35.0888L67.8622 34.7032Z" fill="white"/>
<path d="M69.4069 34.7032L69.7925 35.0888L69.4069 34.7032ZM77.5042 34.7032L77.8898 35.0888L77.5042 34.7032ZM110.279 34.7032L110.665 35.0888L110.279 34.7032Z" fill="white"/>
<path d="M33.546 35.089L33.9316 35.4746L33.546 35.089ZM34.7028 35.089L35.0884 35.4746L34.7028 35.089Z" fill="white"/>
<path d="M68.2495 35.089L68.6351 35.4746L68.2495 35.089Z" fill="white"/>
<path d="M69.7942 35.089L70.1798 35.4746L69.7942 35.089Z" fill="white"/>
<path d="M77.8914 35.089L78.2769 35.4746L77.8914 35.089Z" fill="white"/>
<path d="M109.118 35.089L109.504 35.4746L109.118 35.089Z" fill="white"/>
<path d="M110.28 35.089L110.666 35.4746L110.28 35.089Z" fill="white"/>
<path d="M116.576 35.3438L116.705 35.6005L116.576 35.3438ZM27.3763 35.4722L27.7619 35.8577L27.3763 35.4722Z" fill="white"/>
<path d="M33.546 35.4747L33.9316 35.8603L33.546 35.4747Z" fill="white"/>
<path d="M45.8854 35.4747L46.271 35.8603L45.8854 35.4747Z" fill="white"/>
<path d="M47.0428 35.4747L47.4284 35.8603L47.0428 35.4747Z" fill="white"/>
<path d="M53.3401 35.7319L53.4689 35.9887L53.3401 35.7319ZM68.6353 35.4747L69.0209 35.8603L68.6353 35.4747ZM70.5632 35.4747L70.9488 35.8603L70.5632 35.4747Z" fill="white"/>
<path d="M109.118 35.4747L109.504 35.8603L109.118 35.4747Z" fill="white"/>
<path d="M7.32715 35.8609V36.2465H21.9796C18.1098 34.6228 11.5343 35.8609 7.32715 35.8609Z" fill="white"/>
<path d="M21.9813 35.8605L22.3669 36.2461L21.9813 35.8605ZM33.9346 35.8605L34.3202 36.2461L33.9346 35.8605ZM35.0914 35.8605L35.477 36.2461L35.0914 35.8605Z" fill="white"/>
<path d="M45.4982 35.8605L45.8838 36.2461L45.4982 35.8605ZM47.0405 35.8605L47.4261 36.2461L47.0405 35.8605Z" fill="white"/>
<path d="M54.3699 35.8605L54.7555 36.2461L54.3699 35.8605Z" fill="white"/>
<path d="M69.4069 35.8605L70.178 36.6317L69.4069 35.8605Z" fill="white"/>
<path d="M70.947 35.8605L71.3326 36.2461L70.947 35.8605ZM116.061 35.8605L116.447 36.2461L116.061 35.8605Z" fill="white"/>
<path d="M117.22 35.8605L117.605 36.2461L117.22 35.8605Z" fill="white"/>
<path d="M6.93982 36.2463V42.4158H7.32541L6.93982 36.2463Z" fill="white"/>
<path d="M26.6062 36.2463L26.9918 36.6319L26.6062 36.2463Z" fill="white"/>
<path d="M27.7637 36.2463L28.1493 36.6319L27.7637 36.2463Z" fill="white"/>
<path d="M34.3162 36.2463L34.7018 36.6319L34.3162 36.2463ZM35.4729 36.2463L35.8585 36.6319L35.4729 36.2463Z" fill="white"/>
<path d="M35.8608 36.2463L36.2464 36.6319L35.8608 36.2463Z" fill="white"/>
<path d="M45.1154 36.2463L45.5009 36.6319L45.1154 36.2463ZM46.6577 36.2463L47.0433 36.6319L46.6577 36.2463ZM53.2127 36.2463L53.5983 36.6319L53.2127 36.2463Z" fill="white"/>
<path d="M54.4974 36.5035L54.6262 36.7603L54.4974 36.5035ZM69.407 36.2463L69.7926 36.6319L69.407 36.2463Z" fill="white"/>
<path d="M71.3344 36.2463L71.7199 36.6319L71.3344 36.2463Z" fill="white"/>
<path d="M108.351 36.2463L107.965 37.0175L108.351 36.2463Z" fill="white"/>
<path d="M108.735 36.2463L109.121 36.6319L108.735 36.2463Z" fill="white"/>
<path d="M34.3162 36.6321L34.7018 37.0177L34.3162 36.6321Z" fill="white"/>
<path d="M36.2482 36.6321L36.6338 37.0177L36.2482 36.6321Z" fill="white"/>
<path d="M36.6309 36.6321L37.0164 37.0177L36.6309 36.6321ZM44.3427 36.6321L44.7282 37.0177L44.3427 36.6321Z" fill="white"/>
<path d="M44.728 36.6321L45.1136 37.0177L44.728 36.6321ZM46.2704 36.6321L46.656 37.0177L46.2704 36.6321ZM53.211 36.6321L53.5966 37.0177L53.211 36.6321ZM70.177 36.6321L70.5625 37.0177L70.177 36.6321Z" fill="white"/>
<path d="M71.7217 36.6321L72.1073 37.0177L71.7217 36.6321Z" fill="white"/>
<path d="M108.353 36.6321L108.738 37.0177L108.353 36.6321ZM116.064 36.6321L116.45 37.0177L116.064 36.6321Z" fill="white"/>
<path d="M117.22 36.6321L117.605 37.0177L117.22 36.6321Z" fill="white"/>
<path d="M8.09717 37.0178L8.48276 37.4034L8.09717 37.0178Z" fill="white"/>
<path d="M8.4845 37.0204V37.406H23.5225C19.561 35.7437 12.7923 37.0204 8.4845 37.0204ZM26.6072 37.0204L26.9928 37.406L26.6072 37.0204Z" fill="white"/>
<path d="M35.0862 37.0178L35.4718 37.4034L35.0862 37.0178ZM37.0141 37.0178L37.3997 37.4034L37.0141 37.0178Z" fill="white"/>
<path d="M37.401 37.0178L37.7866 37.4034L37.401 37.0178Z" fill="white"/>
<path d="M37.7883 37.0178L38.1739 37.4034L37.7883 37.0178ZM43.1866 37.0178L43.5722 37.4034L43.1866 37.0178Z" fill="white"/>
<path d="M43.5707 37.0178L43.9563 37.4034L43.5707 37.0178ZM45.8842 37.0178L46.2698 37.4034L45.8842 37.0178Z" fill="white"/>
<path d="M52.8252 37.0178L53.2108 37.4034L52.8252 37.0178Z" fill="white"/>
<path d="M53.9825 37.0178L54.3681 37.4034L53.9825 37.0178Z" fill="white"/>
<path d="M70.5642 37.0178L70.9498 37.4034L70.5642 37.0178Z" fill="white"/>
<path d="M72.1044 37.0178L72.49 37.4034L72.1044 37.0178Z" fill="white"/>
<path d="M107.195 37.0178L107.581 37.4034L107.195 37.0178Z" fill="white"/>
<path d="M107.582 37.0178L107.968 37.4034L107.582 37.0178Z" fill="white"/>
<path d="M109.507 37.0178L109.893 37.4034L109.507 37.0178ZM8.09717 37.4034V43.5729H8.48276L8.09717 37.4034Z" fill="white"/>
<path d="M26.9935 37.4036L27.3791 37.7892L26.9935 37.4036Z" fill="white"/>
<path d="M28.151 37.4036L28.5366 37.7892L28.151 37.4036Z" fill="white"/>
<path d="M35.4735 37.4036L35.8591 37.7892L35.4735 37.4036Z" fill="white"/>
<path d="M38.8181 37.5345L39.0749 37.6633L38.8181 37.5345Z" fill="white"/>
<path d="M39.333 37.4036V37.7892H42.0321L39.333 37.4036Z" fill="white"/>
<path d="M42.0305 37.4036L42.4161 37.7892L42.0305 37.4036ZM45.1152 37.4036L45.5008 37.7892L45.1152 37.4036Z" fill="white"/>
<path d="M45.4982 37.4036L45.8838 37.7892L45.4982 37.4036Z" fill="white"/>
<path d="M52.8252 37.4036L53.2108 37.7892L52.8252 37.4036ZM53.982 37.4036L54.3676 37.7892L53.982 37.4036ZM70.9479 37.4036L71.3335 37.7892L70.9479 37.4036Z" fill="white"/>
<path d="M72.4917 37.4036L72.8773 37.7892L72.4917 37.4036Z" fill="white"/>
<path d="M97.5579 37.4036V37.7892H105.655L97.5579 37.4036Z" fill="white"/>
<path d="M105.91 37.5345L106.167 37.6633L105.91 37.5345Z" fill="white"/>
<path d="M106.425 37.4036L106.811 37.7892L106.425 37.4036ZM108.739 37.4036L109.124 37.7892L108.739 37.4036Z" fill="white"/>
<path d="M109.118 37.4036L109.504 37.7892L109.118 37.4036Z" fill="white"/>
<path d="M115.68 37.4036L116.065 37.7892L115.68 37.4036ZM116.836 37.4036L117.222 37.7892L116.836 37.4036Z" fill="white"/>
<path d="M26.9935 37.7893L27.3791 38.1749L26.9935 37.7893Z" fill="white"/>
<path d="M36.2482 37.7893L36.6338 38.1749L36.2482 37.7893Z" fill="white"/>
<path d="M36.6309 37.7893L37.0164 38.1749L36.6309 37.7893ZM44.3427 37.7893L44.7282 38.1749L44.3427 37.7893Z" fill="white"/>
<path d="M44.728 37.7893L45.1136 38.1749L44.728 37.7893ZM53.9822 37.7893L54.3678 38.1749L53.9822 37.7893ZM71.3337 37.7893L71.7193 38.1749L71.3337 37.7893Z" fill="white"/>
<path d="M72.879 37.7893L73.2646 38.1749L72.879 37.7893Z" fill="white"/>
<path d="M108.353 37.7893L108.738 38.1749L108.353 37.7893Z" fill="white"/>
<path d="M115.68 37.7893L116.065 38.1749L115.68 37.7893Z" fill="white"/>
<path d="M116.837 37.7893L117.223 38.1749L116.837 37.7893Z" fill="white"/>
<path d="M27.3763 38.175L27.7619 38.5606L27.3763 38.175Z" fill="white"/>
<path d="M28.5337 38.175L28.9193 38.5606L28.5337 38.175ZM37.6594 38.3035L37.9163 38.4322L37.6594 38.3035Z" fill="white"/>
<path d="M38.1755 38.175L38.5611 38.5606L38.1755 38.175ZM42.8026 38.175L43.1882 38.5606L42.8026 38.175Z" fill="white"/>
<path d="M43.1879 38.175L43.5735 38.5606L43.1879 38.175Z" fill="white"/>
<path d="M43.5707 38.175L43.9563 38.5606L43.5707 38.175Z" fill="white"/>
<path d="M52.4425 38.175L52.8281 38.5606L52.4425 38.175Z" fill="white"/>
<path d="M53.5999 38.175L53.9854 38.5606L53.5999 38.175Z" fill="white"/>
<path d="M71.7217 38.175L72.1073 38.5606L71.7217 38.175ZM73.6496 38.175L74.0352 38.5606L73.6496 38.175Z" fill="white"/>
<path d="M107.195 38.175L107.581 38.5606L107.195 38.175Z" fill="white"/>
<path d="M107.582 38.175L107.968 38.5606L107.582 38.175Z" fill="white"/>
<path d="M115.292 38.175L115.678 38.5606L115.292 38.175Z" fill="white"/>
<path d="M116.445 38.175L116.831 38.5606L116.445 38.175Z" fill="white"/>
<path d="M27.3763 38.5608L27.7619 38.9464L27.3763 38.5608ZM28.9187 38.5608L29.3043 38.9464L28.9187 38.5608ZM39.7152 38.5608V38.9464H41.6432L39.7152 38.5608ZM52.0541 38.5608L52.4397 38.9464L52.0541 38.5608ZM53.5965 38.5608L53.982 38.9464L53.5965 38.5608ZM72.1048 38.5608L72.4904 38.9464L72.1048 38.5608Z" fill="white"/>
<path d="M72.4917 38.5608L72.8773 38.9464L72.4917 38.5608Z" fill="white"/>
<path d="M74.0319 38.5608L74.4175 38.9464L74.0319 38.5608Z" fill="white"/>
<path d="M96.3959 38.5608V38.9464H105.65L96.3959 38.5608Z" fill="white"/>
<path d="M105.91 38.6892L106.167 38.818L105.91 38.6892ZM116.449 38.5608L116.835 38.9464L116.449 38.5608Z" fill="white"/>
<path d="M27.7637 38.9465L28.1493 39.3321L27.7637 38.9465Z" fill="white"/>
<path d="M51.6724 38.9465L52.058 39.3321L51.6724 38.9465Z" fill="white"/>
<path d="M53.2125 38.9465L53.5981 39.3321L53.2125 38.9465Z" fill="white"/>
<path d="M72.879 38.9465L73.2646 39.3321L72.879 38.9465Z" fill="white"/>
<path d="M74.4192 38.9465L74.8048 39.3321L74.4192 38.9465Z" fill="white"/>
<path d="M114.909 38.9465L115.294 39.3321L114.909 38.9465ZM116.065 38.9465L116.451 39.3321L116.065 38.9465ZM28.151 39.3321L28.5366 39.7177L28.151 39.3321ZM29.3078 39.3321L29.6934 39.7177L29.3078 39.3321Z" fill="white"/>
<path d="M51.285 39.3323L51.6706 39.7179L51.285 39.3323Z" fill="white"/>
<path d="M52.8252 39.3323L53.2108 39.7179L52.8252 39.3323ZM73.2615 39.3323L73.647 39.7179L73.2615 39.3323Z" fill="white"/>
<path d="M74.8065 39.3323L75.1921 39.7179L74.8065 39.3323ZM114.522 39.3323L114.908 39.7179L114.522 39.3323Z" fill="white"/>
<path d="M116.065 39.3323L116.451 39.7179L116.065 39.3323ZM28.151 39.7179L28.5366 40.1035L28.151 39.7179Z" fill="white"/>
<path d="M29.6912 39.7181L30.0768 40.1037L29.6912 39.7181Z" fill="white"/>
<path d="M50.8977 39.7181L51.2833 40.1037L50.8977 39.7181Z" fill="white"/>
<path d="M52.4425 39.7181L52.8281 40.1037L52.4425 39.7181ZM73.6499 39.7181L74.0355 40.1037L73.6499 39.7181ZM75.1923 39.7181L75.5779 40.1037L75.1923 39.7181Z" fill="white"/>
<path d="M114.135 39.7181L114.52 40.1037L114.135 39.7181Z" fill="white"/>
<path d="M115.677 39.7181L116.063 40.1037L115.677 39.7181ZM28.5337 40.1037L28.9193 40.4893L28.5337 40.1037ZM30.4616 40.1037L30.8472 40.4893L30.4616 40.1037Z" fill="white"/>
<path d="M50.5104 40.1039L50.896 40.4895L50.5104 40.1039Z" fill="white"/>
<path d="M52.0552 40.1039L52.4408 40.4895L52.0552 40.1039Z" fill="white"/>
<path d="M74.0319 40.1039L74.4175 40.4895L74.0319 40.1039Z" fill="white"/>
<path d="M75.5765 40.1039L75.9621 40.4895L75.5765 40.1039Z" fill="white"/>
<path d="M113.752 40.1039L114.138 40.4895L113.752 40.1039ZM115.294 40.1039L115.68 40.4895L115.294 40.1039Z" fill="white"/>
<path d="M28.921 40.4896L29.3066 40.8752L28.921 40.4896Z" fill="white"/>
<path d="M30.844 40.4896L31.2296 40.8752L30.844 40.4896Z" fill="white"/>
<path d="M49.7404 40.4896L50.1259 40.8752L49.7404 40.4896Z" fill="white"/>
<path d="M50.1277 40.4896L50.5133 40.8752L50.1277 40.4896ZM51.67 40.4896L52.0556 40.8752L51.67 40.4896Z" fill="white"/>
<path d="M74.4192 40.4896L74.8048 40.8752L74.4192 40.4896Z" fill="white"/>
<path d="M75.9594 40.4896L76.3449 40.8752L75.9594 40.4896Z" fill="white"/>
<path d="M112.978 40.4896L113.363 40.8752L112.978 40.4896Z" fill="white"/>
<path d="M113.365 40.4896L113.75 40.8752L113.365 40.4896Z" fill="white"/>
<path d="M114.905 40.4896L115.29 40.8752L114.905 40.4896Z" fill="white"/>
<path d="M29.6912 40.8754L30.0768 41.261L29.6912 40.8754Z" fill="white"/>
<path d="M31.6232 40.8754L32.0088 41.261L31.6232 40.8754Z" fill="white"/>
<path d="M48.9703 40.8754L49.3559 41.261L48.9703 40.8754Z" fill="white"/>
<path d="M49.3575 40.8754L49.7431 41.261L49.3575 40.8754Z" fill="white"/>
<path d="M51.285 40.8754L51.6706 41.261L51.285 40.8754Z" fill="white"/>
<path d="M74.8065 40.8754L75.1921 41.261L74.8065 40.8754Z" fill="white"/>
<path d="M76.3467 40.8754L76.7323 41.261L76.3467 40.8754Z" fill="white"/>
<path d="M76.7339 40.8754L77.1195 41.261L76.7339 40.8754Z" fill="white"/>
<path d="M112.595 40.8754L112.98 41.261L112.595 40.8754ZM114.523 40.8754L114.908 41.261L114.523 40.8754ZM30.0784 41.261L30.464 41.6465L30.0784 41.261ZM32.3919 41.261L32.7775 41.6465L32.3919 41.261Z" fill="white"/>
<path d="M32.776 41.2611L33.1616 41.6467L32.776 41.2611Z" fill="white"/>
<path d="M48.1957 41.2611L48.5813 41.6467L48.1957 41.2611Z" fill="white"/>
<path d="M48.583 41.2611L48.9686 41.6467L48.583 41.2611Z" fill="white"/>
<path d="M50.8977 41.2611L51.2833 41.6467L50.8977 41.2611ZM75.1899 41.2611L75.961 42.0323L75.1899 41.2611Z" fill="white"/>
<path d="M75.5765 41.2611L75.9621 41.6467L75.5765 41.2611Z" fill="white"/>
<path d="M77.1167 41.2611L77.5023 41.6467L77.1167 41.2611ZM111.434 41.2611L111.82 41.6467L111.434 41.2611Z" fill="white"/>
<path d="M111.82 41.2611L112.206 41.6467L111.82 41.2611Z" fill="white"/>
<path d="M114.134 41.2611L114.52 41.6467L114.134 41.2611ZM30.4612 41.6467L30.8468 42.0323L30.4612 41.6467Z" fill="white"/>
<path d="M30.844 41.6469L31.2296 42.0324L30.844 41.6469ZM33.1575 41.6469L33.5431 42.0324L33.1575 41.6469Z" fill="white"/>
<path d="M33.546 41.6469L33.9316 42.0324L33.546 41.6469Z" fill="white"/>
<path d="M33.9333 41.6469L34.3189 42.0324L33.9333 41.6469Z" fill="white"/>
<path d="M47.0428 41.6469L47.4284 42.0324L47.0428 41.6469Z" fill="white"/>
<path d="M47.4302 41.6469L47.8158 42.0324L47.4302 41.6469Z" fill="white"/>
<path d="M50.1277 41.6469L50.5133 42.0324L50.1277 41.6469Z" fill="white"/>
<path d="M75.9594 41.6469L76.3449 42.0324L75.9594 41.6469Z" fill="white"/>
<path d="M77.504 41.6469L77.8896 42.0324L77.504 41.6469ZM110.279 41.6469L110.665 42.0324L110.279 41.6469Z" fill="white"/>
<path d="M110.663 41.6469L111.048 42.0324L110.663 41.6469Z" fill="white"/>
<path d="M111.05 41.6469L111.436 42.0324L111.05 41.6469Z" fill="white"/>
<path d="M113.365 41.6469L113.75 42.0324L113.365 41.6469Z" fill="white"/>
<path d="M31.2312 42.0326L31.6168 42.4182L31.2312 42.0326Z" fill="white"/>
<path d="M31.6232 42.0326L32.0088 42.4182L31.6232 42.0326ZM34.7079 42.0326L35.0935 42.4182L34.7079 42.0326Z" fill="white"/>
<path d="M35.0862 42.0326L35.4718 42.4182L35.0862 42.0326Z" fill="white"/>
<path d="M35.4735 42.0326L35.8591 42.4182L35.4735 42.0326ZM45.1133 42.0326L45.4988 42.4182L45.1133 42.0326Z" fill="white"/>
<path d="M45.7533 42.1564L46.0101 42.2852L45.7533 42.1564Z" fill="white"/>
<path d="M46.2727 42.0326L46.6583 42.4182L46.2727 42.0326Z" fill="white"/>
<path d="M49.3575 42.0326L49.7431 42.4182L49.3575 42.0326Z" fill="white"/>
<path d="M76.3467 42.0326L76.7323 42.4182L76.3467 42.0326Z" fill="white"/>
<path d="M77.8914 42.0326L78.2769 42.4182L77.8914 42.0326Z" fill="white"/>
<path d="M108.225 42.1564L108.482 42.2852L108.225 42.1564Z" fill="white"/>
<path d="M108.995 42.1564L109.252 42.2852L108.995 42.1564Z" fill="white"/>
<path d="M109.508 42.0326L109.894 42.4182L109.508 42.0326ZM112.593 42.0326L112.978 42.4182L112.593 42.0326ZM1.15735 42.4182V42.8038H6.9412L1.15735 42.4182Z" fill="white"/>
<path d="M32.0013 42.4183L32.3869 42.8039L32.0013 42.4183Z" fill="white"/>
<path d="M32.3887 42.4183L32.7743 42.8039L32.3887 42.4183Z" fill="white"/>
<path d="M36.5078 42.5421L36.7646 42.6709L36.5078 42.5421Z" fill="white"/>
<path d="M37.0182 42.4183V42.8039H38.175L37.0182 42.4183Z" fill="white"/>
<path d="M38.1755 42.4183V42.8039H40.1035L38.1755 42.4183ZM40.4891 42.4183V42.8039H42.8026L40.4891 42.4183Z" fill="white"/>
<path d="M43.0558 42.5421L43.3126 42.6709L43.0558 42.5421Z" fill="white"/>
<path d="M43.8303 42.5467L44.0871 42.6755L43.8303 42.5467ZM48.2002 42.4183L48.5858 42.8039L48.2002 42.4183Z" fill="white"/>
<path d="M48.583 42.4183L48.9686 42.8039L48.583 42.4183Z" fill="white"/>
<path d="M59.3822 42.4108V42.7964H65.166L59.3822 42.4108ZM76.7337 42.4108L77.1193 42.7964L76.7337 42.4108ZM90.615 42.4108V42.7964H106.424C102.279 41.057 95.1248 42.4108 90.615 42.4108ZM111.437 42.4108L111.822 42.7964L111.437 42.4108Z" fill="white"/>
<path d="M111.82 42.4183L112.206 42.8039L111.82 42.4183Z" fill="white"/>
<path d="M33.1587 42.7968L33.5443 43.1823L33.1587 42.7968Z" fill="white"/>
<path d="M33.546 42.7968L33.9316 43.1823L33.546 42.7968Z" fill="white"/>
<path d="M33.9333 42.7968L34.3189 43.1823L33.9333 42.7968ZM46.6578 42.7968L47.0434 43.1823L46.6578 42.7968Z" fill="white"/>
<path d="M47.0428 42.7968L47.4284 43.1823L47.0428 42.7968Z" fill="white"/>
<path d="M47.4302 42.7968L47.8158 43.1823L47.4302 42.7968Z" fill="white"/>
<path d="M77.1167 42.7968L77.5023 43.1823L77.1167 42.7968Z" fill="white"/>
<path d="M110.28 42.7968L110.666 43.1823L110.28 42.7968Z" fill="white"/>
<path d="M110.663 42.7968L111.048 43.1823L110.663 42.7968Z" fill="white"/>
<path d="M111.05 42.7968L111.436 43.1823L111.05 42.7968ZM34.7034 43.1823L35.089 43.5679L34.7034 43.1823Z" fill="white"/>
<path d="M35.0862 43.1826L35.4718 43.5682L35.0862 43.1826Z" fill="white"/>
<path d="M35.7333 43.311L35.9901 43.4398L35.7333 43.311ZM44.7302 43.1826L45.1158 43.5682L44.7302 43.1826Z" fill="white"/>
<path d="M45.3705 43.3136L45.6273 43.4424L45.3705 43.3136Z" fill="white"/>
<path d="M45.8854 43.1826L46.271 43.5682L45.8854 43.1826Z" fill="white"/>
<path d="M77.504 43.1826L77.8896 43.5682L77.504 43.1826Z" fill="white"/>
<path d="M106.425 43.1826V43.5682H108.353L106.425 43.1826Z" fill="white"/>
<path d="M108.353 43.1826L108.738 43.5682L108.353 43.1826Z" fill="white"/>
<path d="M108.993 43.3136L109.25 43.4424L108.993 43.3136ZM37.2733 43.6992L37.5301 43.828L37.2733 43.6992Z" fill="white"/>
<path d="M37.7883 43.5684V43.9539H42.801L37.7883 43.5684Z" fill="white"/>
<path d="M42.8005 43.5684V43.9539H43.9573L42.8005 43.5684Z" fill="white"/>
</svg>
