<svg width="134" height="73" viewBox="0 0 134 73" fill="none" xmlns="http://www.w3.org/2000/svg">
<g clip-path="url(#clip0_3904_2165)">
<path d="M67.1197 0C69.0973 0.0187155 71.8984 1.09175 74.1848 3.35945C78.1338 7.271 82.0796 11.1888 85.9787 15.1534C88.1585 17.3305 89.3905 20.2801 89.4068 23.3609C89.4232 26.4416 88.2225 29.4042 86.066 31.6043C82.1482 35.6219 78.1806 39.5896 74.163 43.5074C71.9699 45.6696 69.0127 46.8799 65.933 46.8758C62.8533 46.8717 59.8993 45.6536 57.712 43.4856C56.7045 42.5093 55.6938 41.5329 54.7393 40.5036C54.1155 39.8423 53.6632 39.8797 53.0799 40.5223C52.3812 41.2896 51.5982 41.9821 50.8964 42.737C50.3131 43.3608 49.7766 43.4294 49.1995 42.7557C49.0997 42.6371 48.9718 42.5436 48.8689 42.425C47.9082 41.3458 46.177 40.5535 46.0615 39.2372C45.9461 37.9208 47.7241 37.1566 48.6661 36.1553C49.3368 35.441 49.265 34.97 48.6006 34.3524C47.6493 33.4665 46.7291 32.5339 45.8432 31.5981C43.7134 29.4121 42.5215 26.4808 42.5215 23.4288C42.5215 20.3768 43.7134 17.4454 45.8432 15.2594C49.7641 11.2418 53.7536 7.29595 57.7432 3.35009C59.9703 1.13854 62.8088 0.0155963 67.1197 0ZM83.0716 23.4381C83.0689 22.6833 82.9171 21.9365 82.6248 21.2406C82.3325 20.5447 81.9055 19.9134 81.3684 19.3831C77.591 15.5963 73.8292 11.7939 70.0143 8.04146C67.6406 5.70825 64.2843 5.69577 61.9043 8.02273C58.0905 11.7658 54.3089 15.5474 50.5595 19.3675C48.217 21.7506 48.2107 25.0913 50.5408 27.4776C54.2839 31.2914 58.0665 35.074 61.8887 38.8254C64.2687 41.168 67.6 41.1836 69.9987 38.8473C73.8198 35.1041 77.5785 31.2955 81.356 27.5087C81.8961 26.9768 82.3257 26.3433 82.6201 25.6447C82.9145 24.9461 83.068 24.1962 83.0716 23.4381Z" fill="white"/>
<path d="M30.1434 64.7496C30.1434 66.7771 30.1434 68.8046 30.1434 70.8259C30.1434 72.6008 29.1733 73.3026 27.5794 72.4979C26.8838 72.1454 26.4596 72.292 25.8763 72.4979C23.1812 73.4804 20.533 72.6694 18.8205 70.3643C18.0418 69.3137 17.613 68.0451 17.5945 66.7376C17.576 65.4301 17.9689 64.1498 18.7176 63.0777C20.2772 60.8162 23.1282 59.765 25.7328 60.7788C27.2175 61.3559 27.2924 60.7788 27.2238 59.6309C27.1895 59.1661 27.2487 58.6951 27.2238 58.2304C27.1458 57.1074 27.7478 56.7955 28.7553 56.808C29.7628 56.8205 30.2276 57.1916 30.1527 58.1992C30.1527 58.3021 30.1527 58.4082 30.1527 58.5111L30.1434 64.7496ZM23.8737 69.8808C25.7234 69.9151 27.0273 68.6986 27.1021 66.8769C27.177 64.9368 25.8076 63.4458 23.9454 63.4146C22.0832 63.3834 20.7669 64.7278 20.7513 66.6336C20.7232 68.6175 21.9179 69.8465 23.8737 69.8808Z" fill="white"/>
<path d="M49.1497 66.6929C49.1497 68.0904 49.1715 69.5003 49.1497 70.8915C49.1497 71.481 49.3711 72.2452 48.6319 72.5384C47.8926 72.8316 47.0067 72.9876 46.4484 72.3294C45.9867 71.7742 45.7559 72.0175 45.3255 72.2421C43.8883 72.9465 42.2316 73.0566 40.7138 72.5487C39.196 72.0409 37.9392 70.9558 37.2154 69.5284C35.6963 66.5089 36.838 62.6972 39.7108 61.1438C40.734 60.6286 41.8777 60.4001 43.0203 60.4825C44.5644 60.5231 45.993 61.6834 47.6992 60.6572C48.4821 60.1862 49.1996 60.9317 49.1684 62.0265C49.1091 63.5799 49.1466 65.1364 49.1497 66.6929ZM42.7645 63.4177C41.9294 63.4257 41.1292 63.7536 40.5286 64.3339C39.928 64.9142 39.5728 65.7027 39.5361 66.537C39.5336 67.3954 39.8629 68.2216 40.4553 68.843C41.0476 69.4644 41.8571 69.8328 42.7146 69.8715C43.5684 69.8781 44.3898 69.5453 44.9982 68.9463C45.6066 68.3473 45.9521 67.5311 45.9587 66.6773C45.9653 65.8236 45.6325 65.0022 45.0335 64.3938C44.4345 63.7854 43.6183 63.4399 42.7645 63.4333V63.4177Z" fill="white"/>
<path d="M58.5093 56.7238C61.8812 56.6458 64.3673 57.9714 65.7616 60.8661C67.1559 63.7608 67.212 66.827 65.197 69.5689C64.386 70.6731 64.701 70.9881 65.8489 71.1035C66.4104 71.1566 66.9032 71.2969 66.8564 72.0081C66.8128 72.632 66.2544 72.9221 65.8739 72.7162C63.3972 71.3718 61.0702 72.9002 58.6746 72.9564C54.3077 73.0624 50.6394 69.2133 50.6332 64.7153C50.6301 60.7351 54.133 56.337 58.5093 56.7238ZM52.5827 64.7402C52.3924 65.9037 52.7824 66.5432 54.2609 65.9037C54.5667 65.827 54.8814 65.7913 55.1967 65.7977C58.0508 65.4421 60.1875 66.7896 62.112 68.6736C62.5768 69.129 62.9324 69.5876 63.5719 68.7641C65.1097 66.7865 65.3124 63.4177 63.915 61.2935C62.3304 58.8854 59.6697 57.8623 57.0277 58.6203C54.3856 59.3782 52.6233 61.7208 52.5889 64.7402H52.5827ZM58.5093 71.141C59.1799 71.1191 59.8599 71.169 60.5056 70.9008C60.9766 70.7043 61.1295 70.461 60.8175 69.965C59.7476 68.2806 56.5067 67.036 54.579 67.5975C53.6089 67.8782 53.3875 68.3336 54.1361 69.1134C55.3464 70.3518 56.7189 71.1784 58.5124 71.141H58.5093Z" fill="white"/>
<path d="M5.44145 66.6367C5.44145 65.1831 5.44145 63.7264 5.44145 62.2698C5.44145 61.6459 5.34787 60.9285 6.13704 60.7101C6.83264 60.5167 7.74035 60.2922 8.17705 60.9316C8.61374 61.571 8.85081 61.2934 9.27191 61.0969C12.6033 59.5373 15.7381 61.2747 15.9939 64.9211C16.1499 67.1046 16.0313 69.2881 16.0532 71.4716C16.0532 72.4417 15.5167 72.7193 14.662 72.7193C13.8073 72.7193 13.1647 72.5196 13.1367 71.4373C13.0899 69.469 13.3082 67.4914 12.9277 65.5294C12.6844 64.2817 12.2071 63.3802 10.7224 63.4301C9.29685 63.4769 8.76346 64.3004 8.53887 65.5886C8.22695 67.4602 8.30494 69.3318 8.31117 71.1877C8.31117 72.2108 7.99924 72.7473 6.88255 72.7224C5.76585 72.6974 5.41961 72.1703 5.43209 71.1628C5.47264 69.6499 5.45705 68.1433 5.44145 66.6367Z" fill="white"/>
<path d="M109.855 67.2014C108.557 67.2014 107.256 67.2295 105.959 67.2014C104.78 67.1702 104.645 67.6849 105.048 68.655C106.211 71.4623 110.123 72.1329 112.194 69.8621C112.44 69.5309 112.71 69.2181 113.002 68.9263C113.192 68.7428 113.441 68.6315 113.704 68.6116C113.968 68.5916 114.23 68.6643 114.446 68.8172C114.942 69.2227 114.446 69.6843 114.234 70.0493C113.516 71.2374 112.411 72.143 111.105 72.6147C109.8 73.0865 108.372 73.0959 107.06 72.6414C104.415 71.7555 102.609 68.8452 102.942 66.0067C103.31 62.8874 105.382 60.7539 108.329 60.4856C111.851 60.1737 114.568 62.2355 115.151 65.6449C115.335 66.7085 115.061 67.2357 113.903 67.2045C112.553 67.1764 111.202 67.2045 109.848 67.2045L109.855 67.2014ZM108.919 65.7821C110.004 65.7821 111.102 65.7821 112.178 65.7821C113.08 65.8008 113.242 65.4484 112.915 64.6374C112.241 62.9779 110.996 62.142 109.025 62.142C107.053 62.142 105.778 62.9685 105.116 64.6062C104.804 65.361 104.858 65.7977 105.815 65.7759C106.844 65.7634 107.88 65.7821 108.913 65.7821H108.919Z" fill="white"/>
<path d="M79.9213 66.5837C79.9213 63.1526 82.632 60.2953 85.8916 60.2672C89.2541 60.2423 92.2175 63.2773 92.1707 66.6992C92.1239 70.0243 89.2947 72.9377 86.0819 73.0001C82.6288 73.0344 79.9057 70.227 79.9213 66.5837ZM90.2461 66.6586C90.2461 63.9137 88.6209 62.1669 86.007 62.1357C83.5833 62.1045 81.6556 64.0852 81.64 66.6243C81.6244 69.1634 83.5397 71.1503 85.9727 71.1472C88.5773 71.1628 90.2367 69.4067 90.2461 66.6586Z" fill="white"/>
<path d="M78.4515 66.643C78.4515 68.2525 78.4515 69.862 78.4515 71.4716C78.4515 72.4073 77.9088 73.0312 77.1133 72.5758C76.3179 72.1204 75.7346 72.4011 74.9954 72.6226C72.082 73.4866 68.7007 72.7224 68.3669 68.3461C68.211 66.2718 68.1267 64.2006 68.1735 62.1076C68.1735 61.4307 68.1735 60.654 69.153 60.6477C70.1324 60.6415 70.0669 61.4494 70.0888 62.1107C70.0888 64.0321 70.0576 65.9567 70.1137 67.8751C70.1823 70.2145 71.1712 71.1784 73.3297 71.1347C75.4196 71.091 76.477 70.0024 76.5238 67.7721C76.5612 65.9006 76.5238 64.029 76.5612 62.1575C76.5612 61.4899 76.502 60.6914 77.497 60.6665C78.492 60.6415 78.4702 61.4182 78.4796 62.1013C78.464 63.6298 78.4515 65.1364 78.4515 66.643Z" fill="white"/>
<path d="M0.023135 64.631C0.023135 62.4475 0.0636831 60.2796 0.00129792 58.1055C-0.0267754 57.1229 0.400558 56.7829 1.28331 56.8266C2.11303 56.8703 3.23598 56.549 3.24533 57.9277C3.27965 62.4818 3.26405 67.039 3.24533 71.5963C3.24533 72.741 2.39064 72.7005 1.59211 72.713C0.731197 72.713 0.0324829 72.5601 0.0324829 71.4653C0.0511984 69.1851 0.0324829 66.908 0.0324829 64.631H0.023135Z" fill="white"/>
<path d="M116.739 66.484C116.739 64.9243 116.702 63.3647 116.739 61.8051C116.779 60.5823 117.428 60.2111 118.252 61.0159C118.791 61.543 119.044 61.2124 119.425 61.044C123.215 59.3845 126.087 61.044 126.599 65.1583C126.855 67.1796 126.724 69.2133 126.749 71.2221C126.749 71.846 126.749 72.5728 125.857 72.5883C124.868 72.6071 124.899 71.8116 124.89 71.1379C124.865 69.2195 124.908 67.2981 124.855 65.3766C124.793 63.1931 123.857 62.2043 121.901 62.1607C119.946 62.117 118.542 63.2992 118.436 65.3517C118.336 67.3199 118.402 69.2975 118.377 71.2783C118.377 71.9021 118.414 72.6382 117.484 72.5977C116.667 72.5603 116.726 71.8771 116.72 71.3126C116.73 69.7155 116.736 68.106 116.739 66.484Z" fill="white"/>
<path d="M94.6262 67.5256C94.6262 66.4869 94.6044 65.4482 94.6262 64.4064C94.6481 63.3645 94.6668 62.3757 93.1727 62.4288C92.6736 62.4475 92.4771 62.0513 92.4583 61.5803C92.4396 61.1093 92.6205 60.6757 93.0822 60.6664C94.5919 60.6383 94.6418 59.6713 94.6231 58.5422C94.6231 57.8715 94.3829 56.9108 95.5027 56.9014C96.6226 56.8921 96.4759 57.8123 96.4666 58.511C96.4666 59.6277 96.4915 60.6133 97.9857 60.6944C98.4598 60.7194 98.6345 61.1686 98.6095 61.6302C98.5846 62.0919 98.3475 62.4599 97.8578 62.4506C96.4541 62.4163 96.4666 63.3458 96.4728 64.3221C96.4915 66.5555 96.4915 68.7879 96.4728 71.0192C96.4728 71.7273 96.5508 72.6225 95.4747 72.6038C94.464 72.5882 94.6294 71.7273 94.6138 71.0847C94.6106 69.915 94.6294 68.7203 94.6262 67.5256Z" fill="white"/>
<path d="M35.1175 66.646C35.1175 68.2057 35.0863 69.7653 35.1175 71.3031C35.1487 72.4198 34.5841 72.7286 33.5828 72.7192C32.5816 72.7099 32.1886 72.2981 32.1979 71.3093C32.2229 68.19 32.2322 65.0989 32.1979 61.9952C32.1979 60.8723 32.7375 60.5697 33.7326 60.5791C34.7276 60.5884 35.1425 60.9939 35.1175 61.989C35.0926 63.5392 35.1175 65.0926 35.1175 66.646Z" fill="white"/>
<path d="M129.842 67.4385C129.842 66.5027 129.842 65.5669 129.842 64.6311C129.858 63.5238 130.036 62.3478 128.317 62.4102C127.893 62.4102 127.73 62.0359 127.693 61.6398C127.665 61.1875 127.783 60.704 128.276 60.704C129.867 60.6541 129.914 59.6216 129.836 58.4488C129.822 58.1355 129.843 57.8216 129.898 57.513C129.92 57.3268 130.015 57.1568 130.161 57.04C130.308 56.9231 130.495 56.8689 130.681 56.8891C130.773 56.8779 130.866 56.8853 130.955 56.9108C131.043 56.9364 131.126 56.9796 131.198 57.0378C131.269 57.0961 131.328 57.1682 131.371 57.2498C131.415 57.3315 131.441 57.421 131.448 57.513C131.51 58.0304 131.531 58.5519 131.511 59.0726C131.467 59.9834 131.711 60.5917 132.759 60.5979C133.411 60.5979 133.857 60.9099 133.822 61.6491C133.791 62.3291 133.326 62.5194 132.749 62.4882C131.648 62.4258 131.502 63.0809 131.502 63.9792C131.526 66.4185 131.502 68.8577 131.502 71.3001C131.502 71.924 131.539 72.6539 130.606 72.6133C129.795 72.5759 129.836 71.9021 129.83 71.3344C129.83 70.0368 129.83 68.7392 129.83 67.4385H129.842Z" fill="white"/>
<path d="M101.262 66.6554C101.262 68.2619 101.262 69.8683 101.262 71.4747C101.262 72.0112 101.218 72.5727 100.507 72.6132C99.6958 72.66 99.6053 72.0642 99.6053 71.4622C99.6053 68.2494 99.6053 65.0355 99.6053 61.8206C99.6053 61.2872 99.6552 60.7257 100.366 60.6852C101.174 60.6415 101.262 61.2248 101.265 61.8362C101.265 63.4426 101.262 65.049 101.262 66.6554Z" fill="white"/>
<path d="M60.2047 32.8708C59.6966 32.8816 59.1916 32.7908 58.7191 32.6037C58.2467 32.4167 57.8164 32.1371 57.4535 31.7815C57.0905 31.4258 56.8023 31.0012 56.6058 30.5326C56.4092 30.0641 56.3082 29.561 56.3087 29.0528C56.3339 28.0429 56.752 27.0827 57.474 26.3762C58.1961 25.6696 59.1652 25.2726 60.1754 25.2693C61.1856 25.2661 62.1572 25.6569 62.8838 26.3588C63.6104 27.0606 64.0346 28.0182 64.0663 29.0279C64.0766 29.5369 63.9836 30.0428 63.7929 30.5149C63.6023 30.9871 63.3179 31.4156 62.957 31.7748C62.596 32.134 62.1661 32.4163 61.693 32.6046C61.22 32.793 60.7137 32.8835 60.2047 32.8708Z" fill="white"/>
</g>
<defs>
<clipPath id="clip0_3904_2165">
<rect width="133.85" height="73" fill="white"/>
</clipPath>
</defs>
</svg>
