<svg width="220" height="45" viewBox="0 0 220 45" fill="none" xmlns="http://www.w3.org/2000/svg">
<g clip-path="url(#clip0_3904_1841)">
<mask id="mask0_3904_1841" style="mask-type:alpha" maskUnits="userSpaceOnUse" x="0" y="-1" width="220" height="46">
<path d="M99.4701 0.413534L91.8437 1.0002L98.9812 7.06242C102.892 10.2891 108.075 14.7869 110.519 17.0358C112.963 19.1869 115.212 21.0447 115.701 21.0447C116.092 21.0447 116.386 21.6314 116.386 22.3158C116.386 23.3914 111.008 28.1825 93.7993 42.458L91.4526 44.4136L102.892 44.5113H114.332L121.079 38.6447C124.892 35.418 128.217 32.778 128.608 32.778C128.999 32.778 132.03 35.1247 135.257 38.058C138.581 40.8936 142.199 43.7291 143.275 44.218C144.937 45.0002 164.101 45.098 164.883 44.3158C164.981 44.1202 162.243 41.578 158.723 38.6447C155.301 35.7113 151.195 32.2891 149.826 31.018C148.359 29.7469 145.719 27.5958 144.057 26.2269C142.297 24.858 140.83 23.2936 140.928 22.6091C140.928 22.0225 144.546 18.5025 148.946 14.8847C153.346 11.1691 158.919 6.47576 161.363 4.32464L165.763 0.511314H154.421H143.177L136.332 6.37798C132.617 9.50687 129.195 12.1469 128.803 12.2447C128.315 12.2447 124.697 9.60464 120.786 6.37798C112.866 -0.270911 111.692 -0.564244 99.4701 0.413534Z" fill="black"/>
<path d="M5.21098 8.0392C0.908753 8.82142 -1.63346 16.057 1.20209 18.8926C1.88654 19.577 4.03765 20.0659 5.9932 20.0659C11.0777 20.0659 14.6955 21.6304 14.6955 23.7815C14.6955 26.8126 12.5443 27.8881 6.67765 27.8881C0.810975 27.8881 -0.949025 29.3548 3.54876 30.4304C7.55765 31.5059 14.891 30.2348 16.3577 28.2792C18.2155 25.8348 17.9221 21.6304 15.8688 19.7726C14.891 18.7948 12.4466 18.1104 10.3932 18.1104C5.79765 18.1104 2.96209 16.6437 2.96209 14.297C2.96209 11.1681 5.50431 9.9948 11.2732 10.4837C17.531 10.9726 18.9977 9.01698 13.0332 7.94142C9.12209 7.35476 8.73098 7.35476 5.21098 8.0392Z" fill="black"/>
<path d="M216.119 11.7557C216.119 15.1779 216.119 15.1779 211.915 15.1779C206.537 15.1779 204.386 17.329 204.386 22.609C204.386 24.6623 204.777 26.9112 205.168 27.4979C207.026 30.3335 213.577 31.7023 217.488 30.2357C219.737 29.3557 219.835 8.3335 217.586 8.3335C216.608 8.3335 216.119 9.40905 216.119 11.7557ZM215.924 22.7068L216.217 27.889H212.99C209.079 27.889 207.319 26.4223 207.319 23.1957C207.319 18.9912 209.079 17.0357 212.502 17.329C215.533 17.6223 215.63 17.8179 215.924 22.7068Z" fill="black"/>
<path d="M20.5637 19.1875C20.5637 28.5742 21.5415 30.8231 25.4526 30.8231C29.0704 30.8231 29.2659 29.552 25.9415 28.0853C23.7904 27.1075 23.4971 26.3253 23.4971 22.0231C23.4971 17.4275 23.6926 17.1342 25.9415 17.1342C27.4082 17.1342 28.3859 16.5475 28.3859 15.7653C28.3859 14.8853 27.7015 14.4942 26.4304 14.6898C25.2571 14.8853 24.0837 14.2986 23.4971 13.1253C21.4437 9.40979 20.5637 11.3653 20.5637 19.1875Z" fill="black"/>
<path d="M58.6971 20.4587C58.6971 30.1387 58.9904 30.8231 63.6837 30.8231C66.1282 30.8231 66.0304 29.1609 63.586 28.3787C61.9237 27.8898 61.6304 26.912 61.6304 22.4142C61.6304 17.8187 61.826 17.1342 63.586 17.1342C66.3237 17.1342 66.0304 15.3742 63.0971 14.592C61.7282 14.2987 60.6526 13.4187 60.6526 12.6365C60.6526 11.8542 60.2615 11.2676 59.6749 11.2676C59.0882 11.2676 58.6971 14.9831 58.6971 20.4587Z" fill="black"/>
<path d="M89.7904 14.9832L87.0526 15.2765V26.521C87.0526 35.5165 87.3459 37.6676 88.4215 37.6676C89.3993 37.6676 89.986 36.3965 90.1815 33.9521C90.4748 30.4321 90.5726 30.3343 94.0926 30.6276C98.9812 31.1165 102.697 27.5965 102.697 22.5121C102.697 18.7965 99.959 15.2765 97.1237 15.081C96.1459 15.081 94.6793 14.9832 93.8971 14.7876C93.1148 14.6898 91.2571 14.7876 89.7904 14.9832ZM98.199 18.6987C100.35 20.7521 100.155 24.5654 97.8079 26.9121C95.5593 29.161 94.5815 29.2587 91.8437 27.8898C90.3771 27.1076 89.9859 25.7387 89.9859 22.0232V17.1343H93.3104C95.1682 17.1343 97.4171 17.8187 98.199 18.6987Z" fill="black"/>
<path d="M156.472 15.4718C153.441 17.0363 152.659 20.9474 155.103 22.7074C156.081 23.3918 158.33 23.9785 160.09 23.9785C162.241 23.9785 163.61 24.5652 164.001 25.5429C164.881 27.7918 162.437 29.0629 158.134 28.3785C155.299 27.9874 154.419 28.1829 154.712 29.0629C155.299 30.7252 162.632 31.2141 165.272 29.8452C166.739 29.0629 167.228 27.9874 167.032 26.2274C166.739 23.2941 165.272 22.4141 160.188 21.5341C157.939 21.1429 156.472 20.4585 156.472 19.5785C156.472 17.5252 159.406 16.3518 163.121 16.8407C166.641 17.4274 167.423 15.7652 164.099 14.7874C160.774 13.9074 159.21 14.1029 156.472 15.4718Z" fill="black"/>
<path d="M172.902 15.6676C169.675 17.4276 168.599 20.9476 169.871 25.2498C170.946 28.9654 174.075 30.8232 179.746 30.8232C182.875 30.8232 183.853 30.4321 183.853 29.2587C183.853 27.9876 183.168 27.7921 180.919 28.281C177.302 28.9654 173.097 27.4987 173.097 25.5432C173.097 24.4676 174.564 23.9787 178.768 23.7832C184.244 23.4898 184.342 23.4898 184.146 20.6543C184.048 19.0898 183.364 17.2321 182.679 16.4498C180.626 14.4943 175.835 14.0054 172.902 15.6676ZM180.822 18.9921C182.191 21.3387 181.311 22.0232 177.008 22.0232C172.706 22.0232 171.826 21.3387 173.195 18.9921C173.782 17.8187 175.248 17.1343 177.008 17.1343C178.768 17.1343 180.235 17.8187 180.822 18.9921Z" fill="black"/>
<path d="M190.99 15.1747C186.688 16.9347 185.319 23.9746 188.546 27.8858C190.892 30.8191 200.475 31.9924 200.475 29.3524C200.475 28.0813 199.888 27.8858 197.541 28.3746C195.488 28.8635 193.728 28.5702 192.164 27.4946C188.35 24.9524 189.328 23.9746 195.586 23.9746H201.452V20.6502C201.452 18.8902 200.866 16.9346 200.279 16.348C198.324 14.8813 193.337 14.1969 190.99 15.1747ZM198.324 19.9658C198.617 21.7258 198.226 22.0191 194.706 22.0191C190.012 22.0191 189.035 20.748 191.577 18.2058C194.021 15.7613 197.835 16.7391 198.324 19.9658Z" fill="black"/>
<path d="M31.3193 16.0565C31.3193 16.6432 33.3726 17.132 36.0126 17.3276C39.9237 17.6209 40.6082 17.9143 40.9015 19.772C41.1948 21.8254 40.8037 22.0209 37.3815 22.0209C31.7104 22.0209 30.3415 22.8032 30.3415 26.0298C30.3415 29.5498 32.3948 30.7232 38.9459 30.5276C42.857 30.332 44.2259 29.9409 44.617 28.6698C45.3015 26.4209 44.0304 18.012 42.857 16.3498C41.6837 14.9809 31.3193 14.6876 31.3193 16.0565ZM41.097 25.3454C41.097 28.7676 34.8393 30.5276 33.6659 27.3987C32.5904 24.6609 34.057 22.9987 37.6748 22.9987C40.6082 22.9987 41.097 23.292 41.097 25.3454Z" fill="black"/>
<path d="M48.9193 23.1965C48.9193 29.3565 49.2126 30.8232 50.386 30.8232C51.5593 30.8232 51.8526 29.4543 51.8526 24.5654C51.8526 19.0898 52.146 18.112 53.8082 17.6232C56.8393 16.6454 56.0571 15.5698 52.3415 15.5698H48.9193V23.1965Z" fill="black"/>
<path d="M68.4749 21.4365C68.4749 30.0409 70.626 32.192 76.8837 29.8454C78.7415 29.0632 79.8171 29.0632 80.5993 29.8454C82.6526 31.8987 83.1415 30.6276 83.1415 23.0009C83.1415 16.7432 82.8482 15.1787 81.6749 15.1787C80.5015 15.1787 80.2082 16.4498 80.2082 20.9476C80.2082 26.5209 80.1104 26.7165 77.1771 27.792C72.6793 29.3565 71.4082 27.8898 71.4082 20.9476C71.4082 16.4498 71.1149 15.1787 69.9415 15.1787C68.7682 15.1787 68.4749 16.5476 68.4749 21.4365Z" fill="black"/>
</mask>
<g mask="url(#mask0_3904_1841)">
<path d="M233.69 -15.6443H-14.6656V63.5557H233.69V-15.6443Z" fill="white"/>
</g>
</g>
<defs>
<clipPath id="clip0_3904_1841">
<rect width="220" height="44.9778" fill="white"/>
</clipPath>
</defs>
</svg>
