<svg width="211" height="61" viewBox="0 0 211 61" fill="none" xmlns="http://www.w3.org/2000/svg">
<g clip-path="url(#clip0_3904_1818)">
<mask id="mask0_3904_1818" style="mask-type:alpha" maskUnits="userSpaceOnUse" x="-1" y="0" width="212" height="60">
<path d="M38.3443 0.406901C37.944 0.620397 37.5437 1.07409 37.4636 1.39433C37.3835 1.71458 36.7163 6.06464 35.9691 11.0552C35.2485 16.0457 33.9675 24.3188 33.1669 29.4696C31.5657 39.7976 31.4856 40.785 32.2062 41.4255C32.9267 42.0927 33.1936 42.0126 34.8749 40.705C37.944 38.3565 42.6143 35.3942 45.2029 34.1399C51.9015 30.884 56.2515 30.4303 60.7617 32.5386C62.2295 33.2325 63.0835 33.8997 65.6188 36.515C67.3001 38.2764 69.0882 39.8776 69.5685 40.1445C70.6894 40.6783 72.3974 40.5982 72.5041 39.9577C72.6109 39.3439 68.7946 34.8871 66.3927 32.8855C64.231 31.0441 61.5089 29.5763 59.2138 29.0426C57.0788 28.5088 53.1024 28.6156 50.407 29.2827C46.0036 30.3502 41.1198 32.8589 37.0099 36.1948C35.3553 37.5292 34.9283 37.7693 34.9283 37.3423C34.9283 35.9279 36.1559 27.5214 37.4636 19.9955C39.305 9.21375 40.3992 1.66121 40.2925 0.300148C40.2658 -0.126846 39.225 -0.100161 38.3443 0.406901Z" fill="black"/>
<path d="M134.656 13.055C134.176 13.4553 133.722 14.3627 133.108 16.2308L132.228 18.8728L131.027 19.033C130.36 19.113 126.383 19.3532 122.193 19.5934C113.707 20.0471 110.558 20.3673 109.97 20.8477C109.624 21.1413 109.677 21.2213 110.211 21.3548C111.198 21.6483 117.363 21.595 124.675 21.248C128.331 21.0612 131.347 20.9545 131.374 20.9811C131.4 21.0078 130.84 22.8226 130.119 24.9843C126.517 35.8995 126.383 41.9308 129.719 43.6388C131.721 44.6796 135.831 43.8256 139.513 41.6372C141.809 40.2762 145.118 37.8476 147.066 36.0596L148.56 34.6718L148.534 36.0329C148.48 37.2338 148.56 37.474 149.281 38.0611C150.028 38.7283 150.135 38.7283 152.884 38.5949C155.926 38.4348 158.515 37.7943 160.943 36.5933L162.491 35.8461L162.758 36.7001C163.132 37.8209 163.666 38.2479 164.466 38.0344C165.347 37.8209 165.454 37.4206 165.133 34.7519C164.786 31.5761 164.466 30.6687 163.746 30.6687C162.838 30.6687 162.491 31.0157 162.118 32.2967C161.824 33.2841 161.557 33.6043 160.356 34.3249C158.034 35.7393 154.565 36.7268 152.43 36.5666C151.336 36.5133 151.176 35.6059 152.003 34.1114C153.044 32.1899 155.419 30.0816 158.088 28.7739C160.036 27.8132 160.65 27.6264 162.438 27.5463C164.306 27.4395 164.653 27.4929 166.067 28.2135C167.775 29.0675 168.443 29.0408 169.11 28.0534C169.43 27.5463 169.377 27.4129 168.496 26.4254C167.082 24.8775 165.694 24.4238 162.812 24.5839C158.675 24.8241 155.659 26.4254 148.08 32.4034C139.593 39.1019 136.311 41.0768 133.375 41.2903C132.014 41.3971 131.801 41.3437 130.973 40.5964C130.146 39.8759 130.066 39.6624 129.986 37.9277C129.906 36.8068 130.066 35.1522 130.333 33.8178C130.84 31.2558 134.123 21.0612 134.576 20.6342C134.736 20.4741 138.526 20.0204 143.276 19.6201C171.859 17.1648 189.979 15.3501 190.273 14.8697C190.486 14.5495 190.3 13.8556 190.006 13.8556C188.912 13.8556 173.94 15.19 164.226 16.124C152.724 17.2716 135.27 18.7394 135.11 18.606C135.083 18.5526 135.404 17.5118 135.831 16.2575C136.791 13.3752 136.845 12.5212 135.964 12.5212C135.617 12.5212 135.03 12.7614 134.656 13.055Z" fill="black"/>
<path d="M74.2944 13.9635C73.5205 15.1644 73.4938 16.3387 74.2411 17.2194C74.8015 17.8599 75.015 17.9399 75.4153 17.6997C76.0825 17.2994 76.2159 14.8709 75.6288 13.9635C75.095 13.1629 74.8282 13.1629 74.2944 13.9635Z" fill="black"/>
<path d="M77.3594 15.1643C76.7189 16.3652 77.2527 18.6603 78.1601 18.6603C78.5604 18.6603 79.4944 17.2726 79.4944 16.6588C79.4944 15.9382 78.5337 14.6572 78.0266 14.6572C77.8131 14.6572 77.5196 14.8974 77.3594 15.1643Z" fill="black"/>
<path d="M71.6213 17.4317C71.0875 18.7127 71.1142 19.62 71.7547 20.2605C72.4219 20.9277 72.6888 20.9277 73.3826 20.2338C73.9965 19.62 73.9164 18.8461 73.1425 17.485C72.4753 16.3642 72.075 16.3375 71.6213 17.4317Z" fill="black"/>
<path d="M79.3888 18.4474C78.8551 19.2213 78.8551 20.102 79.3888 20.6358C80.2695 21.5431 81.337 20.8226 81.3637 19.3014C81.3637 17.8603 80.1628 17.3532 79.3888 18.4474Z" fill="black"/>
<path d="M74.8804 19.4872C74.6402 19.6206 74.2399 20.101 74.0264 20.528C73.8129 20.955 73.3326 21.5955 72.9589 21.9691C72.1316 22.7964 72.0783 24.0507 72.8255 25.2517C73.3592 26.159 74.0798 26.3725 74.6402 25.8121C74.9071 25.5452 75.0939 25.5452 75.4942 25.8121C76.2148 26.2391 76.962 26.2124 77.389 25.7053C77.6826 25.3317 77.736 25.3317 77.9495 25.7053C78.3498 26.3992 79.2038 26.1857 79.7642 25.2517C80.7783 23.6237 80.7517 23.2501 79.4707 21.9958C78.8302 21.382 78.0562 20.528 77.7627 20.1277C77.1489 19.3271 75.7077 19.0068 74.8804 19.4872Z" fill="black"/>
<path d="M180.03 23.57C177.521 24.2372 175.093 26.6657 173.919 29.6013C173.145 31.5494 173.091 35.1522 173.812 36.54C175.52 39.8225 178.349 40.9701 183.953 40.7299C189.477 40.4897 195.455 38.6216 203.195 34.6719C208.826 31.8163 210.8 30.5353 210.8 29.708C210.8 29.0675 210.747 29.0942 207.812 30.562C198.898 35.0188 190.331 37.9277 184.94 38.3014C179.736 38.675 176.534 36.6734 176.16 32.8038C176.107 32.1099 176.187 31.0958 176.374 30.5353C176.641 29.708 176.801 29.5746 177.281 29.7347C181.204 30.8823 185.447 29.0675 185.447 26.2121C185.447 23.6767 183.393 22.6626 180.03 23.57ZM182.112 26.0252C182.672 26.5857 182.512 26.9859 181.604 27.4129C180.75 27.8399 178.936 27.6264 179.123 27.1193C179.256 26.719 180.884 25.5982 181.338 25.5982C181.524 25.5982 181.871 25.7851 182.112 26.0252Z" fill="black"/>
<path d="M116.19 24.7173C114.775 25.0642 112 26.3185 110.345 27.386L108.504 28.5869L106.742 27.7596C103.967 26.4787 101.699 26.0517 98.4427 26.2118C93.7724 26.4253 90.4364 27.8663 87.2339 31.0421C86.3533 31.9228 85.606 32.59 85.5526 32.5099C85.4993 32.4566 85.179 31.7093 84.8588 30.882C84.1649 29.174 83.471 28.4001 82.8038 28.6403C82.4569 28.7737 82.4035 29.0406 82.537 29.948C82.617 30.5618 82.8305 32.163 83.0173 33.4974L83.3376 35.9259L82.5903 36.8867C80.6155 39.4487 80.8823 42.6778 83.0974 43.1048C85.3391 43.5051 87.0204 40.7563 86.4333 37.6072C86.2198 36.433 86.2465 36.0861 86.7269 35.152C88.0346 32.6167 91.9042 30.0814 95.934 29.2007C98.7095 28.5602 103.033 28.747 105.195 29.5743C106.022 29.9213 106.716 30.2415 106.716 30.3216C106.716 30.4016 106.315 31.0154 105.808 31.7093C103.246 35.2321 102.98 37.4471 105.034 38.3278C107.143 39.2085 112.854 38.3011 116.35 36.5397C117.604 35.8992 117.924 35.8192 117.924 36.1394C117.924 37.0468 118.725 38.141 119.392 38.141C120.22 38.141 120.593 37.4471 120.593 35.8192C120.593 34.3781 119.953 31.5759 119.472 31.0154C118.752 30.1348 117.658 30.9354 117.658 32.3498C117.658 33.2038 116.43 34.2446 114.188 35.2854C112.854 35.9259 112 36.1394 110.292 36.2195C106.849 36.4063 106.209 35.6591 107.81 33.2305C108.931 31.5492 111.199 29.7344 113.654 28.5602C115.469 27.6795 115.87 27.5995 117.924 27.5995C120.14 27.5995 121.18 27.893 122.541 28.8538C122.915 29.1473 123.128 29.1206 123.742 28.8004C125.237 27.9464 124.543 26.4253 122.141 25.2244C120.993 24.6372 120.406 24.5305 118.752 24.5572C117.631 24.5839 116.483 24.6372 116.19 24.7173Z" fill="black"/>
<path d="M15.6053 25.358C10.4013 26.1052 6.18465 28.16 2.92878 31.4693C0.340106 34.0846 -0.620641 36.9669 0.39348 39.0752C1.6211 41.6905 7.49233 43.4252 12.7231 42.7047C15.4452 42.331 20.2222 40.8099 21.6633 39.8491C22.6508 39.2086 22.9977 38.2479 22.3038 38.0077C22.117 37.9276 21.0228 38.2212 19.8219 38.6482C15.4452 40.2494 10.1611 40.7565 6.82514 39.8758C4.85028 39.3687 4.12972 38.8617 3.56928 37.6874C3.14228 36.8067 3.14228 36.6733 3.56928 35.6058C4.53003 33.0438 8.21289 30.2683 12.3494 28.9073C17.2866 27.306 21.9836 27.0925 26.8673 28.2668C28.0949 28.5603 29.3225 28.8005 29.5894 28.8005C30.1232 28.8005 30.5768 27.8131 30.2032 27.4662C29.7495 26.9858 25.106 25.6248 23.1045 25.358C20.7026 25.011 17.8737 25.0377 15.6053 25.358Z" fill="black"/>
<path d="M75.9473 29.0147C75.5737 29.415 75.547 30.1622 75.7872 35.7399C75.9206 39.1826 76.0808 42.1716 76.1608 42.3584C76.2409 42.5452 76.5611 42.6786 76.8814 42.6253C78.0023 42.4651 78.2424 41.024 78.2158 34.9927C78.1891 31.7635 78.0556 29.3883 77.8955 29.0681C77.5486 28.4009 76.5078 28.3742 75.9473 29.0147Z" fill="black"/>
<path d="M116.111 51.2191C114.697 51.5393 113.923 52.4467 113.923 53.7811C113.923 55.0888 114.644 55.8627 116.138 56.1563C118.06 56.5299 118.727 56.8501 118.727 57.3839C118.727 58.4781 116.458 58.5581 115.844 57.4906C115.658 57.1437 115.391 57.0903 114.644 57.2237C114.11 57.3305 113.656 57.5707 113.656 57.7575C113.656 58.4247 114.697 59.4121 115.738 59.7057C117.179 60.1327 117.873 60.106 119.154 59.5189C120.008 59.1452 120.355 58.7716 120.568 58.0777C121.155 56.3164 120.195 55.1688 117.606 54.5817C116.485 54.3415 116.165 54.1547 116.111 53.701C115.925 52.5001 117.686 52.3666 118.593 53.5142C118.887 53.8878 120.595 53.701 120.595 53.3007C120.595 51.913 118.14 50.7654 116.111 51.2191Z" fill="black"/>
<path d="M31.7286 51.4327C31.7286 51.5395 32.5025 53.4343 33.4366 55.6227L35.1713 59.6258L36.1854 59.7058L37.1995 59.7859L38.6406 56.3699C39.4412 54.4751 40.2419 52.5536 40.4554 52.0732L40.8023 51.2192H39.6814H38.5339L37.4664 53.9147C36.8792 55.3825 36.3188 56.6635 36.2387 56.7168C36.132 56.7702 35.5449 55.5693 34.9311 54.0214L33.8102 51.2192H32.7694C32.209 51.2192 31.7286 51.326 31.7286 51.4327Z" fill="black"/>
<path d="M44.8019 55.489V59.759H48.1379H51.4738V58.9583V58.1577H49.2054H46.9369V57.2237V56.2896H49.0719H51.2069V55.489V54.6884H49.0719H46.9369V53.8877V53.0871H49.2054H51.4738V52.1531V51.219H48.1379H44.8019V55.489Z" fill="black"/>
<path d="M56.2765 55.489V59.759H57.344H58.3848L58.4649 57.3304L58.5449 54.9285L60.6265 57.3304C62.5213 59.5188 62.8149 59.759 63.6422 59.759H64.5496V55.489V51.219H63.4821H62.4413L62.3612 53.781L62.2812 56.3163L60.1462 53.781C58.2514 51.4859 57.9311 51.219 57.1572 51.219H56.2765V55.489Z" fill="black"/>
<path d="M67.7581 52.1531V53.0871H69.0924H70.4268V56.423V59.759H71.4943H72.5618V56.423V53.0871H73.8962H75.2305V52.1531V51.219H71.4943H67.7581V52.1531Z" fill="black"/>
<path d="M78.6914 54.3145C78.6914 56.9832 78.7715 57.5437 79.2252 58.3176C80.2926 60.0256 83.0414 60.4793 84.6694 59.1983C85.9237 58.2108 86.1639 57.3835 86.1639 54.1544V51.2188H85.2298H84.2958V53.5939C84.2958 56.1826 83.9755 57.4903 83.2283 57.8906C82.4543 58.3176 81.9206 58.2108 81.2267 57.4903C80.6129 56.8765 80.5595 56.663 80.5595 54.0209V51.2188H79.6255H78.6914V54.3145Z" fill="black"/>
<path d="M90.7035 55.4622V59.7589H91.771H92.8385V58.2911C92.8385 57.2503 92.9452 56.8233 93.1854 56.8233C93.3722 56.8233 94.1195 57.4904 94.8133 58.2911C95.9876 59.6788 96.1477 59.7589 97.2686 59.7589H98.4962L97.2686 58.3711C95.9876 56.9033 95.8275 56.5564 96.3879 56.5564C96.6014 56.5564 97.0284 56.2361 97.402 55.8625C98.3361 54.8484 98.3094 53.087 97.2953 52.0996C96.6014 51.379 96.4146 51.3523 93.6391 51.2723L90.7035 51.1655V55.4622ZM95.9876 53.861C96.121 54.7416 95.4272 55.222 93.986 55.222H92.8385V54.1545V53.0603L94.3864 53.1404C95.7741 53.2205 95.9075 53.2738 95.9876 53.861Z" fill="black"/>
<path d="M102.712 55.489V59.759H105.995H109.304L109.171 58.9583L109.064 58.1844L106.875 58.1043L104.714 58.0243L104.634 57.1436L104.554 56.2896H106.689H108.85V55.489V54.6884H106.715H104.58V53.8877V53.0871H106.849H109.117V52.1531V51.219H105.915H102.712V55.489Z" fill="black"/>
</mask>
<g mask="url(#mask0_3904_1818)">
<path d="M235.109 -9.60742H-23.4922V73.9241H235.109V-9.60742Z" fill="white"/>
</g>
</g>
<defs>
<clipPath id="clip0_3904_1818">
<rect width="210.83" height="60.0466" fill="white"/>
</clipPath>
</defs>
</svg>
