<svg width="153" height="50" viewBox="0 0 153 50" fill="none" xmlns="http://www.w3.org/2000/svg">
<mask id="mask0_3904_2181" style="mask-type:alpha" maskUnits="userSpaceOnUse" x="0" y="0" width="153" height="50">
<path d="M0.116794 0.150917C0.0500545 0.200971 0 8.17633 0 17.8369V35.4227L1.30142 35.3727L2.58615 35.3226L2.63621 28.7822L2.66957 22.2584L8.8096 22.175C13.7984 22.1082 15.1665 22.0415 16.1843 21.8079C20.9228 20.7234 24.143 18.1205 25.3776 14.3497C25.9449 12.6145 25.9616 9.36095 25.3943 7.59236C24.0595 3.33773 20.0552 0.684834 14.2322 0.200971C11.913 0.01744 0.283642 -0.032615 0.116794 0.150917ZM16.518 2.93729C19.9551 3.88833 22.2075 5.87382 22.9417 8.59345C23.3922 10.2619 23.242 12.9816 22.6413 14.2997C21.9239 15.818 21.0062 16.9359 19.7382 17.7535C16.9685 19.5721 15.7338 19.789 8.39248 19.8057C5.23904 19.8057 2.66957 19.7557 2.66957 19.6722C2.66957 19.6055 2.66957 15.7179 2.66957 11.0294V2.52017L9.05987 2.58691C14.5325 2.63696 15.5836 2.68702 16.518 2.93729Z" fill="black"/>
<path d="M33.7037 17.7031V35.4057H34.9551H36.2065V28.0644V20.723H42.0128H47.8024L53.4419 28.0644L59.0814 35.4057H60.6664C61.5341 35.4057 62.2348 35.3723 62.2348 35.3223C62.2348 35.2389 53.8924 24.377 51.6733 21.574L50.6889 20.3226L51.7401 20.1057C53.1916 19.8221 55.1271 19.1213 56.2116 18.504C57.6965 17.6697 59.315 16.0179 59.9824 14.6498C62.6853 9.17715 60.0658 3.10386 54.126 1.01826C51.8068 0.21739 51.2896 0.167337 42.2631 0.0839125L33.7037 0.000488281V17.7031ZM52.5576 3.02044C56.6454 4.25512 58.5641 6.84127 58.3639 10.8123C58.2972 12.0803 58.1804 12.5475 57.7633 13.4485C56.7956 15.5174 54.7934 17.0857 52.0571 17.9033C50.8558 18.2704 50.5054 18.2871 43.5144 18.3538L36.2065 18.4039V10.4619V2.51989L43.7647 2.56995C51.0226 2.63669 51.3563 2.65337 52.5576 3.02044Z" fill="black"/>
<path d="M70.5253 0.13416C70.4586 0.200898 70.4085 8.17626 70.4085 17.8368V35.4227L71.7099 35.3726L72.9947 35.3225V17.72V0.117474L71.8267 0.0674185C71.176 0.0507354 70.592 0.0674185 70.5253 0.13416Z" fill="black"/>
<path d="M83.9247 17.7201V35.4227L85.1427 35.3727L86.344 35.3226L86.4275 20.1061L86.5109 4.88943L93.4351 14.9671C97.2392 20.5232 100.393 25.0615 100.443 25.0615C100.493 25.0615 103.646 20.5232 107.45 14.9838L114.375 4.90612L114.458 20.1061L114.541 35.3226L115.843 35.3727L117.128 35.4227L117.094 17.7702L117.044 0.117563L115.91 0.10088C115.242 0.0841943 114.708 0.150933 114.608 0.267729C114.408 0.467947 113.724 1.46904 106.049 12.798C102.361 18.2207 100.493 20.8402 100.376 20.7234C100.293 20.64 97.0891 15.9682 93.2683 10.3454L86.3274 0.117563L85.1261 0.0675084L83.9247 0.0174561V17.7201Z" fill="black"/>
<path d="M127.638 1.2852V2.36971H140.152H152.665V1.2852V0.200684H140.152H127.638V1.2852Z" fill="black"/>
<path d="M127.638 25.8954V35.4057L140.285 35.3723L152.915 35.3223V34.1543V32.9864L141.52 32.9364L130.141 32.903L130.174 25.8453L130.224 18.8043L140.318 18.7542L150.413 18.7209L150.363 17.5529L150.296 16.385H138.967H127.638V25.8954Z" fill="black"/>
<path d="M149.044 40.0774C148.377 40.4779 148.143 40.9117 148.127 41.7459C148.11 42.6135 148.394 42.9973 149.862 44.2653C150.529 44.8326 151.247 45.4833 151.447 45.7336C152.365 46.8181 151.58 48.4199 150.145 48.4199C149.528 48.4199 149.345 48.3198 148.744 47.6857C148.16 47.1018 147.993 47.0017 147.776 47.1685C147.543 47.3354 147.559 47.4021 147.86 47.9026C148.06 48.2197 148.293 48.4032 148.427 48.3531C148.56 48.3031 148.644 48.3531 148.61 48.4532C148.544 48.7703 149.378 49.0873 150.312 49.0873C151.147 49.0873 151.247 49.0372 151.931 48.3531C152.581 47.7191 152.665 47.5356 152.665 46.9015C152.665 45.9672 152.281 45.3499 151.063 44.3154C149.161 42.697 148.827 42.3132 148.827 41.7626C148.827 41.479 148.961 41.1119 149.144 40.9284C149.328 40.7448 149.428 40.578 149.395 40.5279C149.295 40.4278 149.845 40.4111 150.446 40.5113C150.746 40.5613 151.197 40.8116 151.447 41.0785C151.864 41.5123 151.947 41.5457 152.231 41.3288C152.548 41.0785 152.548 41.0785 152.148 40.6447C151.28 39.7104 150.029 39.4768 149.044 40.0774Z" fill="black"/>
<path d="M0.483028 40.6947C0.76667 41.3955 2.66874 45.9004 3.66983 48.1695L4.02021 48.9871L4.35391 48.2529C4.55413 47.8358 5.30495 46.1173 6.03908 44.4154C6.77321 42.7136 7.52403 41.0117 7.69088 40.6113L7.99121 39.9105H7.60745C7.27376 39.9105 7.10691 40.1608 6.42283 41.6958C5.98903 42.6969 5.38837 44.065 5.08804 44.7491C4.77103 45.4332 4.45402 46.2007 4.35391 46.451C4.2538 46.7179 4.12032 46.9182 4.0369 46.9182C3.97016 46.9182 3.65315 46.3008 3.33614 45.5333C3.03581 44.7825 2.53526 43.6312 2.25162 42.9972C1.95129 42.3465 1.55086 41.3955 1.33395 40.8616C1.01694 40.0941 0.866779 39.9105 0.549767 39.9105H0.166016L0.483028 40.6947Z" fill="black"/>
<path d="M12.3464 44.4156V48.9205H14.8492C17.2351 48.9205 17.3519 48.9038 17.3519 48.5868C17.3519 48.2864 17.2184 48.2531 15.2329 48.2197L13.0973 48.1696L13.0472 46.2843L12.9971 44.4156H15.1829C17.2351 44.4156 17.3519 44.3989 17.3519 44.0819C17.3519 43.7648 17.2351 43.7482 15.1829 43.7482H13.0138V42.1631V40.578H15.1829C17.2351 40.578 17.3519 40.5614 17.3519 40.2443C17.3519 39.9273 17.2351 39.9106 14.8492 39.9106H12.3464V44.4156Z" fill="black"/>
<path d="M21.6893 44.3821V48.9204H22.0731H22.4401V45.6669C22.4401 43.8649 22.4735 42.3299 22.5403 42.2298C22.5903 42.1297 23.2911 42.8138 24.0919 43.7314C24.9095 44.6658 25.6436 45.3666 25.7437 45.2998C25.8272 45.2498 25.8605 45.2664 25.8105 45.3666C25.677 45.5668 27.479 47.6858 27.7292 47.619C27.8127 47.6023 27.846 47.6357 27.8127 47.7024C27.7626 47.7859 27.9461 48.1029 28.2131 48.4199L28.6803 49.0039L28.697 44.4489C28.697 40.0274 28.697 39.9106 28.3633 39.9106C28.0463 39.9106 28.0296 40.0274 28.0296 43.4144C28.0296 45.3332 27.9795 46.9182 27.9128 46.9016C27.8294 46.9016 26.9117 45.9005 25.8605 44.6658C24.8094 43.4478 23.875 42.4801 23.7749 42.5301C23.6915 42.5969 23.6581 42.5802 23.7249 42.4968C23.8917 42.3132 22.874 41.0452 22.6571 41.1787C22.5569 41.2454 22.5236 41.2287 22.5736 41.1286C22.6404 41.0285 22.4568 40.7115 22.1899 40.4112L21.6893 39.8439V44.3821Z" fill="black"/>
<path d="M32.7025 40.2443C32.7025 40.5113 32.836 40.5614 33.7537 40.6114L34.7881 40.6615L34.8382 44.7826C34.8715 48.7703 34.8882 48.9205 35.2052 48.9205C35.5223 48.9205 35.5389 48.7703 35.5723 44.7826L35.6224 40.6615L36.6735 40.6114C37.2408 40.578 37.708 40.528 37.708 40.4946C37.708 40.4612 37.6579 40.3278 37.6079 40.1776C37.5244 39.944 37.1407 39.9106 35.1051 39.9106C32.836 39.9106 32.7025 39.9273 32.7025 40.2443Z" fill="black"/>
<path d="M41.7451 43.6479C41.7951 47.1351 41.8118 47.4354 42.1455 47.8525C42.7795 48.7201 43.3134 48.9871 44.5147 49.0538C45.4658 49.1039 45.716 49.0538 46.1999 48.7201C47.3845 47.9359 47.468 47.6022 47.518 43.5311C47.5681 40.0106 47.5681 39.9105 47.2344 39.9105C46.9174 39.9105 46.9007 40.044 46.8506 43.4477C46.8006 46.6011 46.7672 47.0516 46.4835 47.4688C45.8328 48.4365 44.4313 48.7034 43.4135 48.0861C42.4959 47.5188 42.3791 47.0016 42.3791 43.2475C42.3791 39.9939 42.3624 39.9105 42.0287 39.9105C41.695 39.9105 41.695 39.9773 41.7451 43.6479Z" fill="black"/>
<path d="M52.5568 44.3988L52.5735 48.9204H52.9906H53.391V46.7514C53.391 45.0161 53.4411 44.5823 53.6246 44.5823C53.7414 44.5823 53.9416 44.6991 54.0584 44.8326C54.1752 44.9661 54.3254 45.0328 54.4088 44.9828C54.4922 44.9327 54.5423 44.9661 54.5256 45.0662C54.4922 45.1496 55.1096 46.0673 55.8771 47.085C57.0951 48.6868 57.3286 48.9204 57.7625 48.9204H58.2463L57.6457 48.1696C57.2953 47.7524 56.9449 47.4688 56.8448 47.5355C56.7447 47.5856 56.728 47.5522 56.7947 47.4354C56.9282 47.2352 55.4266 45.1997 55.243 45.3165C55.193 45.3498 55.1263 45.1997 55.1263 44.9828C55.0929 44.6324 55.1596 44.5823 55.7102 44.5823C56.461 44.5823 57.3453 44.1318 57.7791 43.5645C58.2296 42.9472 58.2129 41.5457 57.7791 40.9283C57.2285 40.1942 56.6446 40.0107 54.5089 39.9439L52.5401 39.8772L52.5568 44.3988ZM56.7614 40.7949C56.9115 40.8115 57.0116 40.8616 56.9616 40.9283C56.9282 40.9951 57.0116 41.262 57.1618 41.529C57.5789 42.2464 57.362 43.1641 56.6779 43.5812C56.2608 43.8482 55.8437 43.9149 54.7759 43.9149H53.391V42.2298V40.5279L54.9427 40.6447C55.777 40.7114 56.6112 40.7782 56.7614 40.7949Z" fill="black"/>
<path d="M62.902 44.4156V48.9205H65.4048C67.7907 48.9205 67.9075 48.9038 67.9075 48.5868C67.9075 48.2864 67.774 48.2531 65.7885 48.2197L63.6529 48.1696L63.6028 46.2843L63.5527 44.4156H65.7385C67.7907 44.4156 67.9075 44.3989 67.9075 44.0819C67.9075 43.7815 67.774 43.7482 65.7885 43.7148L63.6529 43.6647V42.1631V40.6615L65.7885 40.6114C67.774 40.578 67.9075 40.5447 67.9075 40.2443C67.9075 39.9273 67.7907 39.9106 65.4048 39.9106H62.902V44.4156Z" fill="black"/>
<path d="M76.4157 44.3988C76.4157 48.7869 76.4324 48.9204 76.7494 48.9204C77.0497 48.9204 77.0831 48.7869 77.1165 46.7847L77.1665 44.6657L78.835 44.5823C79.7527 44.5323 80.6703 44.3988 80.8872 44.282C81.4712 43.9483 81.9217 43.0807 81.9217 42.2798C81.9217 41.5791 81.5046 40.578 81.2043 40.578C81.1375 40.578 81.1208 40.6614 81.1876 40.7782C81.2543 40.895 81.2376 40.9117 81.1042 40.8449C81.004 40.7782 80.954 40.6614 81.004 40.578C81.2043 40.2443 80.2365 40.0107 78.3845 39.9439L76.4157 39.8772V44.3988ZM80.1364 40.7949C80.8205 41.0952 81.0875 41.4122 81.2043 42.1463C81.2877 42.6636 81.2209 42.8137 80.7037 43.331C80.1197 43.9149 80.1197 43.9149 78.6014 43.9149H77.0831V42.3632C77.0831 41.4956 77.1332 40.7448 77.1999 40.6948C77.4001 40.4945 79.5858 40.578 80.1364 40.7949Z" fill="black"/>
<path d="M89.5305 40.9117C89.2802 41.4456 89.1301 41.9962 89.1968 42.0963C89.2636 42.2131 89.2469 42.2465 89.1468 42.1964C88.9299 42.063 88.713 42.5301 88.8798 42.7804C88.9299 42.8805 88.9132 42.9139 88.8131 42.8638C88.713 42.7971 88.3459 43.3977 87.9621 44.2153C87.5951 45.0162 86.9444 46.401 86.5272 47.2853L85.7764 48.9204H86.1769C86.5273 48.9204 86.6774 48.7536 87.0111 47.9861C87.2447 47.4689 87.3782 46.9683 87.3114 46.8682C87.2614 46.7848 87.2948 46.7514 87.3782 46.8015C87.4783 46.8682 87.6451 46.6847 87.7619 46.4177L87.9621 45.9172H90.0478H92.1167L92.8174 47.4188C93.3847 48.6702 93.5683 48.9204 93.8853 48.9204C94.1022 48.9204 94.269 48.8871 94.269 48.8537C94.269 48.8203 93.8352 47.8693 93.2846 46.7347C92.7507 45.6001 91.8497 43.648 91.2824 42.4133C90.7151 41.1787 90.1812 40.1108 90.1145 40.0274C90.0477 39.9607 89.7808 40.3611 89.5305 40.9117ZM90.8987 43.3143C91.2824 44.1653 91.5994 44.9661 91.5994 45.0662C91.5994 45.183 91.0655 45.2498 90.0144 45.2498C89.08 45.2498 88.4293 45.183 88.4293 45.0829C88.4293 44.866 89.981 41.746 90.0978 41.746C90.1479 41.746 90.4982 42.4467 90.8987 43.3143Z" fill="black"/>
<path d="M98.6082 44.4156C98.6082 48.8037 98.6082 48.9205 98.9419 48.9205C99.2589 48.9205 99.2755 48.8037 99.2755 46.7514C99.2755 43.8816 99.3757 43.8816 101.545 46.7514C102.963 48.6034 103.263 48.9038 103.664 48.9205C104.114 48.9205 104.081 48.8537 102.529 46.8349C101.511 45.5001 101.011 44.7159 101.144 44.6825C101.261 44.6325 101.712 44.5657 102.145 44.499C104.581 44.182 104.815 40.7616 102.429 40.0775C102.129 39.9774 101.128 39.9106 100.243 39.9106H98.6082V44.4156ZM102.646 40.7783C102.796 40.7949 102.896 40.845 102.863 40.8784C102.829 40.9284 102.896 41.112 103.03 41.3122C103.463 41.9128 103.347 42.8805 102.796 43.4311C102.329 43.8983 102.245 43.915 100.794 43.915H99.2755V42.2298V40.5447L100.827 40.6448C101.661 40.6948 102.496 40.7616 102.646 40.7783Z" fill="black"/>
<path d="M107.951 40.2443C107.951 40.5447 108.068 40.578 108.952 40.578H109.953V44.7492C109.953 48.8037 109.97 48.9205 110.287 48.9205C110.604 48.9205 110.621 48.787 110.654 44.7826L110.704 40.6615L111.755 40.6114C112.656 40.5614 112.79 40.5113 112.79 40.2443C112.79 39.9273 112.656 39.9106 110.37 39.9106C108.068 39.9106 107.951 39.9273 107.951 40.2443Z" fill="black"/>
<path d="M116.793 44.4155C116.793 48.8036 116.793 48.9204 117.127 48.9204C117.444 48.9204 117.461 48.8036 117.461 45.5C117.461 43.6146 117.527 42.0796 117.611 42.0796C117.678 42.0796 118.929 43.4311 120.381 45.0996C121.832 46.7514 123.184 48.3198 123.4 48.5534L123.784 49.0038L123.801 44.4489C123.801 40.0274 123.801 39.9106 123.467 39.9106C123.15 39.9106 123.134 40.0274 123.134 43.4144C123.134 45.3332 123.083 46.9182 123.017 46.9016C122.933 46.9016 121.916 45.767 120.714 44.3821C119.53 42.9973 118.145 41.4289 117.678 40.8783L116.793 39.8939V44.4155Z" fill="black"/>
<path d="M128.805 44.4156V48.9205H131.308C133.694 48.9205 133.811 48.9038 133.811 48.5868C133.811 48.2864 133.677 48.2531 131.692 48.2197L129.556 48.1696L129.506 46.2843L129.456 44.4156H131.642C133.694 44.4156 133.811 44.3989 133.811 44.0819C133.811 43.7815 133.677 43.7482 131.692 43.7148L129.556 43.6647V42.1631V40.6615L131.692 40.6114C133.677 40.578 133.811 40.5447 133.811 40.2443C133.811 39.9273 133.694 39.9106 131.308 39.9106H128.805V44.4156Z" fill="black"/>
<path d="M138.151 44.3988V48.9204H138.568H138.985V46.7514C138.985 44.3654 139.068 44.1986 139.852 45.0328C140.069 45.2998 140.853 46.2675 141.571 47.2018C142.689 48.6868 142.939 48.9204 143.356 48.9204H143.84L142.889 47.7024C142.355 47.0517 141.638 46.1507 141.287 45.7336C140.937 45.2998 140.653 44.866 140.653 44.7659C140.653 44.6657 140.937 44.5823 141.287 44.5823C142.055 44.5823 142.939 44.1485 143.39 43.5479C143.84 42.9138 143.84 41.5791 143.39 40.945C142.822 40.1942 142.238 40.0107 140.119 39.9439L138.151 39.8772V44.3988ZM142.505 41.212C143.056 41.8126 143.106 42.3632 142.739 43.0974C142.388 43.7481 141.905 43.9149 140.303 43.9149H138.985V42.2298V40.5446L140.503 40.6113C141.971 40.6781 142.055 40.7114 142.505 41.212Z" fill="black"/>
</mask>
<g mask="url(#mask0_3904_2181)">
<path d="M170.353 -4.83862H-12.012V57.5627H170.353V-4.83862Z" fill="white"/>
</g>
</svg>
