<svg width="192" height="51" viewBox="0 0 192 51" fill="none" xmlns="http://www.w3.org/2000/svg">
<g clip-path="url(#clip0_3904_2214)">
<path d="M0 40.8C1.96174 40.3408 3.13042 40.9252 4.03303 42.9234C5.92173 47.0974 11.5826 48.6626 15.6209 46.3982C16.4559 45.9256 17.1513 45.2409 17.6366 44.4132C18.122 43.5855 18.3801 42.6444 18.3849 41.6849C18.3896 40.7254 18.1409 39.7817 17.6638 38.9493C17.1866 38.1168 16.4981 37.4252 15.6678 36.9443C14.2331 36.0939 12.6261 35.7026 11.0504 35.2069C9.29001 34.7299 7.56851 34.1195 5.90087 33.3808C0.187825 30.5791 -0.359988 23.7861 4.80523 20.0295C10.3722 15.9547 18.9757 18.3182 20.9165 24.4904C21.1983 25.3773 21.9913 26.6087 20.4991 27.1669C19.1165 27.6887 18.3183 26.9634 17.7444 25.6017C15.9235 21.3078 12.5791 19.8626 8.27477 21.3078C6.41217 21.9443 5.14435 23.1495 4.86261 25.1843C4.57044 27.3704 5.28521 29.113 7.2313 30.2765C8.90086 31.2678 10.753 31.7426 12.5948 32.2434C14.5462 32.707 16.4101 33.4821 18.1148 34.5391C19.2972 35.282 20.2674 36.3181 20.9312 37.5467C21.5949 38.7753 21.9297 40.1546 21.9029 41.5508C21.8761 42.947 21.4887 44.3125 20.7784 45.5148C20.068 46.717 19.0588 47.7151 17.8487 48.4122C11.1652 52.4452 3.24 49.7739 0 42.3913V40.8Z" fill="white"/>
<path d="M191.998 45.4957C190.198 49.08 187.005 50.1913 183.332 50.1026C179.951 50.0296 176.972 48.9131 175.371 45.6261C174.885 44.6348 173.805 43.2209 175.209 42.4174C176.612 41.6139 177.604 42.5948 178.292 44.1339C179.706 47.3113 183.932 48.4644 186.969 46.7426C187.491 46.4683 187.936 46.0664 188.262 45.5741C188.587 45.0818 188.783 44.5152 188.831 43.9269C188.879 43.3386 188.777 42.7478 188.536 42.2093C188.294 41.6708 187.92 41.2022 187.449 40.847C186.46 40.1344 185.345 39.6172 184.162 39.3235C182.414 38.8136 180.697 38.2057 179.018 37.5026C176.675 36.4591 175.324 34.5287 175.365 31.9618C175.407 29.2174 176.847 27.1983 179.341 26.0139C180.41 25.4797 181.575 25.1661 182.768 25.0917C183.961 25.0174 185.156 25.1837 186.283 25.581C187.41 25.9782 188.446 26.5982 189.328 27.404C190.21 28.2098 190.922 29.1849 191.419 30.2713C191.607 30.6626 191.811 31.0487 192.004 31.4348V32.4783C190.167 32.8696 188.748 32.7809 187.798 30.6418C186.755 28.247 184.454 27.4539 181.877 28.0331C180.191 28.4087 179.038 29.3792 178.746 31.127C178.594 31.9082 178.726 32.7181 179.118 33.4107C179.51 34.1033 180.137 34.633 180.885 34.9044C182.329 35.4962 183.809 35.998 185.315 36.407C188.143 37.2522 190.678 38.4939 191.988 41.3531L191.998 45.4957Z" fill="white"/>
<path d="M127.303 40.0121C127.303 42.4434 127.303 44.8747 127.303 47.3165C127.303 48.0834 127.35 48.9652 126.458 49.3356C125.566 49.706 124.674 49.8052 124.147 48.8765C123.448 47.6295 122.837 48.5947 122.253 48.8765C119.745 50.1289 116.873 50.4506 114.15 49.7843C111.354 49.106 109.522 47.3999 109.074 44.5095C108.819 43.214 108.964 41.8717 109.49 40.6605C110.015 39.4493 110.896 38.4263 112.016 37.7269C114.458 36.073 117.234 35.5878 120.161 35.353C121.773 35.2226 124.11 35.8747 124.011 32.8434C123.922 29.9478 122.623 28.4869 119.806 28.3043C116.988 28.1217 114.588 28.6591 113.545 31.7321C113.075 33.1669 112.006 33.3704 110.863 32.9269C109.554 32.4052 110.216 31.3043 110.503 30.4643C111.781 26.8121 116.07 24.553 120.51 25.1791C124.825 25.7843 127.032 28.1947 127.241 32.7234C127.35 35.1495 127.241 37.5808 127.241 40.0278L127.303 40.0121ZM116.868 46.993C121.042 47.0243 123.374 45.0782 123.954 41.4469C124.381 38.7912 123.891 38.2278 121.147 38.2382C119.328 38.1684 117.512 38.4409 115.794 39.0417C113.435 39.9652 112.387 41.6504 112.788 44.1182C113.216 46.7269 115.214 46.9304 116.868 46.993Z" fill="white"/>
<path d="M69.5569 36.146C69.9482 38.1704 68.8056 38.8173 66.7395 38.7547C62.5656 38.6817 58.3917 38.7912 54.2439 38.713C52.4908 38.6817 51.9378 39.2347 52.2769 41.0086C52.9239 44.3999 55.0213 46.8208 58.0161 47.3321C61.1465 47.8538 63.7187 46.5129 65.4769 43.393C65.5604 43.2416 65.6334 43.0799 65.7013 42.9234C65.7949 42.6523 65.9474 42.4052 66.1479 42.2001C66.3483 41.9949 66.5918 41.8368 66.8607 41.737C67.1296 41.6372 67.4174 41.5983 67.7031 41.623C67.9889 41.6477 68.2656 41.7355 68.5135 41.8799C69.7395 42.4747 68.9465 43.5547 68.5813 44.3582C66.1552 49.6695 59.1326 51.7565 53.8682 48.7669C49.83 46.4712 47.67 40.9408 48.6039 35.2956C49.5013 29.833 52.6317 26.3321 57.51 25.3408C63.9952 24.026 69.4891 28.8469 69.5569 36.146ZM58.83 35.9947C60.4839 35.9947 62.1378 35.9269 63.7865 35.9947C66.1082 36.1147 66.4526 34.9512 65.8735 33.0521C64.83 29.473 62.2474 27.5895 58.7413 27.8817C55.5117 28.153 52.5952 31.1217 52.2143 34.3878C52.0787 35.5565 52.4647 35.9947 53.5917 35.953C55.3552 35.9738 57.0926 35.9895 58.83 35.9947Z" fill="white"/>
<path d="M98.794 23.3165C98.794 29.8225 98.794 36.3599 98.794 42.8399C98.794 44.6034 98.387 46.6174 100.938 47.2069C101.497 47.3374 101.617 47.9426 101.528 48.5008C101.477 48.7518 101.356 48.9831 101.178 49.1679C101.001 49.3526 100.775 49.4832 100.526 49.5443C98.747 50.2226 96.3888 49.1478 95.9557 47.2591C95.6461 45.8174 95.4974 44.3457 95.5122 42.8712C95.4809 29.7721 95.4809 16.673 95.5122 3.57386C95.5122 3.05212 95.5122 2.53038 95.5436 2.00864C95.6062 0.902553 95.7992 -0.0783078 97.2861 -0.0209165C98.6322 0.0312574 98.7627 0.939083 98.7836 1.95126C98.7836 2.64691 98.7836 3.34256 98.7836 4.03821L98.794 23.3165Z" fill="white"/>
<path d="M78.6161 31.3095C78.6161 26.7077 78.6161 22.1008 78.6161 17.499C78.6161 16.346 78.2665 14.833 80.1395 14.7808C82.19 14.7234 81.8769 16.346 81.8821 17.5877C81.9135 26.2747 81.8821 34.9616 81.8821 43.6747C81.8821 45.1199 81.59 46.7164 83.6561 47.186C84.3343 47.3425 84.5274 47.9947 84.3865 48.6625C84.2456 49.3303 83.6665 49.5651 83.0404 49.706C80.5778 50.2277 78.6578 48.6625 78.6108 45.9442C78.5378 41.0816 78.6108 36.2138 78.6108 31.3355L78.6161 31.3095Z" fill="white"/>
<path d="M32.23 37.8678C32.23 35.4365 32.23 33.0104 32.23 30.5634C32.23 29.4313 32.0839 28.4765 30.623 28.4087C30.4722 28.4259 30.3195 28.4123 30.1741 28.3685C30.0287 28.3248 29.8938 28.2519 29.7776 28.1542C29.6613 28.0565 29.5663 27.9362 29.4981 27.8005C29.43 27.6649 29.3902 27.5167 29.3813 27.3652C29.3343 26.6608 29.6578 26.1235 30.383 26.1026C32.3187 26.04 32.2195 24.7043 32.2456 23.3582C32.2456 22.2626 32.0839 20.953 33.8108 20.9008C35.6891 20.8382 35.6109 22.2417 35.543 23.4313C35.4387 25.2991 36.1013 26.2069 38.063 26.04C38.8456 25.9826 39.6909 26.113 39.6961 27.2243C39.7013 28.3356 38.83 28.4608 38.063 28.3878C35.7987 28.1687 35.5222 29.4678 35.5535 31.2782C35.6213 35.4521 35.6004 39.626 35.5535 43.7634C35.5535 45.626 35.9291 47.0452 38.1882 47.0974C39.0178 47.0974 39.7535 47.4156 39.6752 48.4799C39.5969 49.5443 38.7882 49.6226 37.99 49.7426C34.5048 50.2643 32.4074 48.6469 32.2509 45.1304C32.1569 42.7043 32.2509 40.273 32.2509 37.826L32.23 37.8678Z" fill="white"/>
<path d="M138.259 37.4139C138.259 34.2 138.259 30.9808 138.259 27.7669C138.259 26.04 139.574 24.913 140.664 25.9774C142.229 27.48 142.991 26.3008 144.107 25.8834C144.672 25.6586 145.255 25.484 145.85 25.3617C146.894 25.1739 148.068 24.8765 148.459 26.2434C148.902 27.7199 147.676 27.8921 146.664 28.1999C143.163 29.2747 141.702 31.2313 141.572 35.4104C141.452 39.3182 141.535 43.2365 141.514 47.1443C141.514 48.2921 141.593 49.5547 139.892 49.5078C138.191 49.4608 138.259 48.2139 138.259 47.0608C138.222 43.8469 138.259 40.633 138.259 37.4139Z" fill="white"/>
<path d="M163.968 37.7113C163.968 40.9217 163.968 44.1304 163.968 47.3373C163.968 48.433 163.915 49.4973 162.402 49.5078C160.994 49.5078 160.681 48.5686 160.675 47.4208C160.675 40.9199 160.675 34.4173 160.675 27.913C160.675 26.8173 160.816 25.7582 162.288 25.7426C163.931 25.7426 163.962 26.906 163.962 28.0904L163.968 37.7113Z" fill="white"/>
<path d="M162.03 10.9043C162.95 12.6512 164.349 14.0993 166.063 15.0782C164.848 16.2052 163.454 16.7999 162.802 18.2086C162.458 18.9808 161.915 18.9391 161.514 18.1513C161.472 18.073 161.394 18.0104 161.378 17.9321C161.107 16.4243 158.081 16.4034 159.072 14.7078C159.75 13.5547 161.289 12.7043 162.03 10.9043Z" fill="white"/>
</g>
<defs>
<clipPath id="clip0_3904_2214">
<rect width="192" height="50.2591" fill="white"/>
</clipPath>
</defs>
</svg>
