<svg width="214" height="51" viewBox="0 0 214 51" fill="none" xmlns="http://www.w3.org/2000/svg">
<g clip-path="url(#clip0_3904_2233)">
<path d="M50.6581 25.3572C50.6581 32.0898 50.6581 38.8152 50.6581 45.5623C50.6581 49.7548 49.9365 50.5269 45.9388 50.5486C32.3581 50.6015 18.7775 50.6015 5.19685 50.5486C0.910495 50.5486 0.0734339 49.7043 0.0590017 45.4973C0.0012731 31.9166 0.0589964 18.336 0.00848389 4.75536C0.00848389 1.39988 1.35067 0.00716449 4.74223 0.0288127C18.5634 0.115406 32.3846 0.115406 46.2058 0.0288127C49.3953 0.0288127 50.7808 1.17618 50.7087 4.48114C50.5571 11.423 50.6581 18.3937 50.6581 25.3572ZM46.7326 25.1624C46.7326 19.2813 46.6532 13.393 46.7687 7.51913C46.8264 4.96464 46.0471 3.84612 43.3122 3.91107C31.5596 4.0169 19.7998 4.0169 8.03276 3.91107C5.18241 3.91107 4.25874 4.93573 4.28039 7.70671C4.37179 19.2236 4.37179 30.7453 4.28039 42.2717C4.28039 45.1582 5.11747 46.3993 8.17709 46.3705C19.819 46.255 31.4609 46.255 43.1029 46.3705C45.9893 46.3705 46.8408 45.2087 46.7759 42.4954C46.6388 36.6937 46.7326 30.9281 46.7326 25.1696V25.1624Z" fill="white"/>
<path d="M147.772 25.4439C147.772 16.33 152.498 11.6612 161.302 12.1591C166.591 12.455 170.106 15.5795 171.477 21.2225C174.103 31.9889 167.515 40.1503 157.47 38.5411C151.243 37.6247 147.793 32.9198 147.772 25.4439ZM167.977 24.9821C167.925 23.9242 167.804 22.8709 167.616 21.8286C166.678 17.6144 164.21 15.5507 160.118 15.4496C155.832 15.3414 153.198 17.3836 152.137 21.6771C151.416 24.3569 151.466 27.1859 152.282 29.8385C152.615 30.9639 153.194 32.0014 153.977 32.8763C154.759 33.7511 155.726 34.4414 156.808 34.8976C157.889 35.3538 159.058 35.5646 160.231 35.5145C161.404 35.4645 162.551 35.155 163.589 34.6083C167.363 32.6888 167.883 29.1169 167.998 24.9821H167.977Z" fill="white"/>
<path d="M206.913 38.8297C203.233 38.6637 200.014 37.5669 198.34 33.9661C196.37 29.7374 196.601 25.4872 199.271 21.6987C201.198 18.9494 204.099 17.8814 207.505 18.5742C209.516 19.0106 211.291 20.183 212.482 21.8613C213.673 23.5396 214.193 25.6024 213.941 27.6448C213.747 29.2612 212.801 29.6292 211.51 29.6581C208.998 29.7158 206.458 29.6581 203.962 29.7375C203.06 29.7375 201.876 29.4344 201.465 30.6106C201.133 31.5704 201.624 32.5012 202.186 33.295C203.94 35.7629 206.516 35.3804 209.042 35.3011C210.341 35.3011 212.448 33.5331 212.794 36.1526C213.061 38.2019 210.882 38.2235 209.417 38.5555C208.588 38.6943 207.752 38.7858 206.913 38.8297Z" fill="white"/>
<path d="M62.65 25.0397C62.65 21.8069 62.65 18.5452 62.65 15.3413C62.65 13.2486 63.552 12.2167 65.6663 12.2817C67.9376 12.2449 70.2092 12.3316 72.4711 12.5414C77.1399 13.263 79.5212 15.9258 79.5428 20.1544C79.5428 24.2603 77.0461 27.1107 72.7309 28.1931C70.7969 28.6766 68.2857 27.4715 66.9941 29.3766C65.8467 31.0507 66.6694 33.3454 66.5178 35.3659C66.4168 36.6864 66.5178 38.2523 64.6344 38.2523C62.751 38.2523 62.6861 36.8091 62.6716 35.4525C62.6283 31.9888 62.65 28.5106 62.65 25.0397ZM66.5323 20.5585C66.6766 22.6439 65.724 25.3716 69.5702 25.184C73.4164 24.9964 75.5596 23.4233 75.6173 20.5008C75.675 17.5783 73.8205 16.1711 70.0681 15.9113C66.3158 15.6515 66.3807 17.9679 66.5323 20.5585Z" fill="white"/>
<path d="M82.7682 28.6912C82.7249 22.406 86.3185 18.264 91.7811 18.3C97.2437 18.3361 101.054 22.6297 101.032 28.6335C101.01 34.6372 97.3663 38.736 92.0697 38.8009C86.4772 38.8948 82.8043 34.897 82.7682 28.6912ZM86.5999 28.4531C86.5999 33.2445 88.1875 35.3805 91.8532 35.3805C95.2376 35.3805 97.1426 33.0137 97.2004 28.749C97.2581 24.3111 95.2881 21.7998 91.7811 21.8287C88.2741 21.8576 86.6288 23.8636 86.5855 28.4531H86.5999Z" fill="white"/>
<path d="M114.095 28.2438C114.095 25.8408 113.994 23.4379 114.095 21.0277C114.203 19.0505 115.256 17.9537 117.125 19.368C118.193 20.1834 118.771 19.6855 119.658 19.3175C126.412 16.4888 130.742 19.368 130.793 26.6779C130.793 29.4345 130.836 32.1982 130.793 34.9547C130.793 36.3114 131.139 38.2164 128.952 38.1442C126.918 38.0793 127.134 36.2104 127.091 34.8393C126.99 31.9529 127.091 29.0664 127.019 26.18C127.019 23.9719 126.521 22.0596 123.829 21.7926C121.137 21.5256 119.088 22.2689 118.294 25.1553C117.443 28.2293 118.02 31.3611 117.796 34.4568C117.688 35.9 118.374 38.0649 116.043 38.1082C113.488 38.1515 114.145 35.8351 114.051 34.3053C113.936 32.2776 114.051 30.2282 114.051 28.1933L114.095 28.2438Z" fill="white"/>
<path d="M176.555 28.7561C176.555 26.2449 176.49 23.7048 176.555 21.2081C176.62 19.2742 177.392 17.9681 179.441 19.5556C180.581 20.4432 181.173 19.5989 181.981 19.2669C188.598 16.6042 192.885 19.4041 192.95 26.483C192.95 29.1169 193.043 31.758 192.95 34.4207C192.877 35.8134 193.671 38.0288 191.355 38.137C189.038 38.2452 189.673 35.9722 189.609 34.5867C189.486 31.8373 189.609 29.0736 189.529 26.3171C189.464 23.943 188.678 22.074 185.878 21.8936C183.193 21.7204 181.195 22.4637 180.466 25.4006C179.737 28.3376 180.17 31.3683 179.946 34.3486C179.838 35.8351 180.74 38.2525 178.12 38.2236C175.674 38.2236 176.677 35.9144 176.605 34.5506C176.454 32.6456 176.605 30.7189 176.605 28.7777L176.555 28.7561Z" fill="white"/>
<path d="M142.389 38.7216C138.709 38.7865 136.616 37.0113 136.335 33.3672C136.14 30.8632 136.27 28.316 136.241 25.812C136.241 24.9749 136.493 23.6905 136.061 23.3657C131.334 19.801 137.157 18.1629 137.504 15.5507C137.543 15.2779 137.681 15.029 137.892 14.8518C138.103 14.6746 138.372 14.5815 138.647 14.5904C138.923 14.5994 139.185 14.7097 139.384 14.9002C139.583 15.0908 139.705 15.3481 139.726 15.6229C140.166 17.9898 141.271 18.9062 143.58 18.7835C143.79 18.7451 144.007 18.7556 144.212 18.8144C144.418 18.8731 144.607 18.9785 144.766 19.1222C144.924 19.266 145.047 19.4443 145.126 19.6434C145.204 19.8424 145.236 20.0569 145.218 20.2701C145.221 20.4814 145.177 20.6908 145.09 20.8834C145.003 21.0761 144.875 21.2473 144.715 21.385C144.554 21.5226 144.366 21.6234 144.162 21.6801C143.958 21.7368 143.745 21.7482 143.536 21.7133C140.138 21.4896 139.928 23.6183 140.051 26.144C140.138 28.0634 140.051 29.9829 140.051 31.9168C140.051 33.8507 140.556 35.229 142.779 35.4021C143.912 35.4887 145.542 35.2795 145.369 37.0618C145.196 38.8442 143.5 38.5051 142.389 38.7216Z" fill="white"/>
<path d="M108.955 28.9004C108.955 31.289 108.955 33.6775 108.955 36.0661C108.955 37.2351 108.522 38.2309 107.137 38.2742C105.751 38.3175 105.268 37.3361 105.261 36.1093C105.232 31.0918 105.232 26.0742 105.261 21.0566C105.261 19.8948 105.672 18.8918 107.072 18.8557C108.472 18.8196 108.927 19.8226 108.955 21.0205C108.999 23.6472 108.955 26.2738 108.955 28.9004Z" fill="white"/>
<path d="M20.414 18.7762C21.2438 16.8351 20.7532 15.1681 20.9264 13.494C21.0995 11.8199 20.6594 9.59734 23.0912 9.66228C25.3715 9.72722 25.1045 12.0075 25.1766 13.6167C25.2921 16.1351 25.1766 18.6679 25.2488 21.1863C25.258 22.1411 25.3964 23.0902 25.6601 24.0078C25.8622 24.6645 26.3817 25.3717 27.226 25.2129C28.0703 25.0542 27.861 24.2893 27.8754 23.7192C27.926 22.0378 27.8754 20.3493 27.9476 18.6679C27.9476 17.5422 28.2363 16.366 29.6001 16.265C31.2021 16.1496 31.5773 17.4556 31.6711 18.6752C31.8834 20.5922 31.9148 22.525 31.7649 24.448C31.2814 28.7416 32.4865 32.1692 36.0224 34.8247C37.0904 35.6257 38.5625 36.6504 37.8481 38.3679C37.1337 40.0853 35.4884 39.8111 34.074 39.8111C31.1876 39.8688 28.3012 39.7533 25.4147 39.8471C22.1747 39.9554 20.7893 38.4039 20.9408 35.2649C21.0057 33.9444 20.8109 32.6022 20.9408 31.3033C21.4604 27.0386 20.2769 23.5821 16.7554 20.8905C15.5504 19.9668 13.5443 18.5958 15.1174 16.799C16.8132 14.8579 18.0038 17.1382 19.2378 18.0257C19.5264 18.2278 19.8295 18.4082 20.414 18.7762Z" fill="white"/>
</g>
<defs>
<clipPath id="clip0_3904_2233">
<rect width="214" height="50.5775" fill="white"/>
</clipPath>
</defs>
</svg>
