<svg width="203" height="38" viewBox="0 0 203 38" fill="none" xmlns="http://www.w3.org/2000/svg">
<g clip-path="url(#clip0_3904_2244)">
<path d="M20.7107 5.12507e-06C22.6663 0.38189 24.6494 0.685 26.4681 1.54124C33.0509 4.62372 36.9553 9.71495 37.851 16.9622C38.8682 25.2061 34.152 33.0373 26.7198 36.3835C25.2299 37.0548 23.6373 37.411 22.0807 37.8408H15.7445C15.4739 37.7586 15.2067 37.6696 14.931 37.596C5.0945 35.2772 -1.14067 26.523 0.174521 16.505C1.10098 9.45636 5.0808 4.50385 11.5266 1.53782C13.3555 0.696989 15.3249 0.357917 17.2857 -0.00341797L20.7107 5.12507e-06ZM30.0506 16.8149C30.012 16.7414 29.9661 16.672 29.9136 16.6077L19.8835 6.80714C19.0273 5.96974 19.0273 5.96289 18.1556 6.7181C17.8748 6.95956 17.5957 7.20444 17.3285 7.4596C14.7883 9.87992 12.2544 12.3025 9.72678 14.7274C9.04178 15.3884 8.38076 16.0803 7.69919 16.767C8.016 17.0393 8.31226 16.9382 8.58284 16.9468C9.78158 16.9588 10.9803 16.9845 12.1791 16.9468C12.948 16.9194 13.2357 17.1848 13.222 17.9743C13.1792 20.2262 13.2408 22.4798 13.1894 24.73C13.1706 25.552 13.4206 26.0144 14.1827 26.3792C17.0597 27.7629 19.9024 29.2185 22.7588 30.645C23.776 31.1587 23.7863 31.1587 23.7863 29.9788C23.7863 26.0435 23.7863 22.1088 23.7863 18.1746C23.7863 16.9605 23.7863 16.9553 25.0433 16.9536C26.4389 16.9536 27.8363 16.9536 29.2337 16.9536C29.494 16.9434 29.7869 17.0444 30.0506 16.8149Z" fill="white"/>
<path d="M66.1164 22.5913C64.1488 22.5913 62.1777 22.5913 60.2118 22.5913C59.3727 22.5913 59.2442 22.754 59.5114 23.5571C60.3026 25.9272 61.9911 27.2989 64.4262 27.6363C66.6918 27.9496 68.5824 27.1859 69.9062 25.2388C70.5175 24.3449 71.2505 24.0674 72.2831 24.3055C72.7969 24.4236 72.6359 24.7199 72.5109 25.0127C71.6957 26.9393 70.3377 28.3709 68.4232 29.1878C65.3013 30.5184 62.3627 30.1211 59.8196 27.8469C57.2509 25.5436 56.3501 22.6135 57.3811 19.3119C58.3674 16.1489 60.6194 14.1744 63.9091 13.5836C68.5636 12.7565 73.1856 16.8031 73.1394 21.5244C73.1308 22.3806 72.7969 22.6067 72.0177 22.5947C70.0535 22.569 68.0841 22.5913 66.1164 22.5913ZM65.0307 20.5209C66.7124 20.5209 68.3941 20.5089 70.0757 20.5209C70.7607 20.5209 70.932 20.3051 70.6922 19.6441C69.836 17.2757 67.6354 15.7516 65.0068 15.767C63.8012 15.7751 62.6277 16.1556 61.6467 16.8564C60.6657 17.5572 59.9253 18.544 59.5268 19.6817C59.2939 20.3462 59.4806 20.538 60.1604 20.5277C61.7804 20.5003 63.4056 20.5226 65.0307 20.5209Z" fill="white"/>
<path d="M195.963 22.591C193.966 22.591 191.969 22.6133 189.969 22.5807C189.241 22.5687 189.077 22.8119 189.262 23.4969C189.841 25.6546 191.83 27.3209 194.305 27.6737C195.389 27.8343 196.495 27.6654 197.482 27.189C198.468 26.7126 199.288 25.9507 199.836 25.0022C200.189 24.4062 201.669 23.9901 202.234 24.3497C202.636 24.6032 202.343 24.9234 202.234 25.1734C201.013 27.761 198.98 29.3296 196.163 29.7971C192.639 30.3725 189.313 28.5984 187.669 25.3669C186.068 22.2091 186.678 18.5461 189.193 15.9876C191.419 13.722 194.082 12.9223 197.091 13.8727C200.174 14.8437 202.141 16.9809 202.833 20.2089C202.845 20.2654 202.859 20.3202 202.867 20.3802C203.21 22.4009 203.039 22.6064 201.02 22.6064L195.963 22.591ZM194.87 20.5206C196.553 20.5206 198.237 20.512 199.92 20.5206C200.48 20.5206 200.703 20.3785 200.511 19.7637C199.799 17.4741 197.509 15.7993 194.988 15.7702C192.385 15.7376 190.097 17.3217 189.313 19.6575C189.104 20.2774 189.176 20.5429 189.907 20.5292C191.562 20.4983 193.216 20.5206 194.87 20.5206Z" fill="white"/>
<path d="M131.357 22.591C129.359 22.591 127.362 22.6081 125.363 22.591C124.678 22.591 124.497 22.8187 124.694 23.4609C125.432 25.8584 127.071 27.2507 129.516 27.624C131.782 27.9665 133.772 27.3363 135.006 25.3258C135.589 24.3771 136.267 24.2487 137.193 24.2983C137.753 24.3326 137.895 24.5518 137.707 25.0655C137.317 26.0519 136.71 26.9383 135.933 27.6599C132.616 30.8332 127.62 30.6551 124.44 27.2798C123.703 26.5102 123.125 25.6016 122.742 24.6068C122.359 23.612 122.178 22.5509 122.209 21.4854C122.24 20.4198 122.482 19.371 122.922 18.4001C123.363 17.4292 123.991 16.5556 124.773 15.8301C127.35 13.3812 130.285 12.8777 133.532 14.2323C136.373 15.4174 138.387 18.5427 138.383 21.5241C138.383 22.3598 138.063 22.6167 137.269 22.603C135.294 22.567 133.325 22.591 131.357 22.591ZM130.271 20.5189C131.984 20.5189 133.696 20.5189 135.409 20.5189C135.938 20.5189 136.123 20.3613 135.96 19.7979C135.299 17.5323 132.97 15.8095 130.46 15.7684C127.824 15.7256 125.481 17.3525 124.733 19.7071C124.543 20.3031 124.642 20.5394 125.312 20.5291C126.963 20.5017 128.617 20.5206 130.271 20.5189Z" fill="white"/>
<path d="M111.391 26.4306C112.34 24.0759 113.253 21.8069 114.17 19.5344C115.53 16.1779 116.892 12.822 118.255 9.46671C118.582 8.66184 119.82 8.19604 120.573 8.59847C121.005 8.82966 120.722 9.15503 120.62 9.41191C120.01 10.9531 119.38 12.4773 118.751 14.0065C116.76 18.8597 114.749 23.706 112.785 28.5627C112.489 29.2956 112.133 29.6415 111.295 29.633C110.458 29.6244 110.096 29.3213 109.797 28.5729C107.255 22.2795 104.67 16.0067 102.101 9.72529C101.625 8.56594 101.647 8.59163 102.87 8.52655C103.726 8.47689 104.132 8.78514 104.444 9.57802C106.548 14.909 108.699 20.2211 110.841 25.5367C110.958 25.8193 111.007 26.1412 111.391 26.4306Z" fill="white"/>
<path d="M165.445 19.0086C165.445 20.2347 165.445 21.4609 165.445 22.6887C165.445 25.5366 167.416 27.6772 170.053 27.7149C172.691 27.7525 174.746 25.6462 174.795 22.8C174.84 20.1742 174.84 17.5484 174.795 14.9226C174.781 14.0663 175.103 13.8386 175.898 13.854C176.638 13.8677 177.097 13.9961 177.061 14.8815C176.96 17.964 177.28 21.0464 176.89 24.1101C176.468 27.4631 173.506 29.9445 170.11 29.9325C166.649 29.9223 163.762 27.5145 163.346 24.1101C162.955 20.9334 163.231 17.7311 163.21 14.5407C163.21 13.6348 163.983 13.9071 164.503 13.866C165.024 13.8249 165.46 13.9191 165.448 14.6263C165.423 16.0802 165.448 17.5376 165.448 18.9897L165.445 19.0086Z" fill="white"/>
<path d="M153.79 24.367C153.79 25.737 153.79 27.107 153.79 28.477C153.79 29.5285 153.697 29.6124 152.678 29.6141C151.659 29.6158 151.536 29.5182 151.534 28.5112C151.534 25.8004 151.548 23.0912 151.524 20.3804C151.505 18.173 149.777 16.1882 147.611 15.8234C145.508 15.4707 143.33 16.7259 142.539 18.7655C142.263 19.548 142.134 20.3747 142.159 21.2041C142.159 23.6278 142.159 26.0521 142.159 28.477C142.159 29.5644 142.104 29.6141 141.076 29.6158C140.049 29.6175 139.907 29.5285 139.925 28.5198C139.977 25.5555 139.739 22.5843 140.05 19.6269C140.241 17.9347 141.059 16.3755 142.343 15.257C143.627 14.1384 145.284 13.5419 146.986 13.5852C150.706 13.6897 153.648 16.5256 153.776 20.1766C153.824 21.5723 153.776 22.9714 153.776 24.3705L153.79 24.367Z" fill="white"/>
<path d="M91.1724 24.8155C91.7375 24.7231 92.08 24.92 92.2461 25.6718C92.5612 27.0811 93.9997 27.9408 95.3748 27.6925C96.8168 27.4305 97.5685 26.379 97.4195 24.8155C97.3202 23.788 96.69 23.1578 95.7893 22.7982C94.9964 22.4814 94.1727 22.2417 93.3592 21.9762C91.5902 21.4008 90.6193 20.1593 90.448 18.3372C90.2888 16.6247 90.9943 15.2684 92.4465 14.3539C93.9329 13.4155 95.5016 13.2614 97.0702 14.1502C98.1748 14.7752 98.9933 15.6623 99.2707 16.9603C99.4112 17.6197 99.2707 17.9878 98.4881 18.0015C97.7055 18.0152 97.0582 18.0272 96.8613 16.9895C96.7157 16.2308 95.6882 15.7394 94.8063 15.7907C94.3755 15.805 93.9598 15.9523 93.6161 16.2123C93.2723 16.4723 93.0175 16.8323 92.8866 17.2429C92.6246 18.1642 92.8866 19.0273 93.6076 19.5342C94.4878 20.1524 95.5392 20.3665 96.5325 20.7158C98.0737 21.2621 99.2125 22.2074 99.6492 23.8514C100.286 26.2489 99.2108 28.4237 96.8424 29.5249C94.6967 30.5232 92.2187 29.8211 90.7819 27.8124C90.4185 27.2984 90.1639 26.7157 90.0336 26.0999C89.7664 24.9354 89.8658 24.8087 91.1724 24.8155Z" fill="white"/>
<path d="M47.2397 17.1386C47.2397 19.5635 47.2397 21.9883 47.2397 24.4132C47.2397 26.3312 48.2826 27.3638 50.2177 27.3792C51.9867 27.3929 53.7557 27.4101 55.5264 27.3792C56.2799 27.3638 56.5419 27.6515 56.5128 28.3828C56.4871 29.0489 56.5317 29.6517 55.571 29.6277C53.516 29.5747 51.461 29.6877 49.4163 29.4822C46.7397 29.2065 45.0032 27.3998 44.9193 24.2557C44.7891 19.2895 44.8816 14.3232 44.873 9.35702C44.873 8.40659 45.5443 8.56414 46.1334 8.53503C46.779 8.5042 47.2517 8.60353 47.2448 9.42723C47.2226 11.996 47.2363 14.5647 47.2363 17.1334L47.2397 17.1386Z" fill="white"/>
<path d="M85.7149 5.3772C85.8605 5.47418 86 5.57999 86.1327 5.69401C87.731 7.23981 89.3293 8.79019 90.9277 10.3451C91.063 10.477 91.3078 10.602 91.2308 10.8161C91.1332 11.0901 90.8369 10.9753 90.6263 10.9873C90.0851 11.0044 89.5405 11.0164 89.0011 10.9873C88.4 10.9565 88.198 11.2271 88.2048 11.8025C88.2219 13.5715 88.2168 15.3404 88.2048 17.1112C88.2048 18.0102 88.0712 18.089 87.2698 17.6951C85.9888 17.0666 84.725 16.4022 83.4355 15.7943C82.8927 15.5374 82.6837 15.1726 82.7026 14.5852C82.7317 13.6451 82.7026 12.7015 82.7026 11.7614C82.7129 11.2236 82.5005 10.9685 81.9457 10.9907C81.4319 11.0113 80.9182 10.9907 80.4044 10.9907C80.2674 10.9907 80.0996 11.0113 80.026 10.8623C79.9523 10.7133 80.0842 10.5951 80.1818 10.5027C81.8943 8.87238 83.6142 7.24609 85.3415 5.6238C85.458 5.53014 85.583 5.44758 85.7149 5.3772Z" fill="white"/>
<path d="M158.054 11.227C158.054 11.8555 158.066 12.4823 158.054 13.1108C158.04 13.6502 158.28 13.8934 158.821 13.8848C159.506 13.8728 160.191 13.8848 160.876 13.8848C161.711 13.8848 161.622 14.4876 161.634 15.0305C161.646 15.5733 161.607 16.0836 160.855 16.0734C160.199 16.0631 159.543 16.0905 158.888 16.0734C158.322 16.058 158.048 16.272 158.052 16.8697C158.067 19.6371 158.033 22.4044 158.078 25.1701C158.103 26.7456 159.079 27.7388 160.704 27.8827C161.47 27.9478 161.658 28.2937 161.643 28.9787C161.631 29.602 161.388 29.8195 160.766 29.8229C157.692 29.8349 155.81 28.0317 155.8 24.98C155.789 19.8734 155.789 14.7679 155.8 9.66353C155.8 9.29363 155.618 8.77132 156.125 8.61891C156.673 8.44086 157.264 8.45294 157.804 8.65316C158.076 8.76105 158.042 9.083 158.045 9.33816C158.045 9.96664 158.045 10.5934 158.045 11.2219L158.054 11.227Z" fill="white"/>
<path d="M74.8078 17.4674C74.8078 14.8455 74.8078 12.2237 74.8078 9.60019C74.8078 8.59496 74.8729 8.58639 75.9757 8.54016C76.772 8.50591 77.1231 8.75422 77.0769 9.60019C77.0221 10.6517 77.1094 11.71 77.0512 12.7614C77.0032 13.6057 77.2687 13.9893 78.1557 13.902C78.6917 13.8472 79.238 13.9122 79.7792 13.8917C80.5412 13.8609 80.6662 14.3078 80.6525 14.9346C80.6388 15.5614 80.6697 16.1128 79.8083 16.0905C79.1524 16.0717 78.4965 16.1025 77.8406 16.0905C77.308 16.0802 77.0615 16.296 77.0632 16.8491C77.0769 19.5891 77.0289 22.3291 77.0906 25.0571C77.1317 26.7833 78.0667 27.7474 79.7792 27.9015C80.668 27.982 80.6577 28.5026 80.6457 29.1414C80.6337 29.8795 80.1319 29.8264 79.6353 29.8264C76.6213 29.7596 74.8164 27.9289 74.8061 24.9098C74.8027 22.4216 74.8078 19.9419 74.8078 17.4674Z" fill="white"/>
<path d="M181.021 15.616C182.006 14.657 183.009 13.984 184.265 13.7494C184.727 13.6638 185.258 13.5096 185.412 14.234C185.629 15.2615 185.391 15.7992 184.633 15.9465C182.621 16.3507 181.36 17.8662 181.35 19.9383C181.334 22.7605 181.35 25.5895 181.35 28.4049C181.35 29.5368 181.268 29.6036 180.131 29.6036C179.036 29.6036 178.951 29.5248 178.949 28.4477C178.949 23.9712 178.949 19.4954 178.949 15.0201C178.949 14.0011 179.826 13.4908 180.733 13.9532C180.983 14.0799 181.021 14.2957 181.026 14.5183C181.026 14.8985 181.021 15.253 181.021 15.616Z" fill="white"/>
</g>
<defs>
<clipPath id="clip0_3904_2244">
<rect width="203" height="37.846" fill="white"/>
</clipPath>
</defs>
</svg>
